G04 #@! TF.GenerationSoftware,KiCad,Pcbnew,6.0.2-378541a8eb~116~ubuntu21.10.1*
G04 #@! TF.CreationDate,2022-03-03T13:54:26+01:00*
G04 #@! TF.ProjectId,test,74657374-2e6b-4696-9361-645f70636258,rev?*
G04 #@! TF.SameCoordinates,Original*
G04 #@! TF.FileFunction,Legend,Top*
G04 #@! TF.FilePolarity,Positive*
%FSLAX46Y46*%
G04 Gerber Fmt 4.6, Leading zero omitted, Abs format (unit mm)*
G04 Created by KiCad (PCBNEW 6.0.2-378541a8eb~116~ubuntu21.10.1) date 2022-03-03 13:54:26*
%MOMM*%
%LPD*%
G01*
G04 APERTURE LIST*
%ADD10C,0.150000*%
%ADD11C,0.120000*%
G04 APERTURE END LIST*
D10*
G04 #@! TO.C,R9*
X132786380Y-103036666D02*
X132310190Y-103370000D01*
X132786380Y-103608095D02*
X131786380Y-103608095D01*
X131786380Y-103227142D01*
X131834000Y-103131904D01*
X131881619Y-103084285D01*
X131976857Y-103036666D01*
X132119714Y-103036666D01*
X132214952Y-103084285D01*
X132262571Y-103131904D01*
X132310190Y-103227142D01*
X132310190Y-103608095D01*
X132786380Y-102560476D02*
X132786380Y-102370000D01*
X132738761Y-102274761D01*
X132691142Y-102227142D01*
X132548285Y-102131904D01*
X132357809Y-102084285D01*
X131976857Y-102084285D01*
X131881619Y-102131904D01*
X131834000Y-102179523D01*
X131786380Y-102274761D01*
X131786380Y-102465238D01*
X131834000Y-102560476D01*
X131881619Y-102608095D01*
X131976857Y-102655714D01*
X132214952Y-102655714D01*
X132310190Y-102608095D01*
X132357809Y-102560476D01*
X132405428Y-102465238D01*
X132405428Y-102274761D01*
X132357809Y-102179523D01*
X132310190Y-102131904D01*
X132214952Y-102084285D01*
G04 #@! TO.C,R7*
X124912333Y-86859380D02*
X124579000Y-86383190D01*
X124340904Y-86859380D02*
X124340904Y-85859380D01*
X124721857Y-85859380D01*
X124817095Y-85907000D01*
X124864714Y-85954619D01*
X124912333Y-86049857D01*
X124912333Y-86192714D01*
X124864714Y-86287952D01*
X124817095Y-86335571D01*
X124721857Y-86383190D01*
X124340904Y-86383190D01*
X125245666Y-85859380D02*
X125912333Y-85859380D01*
X125483761Y-86859380D01*
G04 #@! TO.C,R2*
X138882380Y-82970666D02*
X138406190Y-83304000D01*
X138882380Y-83542095D02*
X137882380Y-83542095D01*
X137882380Y-83161142D01*
X137930000Y-83065904D01*
X137977619Y-83018285D01*
X138072857Y-82970666D01*
X138215714Y-82970666D01*
X138310952Y-83018285D01*
X138358571Y-83065904D01*
X138406190Y-83161142D01*
X138406190Y-83542095D01*
X137977619Y-82589714D02*
X137930000Y-82542095D01*
X137882380Y-82446857D01*
X137882380Y-82208761D01*
X137930000Y-82113523D01*
X137977619Y-82065904D01*
X138072857Y-82018285D01*
X138168095Y-82018285D01*
X138310952Y-82065904D01*
X138882380Y-82637333D01*
X138882380Y-82018285D01*
G04 #@! TO.C,C10*
X142216142Y-105417857D02*
X142263761Y-105465476D01*
X142311380Y-105608333D01*
X142311380Y-105703571D01*
X142263761Y-105846428D01*
X142168523Y-105941666D01*
X142073285Y-105989285D01*
X141882809Y-106036904D01*
X141739952Y-106036904D01*
X141549476Y-105989285D01*
X141454238Y-105941666D01*
X141359000Y-105846428D01*
X141311380Y-105703571D01*
X141311380Y-105608333D01*
X141359000Y-105465476D01*
X141406619Y-105417857D01*
X142311380Y-104465476D02*
X142311380Y-105036904D01*
X142311380Y-104751190D02*
X141311380Y-104751190D01*
X141454238Y-104846428D01*
X141549476Y-104941666D01*
X141597095Y-105036904D01*
X141311380Y-103846428D02*
X141311380Y-103751190D01*
X141359000Y-103655952D01*
X141406619Y-103608333D01*
X141501857Y-103560714D01*
X141692333Y-103513095D01*
X141930428Y-103513095D01*
X142120904Y-103560714D01*
X142216142Y-103608333D01*
X142263761Y-103655952D01*
X142311380Y-103751190D01*
X142311380Y-103846428D01*
X142263761Y-103941666D01*
X142216142Y-103989285D01*
X142120904Y-104036904D01*
X141930428Y-104084523D01*
X141692333Y-104084523D01*
X141501857Y-104036904D01*
X141406619Y-103989285D01*
X141359000Y-103941666D01*
X141311380Y-103846428D01*
G04 #@! TO.C,R1*
X136342380Y-82970666D02*
X135866190Y-83304000D01*
X136342380Y-83542095D02*
X135342380Y-83542095D01*
X135342380Y-83161142D01*
X135390000Y-83065904D01*
X135437619Y-83018285D01*
X135532857Y-82970666D01*
X135675714Y-82970666D01*
X135770952Y-83018285D01*
X135818571Y-83065904D01*
X135866190Y-83161142D01*
X135866190Y-83542095D01*
X136342380Y-82018285D02*
X136342380Y-82589714D01*
X136342380Y-82304000D02*
X135342380Y-82304000D01*
X135485238Y-82399238D01*
X135580476Y-82494476D01*
X135628095Y-82589714D01*
G04 #@! TO.C,OUT1*
X129798380Y-101171190D02*
X129798380Y-100980714D01*
X129846000Y-100885476D01*
X129941238Y-100790238D01*
X130131714Y-100742619D01*
X130465047Y-100742619D01*
X130655523Y-100790238D01*
X130750761Y-100885476D01*
X130798380Y-100980714D01*
X130798380Y-101171190D01*
X130750761Y-101266428D01*
X130655523Y-101361666D01*
X130465047Y-101409285D01*
X130131714Y-101409285D01*
X129941238Y-101361666D01*
X129846000Y-101266428D01*
X129798380Y-101171190D01*
X129798380Y-100314047D02*
X130607904Y-100314047D01*
X130703142Y-100266428D01*
X130750761Y-100218809D01*
X130798380Y-100123571D01*
X130798380Y-99933095D01*
X130750761Y-99837857D01*
X130703142Y-99790238D01*
X130607904Y-99742619D01*
X129798380Y-99742619D01*
X129798380Y-99409285D02*
X129798380Y-98837857D01*
X130798380Y-99123571D02*
X129798380Y-99123571D01*
X130798380Y-97980714D02*
X130798380Y-98552142D01*
X130798380Y-98266428D02*
X129798380Y-98266428D01*
X129941238Y-98361666D01*
X130036476Y-98456904D01*
X130084095Y-98552142D01*
G04 #@! TO.C,C2*
X132929333Y-84939142D02*
X132881714Y-84986761D01*
X132738857Y-85034380D01*
X132643619Y-85034380D01*
X132500761Y-84986761D01*
X132405523Y-84891523D01*
X132357904Y-84796285D01*
X132310285Y-84605809D01*
X132310285Y-84462952D01*
X132357904Y-84272476D01*
X132405523Y-84177238D01*
X132500761Y-84082000D01*
X132643619Y-84034380D01*
X132738857Y-84034380D01*
X132881714Y-84082000D01*
X132929333Y-84129619D01*
X133310285Y-84129619D02*
X133357904Y-84082000D01*
X133453142Y-84034380D01*
X133691238Y-84034380D01*
X133786476Y-84082000D01*
X133834095Y-84129619D01*
X133881714Y-84224857D01*
X133881714Y-84320095D01*
X133834095Y-84462952D01*
X133262666Y-85034380D01*
X133881714Y-85034380D01*
G04 #@! TO.C,C1*
X137517142Y-82970666D02*
X137564761Y-83018285D01*
X137612380Y-83161142D01*
X137612380Y-83256380D01*
X137564761Y-83399238D01*
X137469523Y-83494476D01*
X137374285Y-83542095D01*
X137183809Y-83589714D01*
X137040952Y-83589714D01*
X136850476Y-83542095D01*
X136755238Y-83494476D01*
X136660000Y-83399238D01*
X136612380Y-83256380D01*
X136612380Y-83161142D01*
X136660000Y-83018285D01*
X136707619Y-82970666D01*
X137612380Y-82018285D02*
X137612380Y-82589714D01*
X137612380Y-82304000D02*
X136612380Y-82304000D01*
X136755238Y-82399238D01*
X136850476Y-82494476D01*
X136898095Y-82589714D01*
G04 #@! TO.C,C9*
X117307142Y-102655666D02*
X117354761Y-102703285D01*
X117402380Y-102846142D01*
X117402380Y-102941380D01*
X117354761Y-103084238D01*
X117259523Y-103179476D01*
X117164285Y-103227095D01*
X116973809Y-103274714D01*
X116830952Y-103274714D01*
X116640476Y-103227095D01*
X116545238Y-103179476D01*
X116450000Y-103084238D01*
X116402380Y-102941380D01*
X116402380Y-102846142D01*
X116450000Y-102703285D01*
X116497619Y-102655666D01*
X117402380Y-102179476D02*
X117402380Y-101989000D01*
X117354761Y-101893761D01*
X117307142Y-101846142D01*
X117164285Y-101750904D01*
X116973809Y-101703285D01*
X116592857Y-101703285D01*
X116497619Y-101750904D01*
X116450000Y-101798523D01*
X116402380Y-101893761D01*
X116402380Y-102084238D01*
X116450000Y-102179476D01*
X116497619Y-102227095D01*
X116592857Y-102274714D01*
X116830952Y-102274714D01*
X116926190Y-102227095D01*
X116973809Y-102179476D01*
X117021428Y-102084238D01*
X117021428Y-101893761D01*
X116973809Y-101798523D01*
X116926190Y-101750904D01*
X116830952Y-101703285D01*
G04 #@! TO.C,R8*
X125039333Y-81986380D02*
X124706000Y-81510190D01*
X124467904Y-81986380D02*
X124467904Y-80986380D01*
X124848857Y-80986380D01*
X124944095Y-81034000D01*
X124991714Y-81081619D01*
X125039333Y-81176857D01*
X125039333Y-81319714D01*
X124991714Y-81414952D01*
X124944095Y-81462571D01*
X124848857Y-81510190D01*
X124467904Y-81510190D01*
X125610761Y-81414952D02*
X125515523Y-81367333D01*
X125467904Y-81319714D01*
X125420285Y-81224476D01*
X125420285Y-81176857D01*
X125467904Y-81081619D01*
X125515523Y-81034000D01*
X125610761Y-80986380D01*
X125801238Y-80986380D01*
X125896476Y-81034000D01*
X125944095Y-81081619D01*
X125991714Y-81176857D01*
X125991714Y-81224476D01*
X125944095Y-81319714D01*
X125896476Y-81367333D01*
X125801238Y-81414952D01*
X125610761Y-81414952D01*
X125515523Y-81462571D01*
X125467904Y-81510190D01*
X125420285Y-81605428D01*
X125420285Y-81795904D01*
X125467904Y-81891142D01*
X125515523Y-81938761D01*
X125610761Y-81986380D01*
X125801238Y-81986380D01*
X125896476Y-81938761D01*
X125944095Y-81891142D01*
X125991714Y-81795904D01*
X125991714Y-81605428D01*
X125944095Y-81510190D01*
X125896476Y-81462571D01*
X125801238Y-81414952D01*
G04 #@! TO.C,C5*
X124912333Y-98829142D02*
X124864714Y-98876761D01*
X124721857Y-98924380D01*
X124626619Y-98924380D01*
X124483761Y-98876761D01*
X124388523Y-98781523D01*
X124340904Y-98686285D01*
X124293285Y-98495809D01*
X124293285Y-98352952D01*
X124340904Y-98162476D01*
X124388523Y-98067238D01*
X124483761Y-97972000D01*
X124626619Y-97924380D01*
X124721857Y-97924380D01*
X124864714Y-97972000D01*
X124912333Y-98019619D01*
X125817095Y-97924380D02*
X125340904Y-97924380D01*
X125293285Y-98400571D01*
X125340904Y-98352952D01*
X125436142Y-98305333D01*
X125674238Y-98305333D01*
X125769476Y-98352952D01*
X125817095Y-98400571D01*
X125864714Y-98495809D01*
X125864714Y-98733904D01*
X125817095Y-98829142D01*
X125769476Y-98876761D01*
X125674238Y-98924380D01*
X125436142Y-98924380D01*
X125340904Y-98876761D01*
X125293285Y-98829142D01*
G04 #@! TO.C,C8*
X125039333Y-80621142D02*
X124991714Y-80668761D01*
X124848857Y-80716380D01*
X124753619Y-80716380D01*
X124610761Y-80668761D01*
X124515523Y-80573523D01*
X124467904Y-80478285D01*
X124420285Y-80287809D01*
X124420285Y-80144952D01*
X124467904Y-79954476D01*
X124515523Y-79859238D01*
X124610761Y-79764000D01*
X124753619Y-79716380D01*
X124848857Y-79716380D01*
X124991714Y-79764000D01*
X125039333Y-79811619D01*
X125610761Y-80144952D02*
X125515523Y-80097333D01*
X125467904Y-80049714D01*
X125420285Y-79954476D01*
X125420285Y-79906857D01*
X125467904Y-79811619D01*
X125515523Y-79764000D01*
X125610761Y-79716380D01*
X125801238Y-79716380D01*
X125896476Y-79764000D01*
X125944095Y-79811619D01*
X125991714Y-79906857D01*
X125991714Y-79954476D01*
X125944095Y-80049714D01*
X125896476Y-80097333D01*
X125801238Y-80144952D01*
X125610761Y-80144952D01*
X125515523Y-80192571D01*
X125467904Y-80240190D01*
X125420285Y-80335428D01*
X125420285Y-80525904D01*
X125467904Y-80621142D01*
X125515523Y-80668761D01*
X125610761Y-80716380D01*
X125801238Y-80716380D01*
X125896476Y-80668761D01*
X125944095Y-80621142D01*
X125991714Y-80525904D01*
X125991714Y-80335428D01*
X125944095Y-80240190D01*
X125896476Y-80192571D01*
X125801238Y-80144952D01*
G04 #@! TO.C,R5*
X124912333Y-101544380D02*
X124579000Y-101068190D01*
X124340904Y-101544380D02*
X124340904Y-100544380D01*
X124721857Y-100544380D01*
X124817095Y-100592000D01*
X124864714Y-100639619D01*
X124912333Y-100734857D01*
X124912333Y-100877714D01*
X124864714Y-100972952D01*
X124817095Y-101020571D01*
X124721857Y-101068190D01*
X124340904Y-101068190D01*
X125817095Y-100544380D02*
X125340904Y-100544380D01*
X125293285Y-101020571D01*
X125340904Y-100972952D01*
X125436142Y-100925333D01*
X125674238Y-100925333D01*
X125769476Y-100972952D01*
X125817095Y-101020571D01*
X125864714Y-101115809D01*
X125864714Y-101353904D01*
X125817095Y-101449142D01*
X125769476Y-101496761D01*
X125674238Y-101544380D01*
X125436142Y-101544380D01*
X125340904Y-101496761D01*
X125293285Y-101449142D01*
G04 #@! TO.C,R3*
X143089333Y-86304380D02*
X142756000Y-85828190D01*
X142517904Y-86304380D02*
X142517904Y-85304380D01*
X142898857Y-85304380D01*
X142994095Y-85352000D01*
X143041714Y-85399619D01*
X143089333Y-85494857D01*
X143089333Y-85637714D01*
X143041714Y-85732952D01*
X142994095Y-85780571D01*
X142898857Y-85828190D01*
X142517904Y-85828190D01*
X143422666Y-85304380D02*
X144041714Y-85304380D01*
X143708380Y-85685333D01*
X143851238Y-85685333D01*
X143946476Y-85732952D01*
X143994095Y-85780571D01*
X144041714Y-85875809D01*
X144041714Y-86113904D01*
X143994095Y-86209142D01*
X143946476Y-86256761D01*
X143851238Y-86304380D01*
X143565523Y-86304380D01*
X143470285Y-86256761D01*
X143422666Y-86209142D01*
G04 #@! TO.C,R6*
X127282380Y-90209666D02*
X126806190Y-90543000D01*
X127282380Y-90781095D02*
X126282380Y-90781095D01*
X126282380Y-90400142D01*
X126330000Y-90304904D01*
X126377619Y-90257285D01*
X126472857Y-90209666D01*
X126615714Y-90209666D01*
X126710952Y-90257285D01*
X126758571Y-90304904D01*
X126806190Y-90400142D01*
X126806190Y-90781095D01*
X126282380Y-89352523D02*
X126282380Y-89543000D01*
X126330000Y-89638238D01*
X126377619Y-89685857D01*
X126520476Y-89781095D01*
X126710952Y-89828714D01*
X127091904Y-89828714D01*
X127187142Y-89781095D01*
X127234761Y-89733476D01*
X127282380Y-89638238D01*
X127282380Y-89447761D01*
X127234761Y-89352523D01*
X127187142Y-89304904D01*
X127091904Y-89257285D01*
X126853809Y-89257285D01*
X126758571Y-89304904D01*
X126710952Y-89352523D01*
X126663333Y-89447761D01*
X126663333Y-89638238D01*
X126710952Y-89733476D01*
X126758571Y-89781095D01*
X126853809Y-89828714D01*
G04 #@! TO.C,R4*
X124910333Y-92781380D02*
X124577000Y-92305190D01*
X124338904Y-92781380D02*
X124338904Y-91781380D01*
X124719857Y-91781380D01*
X124815095Y-91829000D01*
X124862714Y-91876619D01*
X124910333Y-91971857D01*
X124910333Y-92114714D01*
X124862714Y-92209952D01*
X124815095Y-92257571D01*
X124719857Y-92305190D01*
X124338904Y-92305190D01*
X125767476Y-92114714D02*
X125767476Y-92781380D01*
X125529380Y-91733761D02*
X125291285Y-92448047D01*
X125910333Y-92448047D01*
G04 #@! TO.C,C12*
X145661142Y-100052142D02*
X145613523Y-100099761D01*
X145470666Y-100147380D01*
X145375428Y-100147380D01*
X145232571Y-100099761D01*
X145137333Y-100004523D01*
X145089714Y-99909285D01*
X145042095Y-99718809D01*
X145042095Y-99575952D01*
X145089714Y-99385476D01*
X145137333Y-99290238D01*
X145232571Y-99195000D01*
X145375428Y-99147380D01*
X145470666Y-99147380D01*
X145613523Y-99195000D01*
X145661142Y-99242619D01*
X146613523Y-100147380D02*
X146042095Y-100147380D01*
X146327809Y-100147380D02*
X146327809Y-99147380D01*
X146232571Y-99290238D01*
X146137333Y-99385476D01*
X146042095Y-99433095D01*
X146994476Y-99242619D02*
X147042095Y-99195000D01*
X147137333Y-99147380D01*
X147375428Y-99147380D01*
X147470666Y-99195000D01*
X147518285Y-99242619D01*
X147565904Y-99337857D01*
X147565904Y-99433095D01*
X147518285Y-99575952D01*
X146946857Y-100147380D01*
X147565904Y-100147380D01*
G04 #@! TO.C,C4*
X124959333Y-93829142D02*
X124911714Y-93876761D01*
X124768857Y-93924380D01*
X124673619Y-93924380D01*
X124530761Y-93876761D01*
X124435523Y-93781523D01*
X124387904Y-93686285D01*
X124340285Y-93495809D01*
X124340285Y-93352952D01*
X124387904Y-93162476D01*
X124435523Y-93067238D01*
X124530761Y-92972000D01*
X124673619Y-92924380D01*
X124768857Y-92924380D01*
X124911714Y-92972000D01*
X124959333Y-93019619D01*
X125816476Y-93257714D02*
X125816476Y-93924380D01*
X125578380Y-92876761D02*
X125340285Y-93591047D01*
X125959333Y-93591047D01*
G04 #@! TO.C,C3*
X143089333Y-84939142D02*
X143041714Y-84986761D01*
X142898857Y-85034380D01*
X142803619Y-85034380D01*
X142660761Y-84986761D01*
X142565523Y-84891523D01*
X142517904Y-84796285D01*
X142470285Y-84605809D01*
X142470285Y-84462952D01*
X142517904Y-84272476D01*
X142565523Y-84177238D01*
X142660761Y-84082000D01*
X142803619Y-84034380D01*
X142898857Y-84034380D01*
X143041714Y-84082000D01*
X143089333Y-84129619D01*
X143422666Y-84034380D02*
X144041714Y-84034380D01*
X143708380Y-84415333D01*
X143851238Y-84415333D01*
X143946476Y-84462952D01*
X143994095Y-84510571D01*
X144041714Y-84605809D01*
X144041714Y-84843904D01*
X143994095Y-84939142D01*
X143946476Y-84986761D01*
X143851238Y-85034380D01*
X143565523Y-85034380D01*
X143470285Y-84986761D01*
X143422666Y-84939142D01*
G04 #@! TO.C,GND1*
X145573904Y-82348000D02*
X145478666Y-82300380D01*
X145335809Y-82300380D01*
X145192952Y-82348000D01*
X145097714Y-82443238D01*
X145050095Y-82538476D01*
X145002476Y-82728952D01*
X145002476Y-82871809D01*
X145050095Y-83062285D01*
X145097714Y-83157523D01*
X145192952Y-83252761D01*
X145335809Y-83300380D01*
X145431047Y-83300380D01*
X145573904Y-83252761D01*
X145621523Y-83205142D01*
X145621523Y-82871809D01*
X145431047Y-82871809D01*
X146050095Y-83300380D02*
X146050095Y-82300380D01*
X146621523Y-83300380D01*
X146621523Y-82300380D01*
X147097714Y-83300380D02*
X147097714Y-82300380D01*
X147335809Y-82300380D01*
X147478666Y-82348000D01*
X147573904Y-82443238D01*
X147621523Y-82538476D01*
X147669142Y-82728952D01*
X147669142Y-82871809D01*
X147621523Y-83062285D01*
X147573904Y-83157523D01*
X147478666Y-83252761D01*
X147335809Y-83300380D01*
X147097714Y-83300380D01*
X148621523Y-83300380D02*
X148050095Y-83300380D01*
X148335809Y-83300380D02*
X148335809Y-82300380D01*
X148240571Y-82443238D01*
X148145333Y-82538476D01*
X148050095Y-82586095D01*
G04 #@! TO.C,R10*
X143581380Y-105417857D02*
X143105190Y-105751190D01*
X143581380Y-105989285D02*
X142581380Y-105989285D01*
X142581380Y-105608333D01*
X142629000Y-105513095D01*
X142676619Y-105465476D01*
X142771857Y-105417857D01*
X142914714Y-105417857D01*
X143009952Y-105465476D01*
X143057571Y-105513095D01*
X143105190Y-105608333D01*
X143105190Y-105989285D01*
X143581380Y-104465476D02*
X143581380Y-105036904D01*
X143581380Y-104751190D02*
X142581380Y-104751190D01*
X142724238Y-104846428D01*
X142819476Y-104941666D01*
X142867095Y-105036904D01*
X142581380Y-103846428D02*
X142581380Y-103751190D01*
X142629000Y-103655952D01*
X142676619Y-103608333D01*
X142771857Y-103560714D01*
X142962333Y-103513095D01*
X143200428Y-103513095D01*
X143390904Y-103560714D01*
X143486142Y-103608333D01*
X143533761Y-103655952D01*
X143581380Y-103751190D01*
X143581380Y-103846428D01*
X143533761Y-103941666D01*
X143486142Y-103989285D01*
X143390904Y-104036904D01*
X143200428Y-104084523D01*
X142962333Y-104084523D01*
X142771857Y-104036904D01*
X142676619Y-103989285D01*
X142629000Y-103941666D01*
X142581380Y-103846428D01*
G04 #@! TO.C,5V1*
X146145333Y-87380380D02*
X145669142Y-87380380D01*
X145621523Y-87856571D01*
X145669142Y-87808952D01*
X145764380Y-87761333D01*
X146002476Y-87761333D01*
X146097714Y-87808952D01*
X146145333Y-87856571D01*
X146192952Y-87951809D01*
X146192952Y-88189904D01*
X146145333Y-88285142D01*
X146097714Y-88332761D01*
X146002476Y-88380380D01*
X145764380Y-88380380D01*
X145669142Y-88332761D01*
X145621523Y-88285142D01*
X146478666Y-87380380D02*
X146812000Y-88380380D01*
X147145333Y-87380380D01*
X148002476Y-88380380D02*
X147431047Y-88380380D01*
X147716761Y-88380380D02*
X147716761Y-87380380D01*
X147621523Y-87523238D01*
X147526285Y-87618476D01*
X147431047Y-87666095D01*
G04 #@! TO.C,C11*
X144756142Y-105417857D02*
X144803761Y-105465476D01*
X144851380Y-105608333D01*
X144851380Y-105703571D01*
X144803761Y-105846428D01*
X144708523Y-105941666D01*
X144613285Y-105989285D01*
X144422809Y-106036904D01*
X144279952Y-106036904D01*
X144089476Y-105989285D01*
X143994238Y-105941666D01*
X143899000Y-105846428D01*
X143851380Y-105703571D01*
X143851380Y-105608333D01*
X143899000Y-105465476D01*
X143946619Y-105417857D01*
X144851380Y-104465476D02*
X144851380Y-105036904D01*
X144851380Y-104751190D02*
X143851380Y-104751190D01*
X143994238Y-104846428D01*
X144089476Y-104941666D01*
X144137095Y-105036904D01*
X144851380Y-103513095D02*
X144851380Y-104084523D01*
X144851380Y-103798809D02*
X143851380Y-103798809D01*
X143994238Y-103894047D01*
X144089476Y-103989285D01*
X144137095Y-104084523D01*
G04 #@! TO.C,C6*
X124912333Y-100052142D02*
X124864714Y-100099761D01*
X124721857Y-100147380D01*
X124626619Y-100147380D01*
X124483761Y-100099761D01*
X124388523Y-100004523D01*
X124340904Y-99909285D01*
X124293285Y-99718809D01*
X124293285Y-99575952D01*
X124340904Y-99385476D01*
X124388523Y-99290238D01*
X124483761Y-99195000D01*
X124626619Y-99147380D01*
X124721857Y-99147380D01*
X124864714Y-99195000D01*
X124912333Y-99242619D01*
X125769476Y-99147380D02*
X125579000Y-99147380D01*
X125483761Y-99195000D01*
X125436142Y-99242619D01*
X125340904Y-99385476D01*
X125293285Y-99575952D01*
X125293285Y-99956904D01*
X125340904Y-100052142D01*
X125388523Y-100099761D01*
X125483761Y-100147380D01*
X125674238Y-100147380D01*
X125769476Y-100099761D01*
X125817095Y-100052142D01*
X125864714Y-99956904D01*
X125864714Y-99718809D01*
X125817095Y-99623571D01*
X125769476Y-99575952D01*
X125674238Y-99528333D01*
X125483761Y-99528333D01*
X125388523Y-99575952D01*
X125340904Y-99623571D01*
X125293285Y-99718809D01*
G04 #@! TO.C,IN1*
X136160000Y-78640380D02*
X136160000Y-77640380D01*
X136636190Y-78640380D02*
X136636190Y-77640380D01*
X137207619Y-78640380D01*
X137207619Y-77640380D01*
X138207619Y-78640380D02*
X137636190Y-78640380D01*
X137921904Y-78640380D02*
X137921904Y-77640380D01*
X137826666Y-77783238D01*
X137731428Y-77878476D01*
X137636190Y-77926095D01*
G04 #@! TO.C,U2*
X136717095Y-96382380D02*
X136717095Y-97191904D01*
X136764714Y-97287142D01*
X136812333Y-97334761D01*
X136907571Y-97382380D01*
X137098047Y-97382380D01*
X137193285Y-97334761D01*
X137240904Y-97287142D01*
X137288523Y-97191904D01*
X137288523Y-96382380D01*
X137717095Y-96477619D02*
X137764714Y-96430000D01*
X137859952Y-96382380D01*
X138098047Y-96382380D01*
X138193285Y-96430000D01*
X138240904Y-96477619D01*
X138288523Y-96572857D01*
X138288523Y-96668095D01*
X138240904Y-96810952D01*
X137669476Y-97382380D01*
X138288523Y-97382380D01*
G04 #@! TO.C,U1*
X140647380Y-91185904D02*
X141456904Y-91185904D01*
X141552142Y-91138285D01*
X141599761Y-91090666D01*
X141647380Y-90995428D01*
X141647380Y-90804952D01*
X141599761Y-90709714D01*
X141552142Y-90662095D01*
X141456904Y-90614476D01*
X140647380Y-90614476D01*
X141647380Y-89614476D02*
X141647380Y-90185904D01*
X141647380Y-89900190D02*
X140647380Y-89900190D01*
X140790238Y-89995428D01*
X140885476Y-90090666D01*
X140933095Y-90185904D01*
G04 #@! TO.C,C7*
X124912333Y-87987142D02*
X124864714Y-88034761D01*
X124721857Y-88082380D01*
X124626619Y-88082380D01*
X124483761Y-88034761D01*
X124388523Y-87939523D01*
X124340904Y-87844285D01*
X124293285Y-87653809D01*
X124293285Y-87510952D01*
X124340904Y-87320476D01*
X124388523Y-87225238D01*
X124483761Y-87130000D01*
X124626619Y-87082380D01*
X124721857Y-87082380D01*
X124864714Y-87130000D01*
X124912333Y-87177619D01*
X125245666Y-87082380D02*
X125912333Y-87082380D01*
X125483761Y-88082380D01*
D11*
G04 #@! TO.C,R9*
X131954000Y-101118641D02*
X131954000Y-100811359D01*
X132714000Y-101118641D02*
X132714000Y-100811359D01*
G04 #@! TO.C,R7*
X123200641Y-86027000D02*
X122893359Y-86027000D01*
X123200641Y-86787000D02*
X122893359Y-86787000D01*
G04 #@! TO.C,R2*
X138810000Y-84428359D02*
X138810000Y-84735641D01*
X138050000Y-84428359D02*
X138050000Y-84735641D01*
G04 #@! TO.C,C10*
X141626000Y-102342836D02*
X141626000Y-102127164D01*
X142346000Y-102342836D02*
X142346000Y-102127164D01*
G04 #@! TO.C,R1*
X135510000Y-84735641D02*
X135510000Y-84428359D01*
X136270000Y-84735641D02*
X136270000Y-84428359D01*
G04 #@! TO.C,OUT1*
X135830000Y-113030000D02*
X138490000Y-113030000D01*
X135830000Y-110430000D02*
X137160000Y-110430000D01*
X135830000Y-113090000D02*
X138490000Y-113090000D01*
X135830000Y-113030000D02*
X135830000Y-113090000D01*
X138490000Y-113030000D02*
X138490000Y-113090000D01*
X135830000Y-111760000D02*
X135830000Y-110430000D01*
G04 #@! TO.C,C2*
X134980000Y-84689836D02*
X134980000Y-84474164D01*
X134260000Y-84689836D02*
X134260000Y-84474164D01*
G04 #@! TO.C,C1*
X136800000Y-84474164D02*
X136800000Y-84689836D01*
X137520000Y-84474164D02*
X137520000Y-84689836D01*
G04 #@! TO.C,C9*
X118470000Y-102596836D02*
X118470000Y-102381164D01*
X117750000Y-102596836D02*
X117750000Y-102381164D01*
G04 #@! TO.C,R8*
X123200641Y-81027000D02*
X122893359Y-81027000D01*
X123200641Y-81787000D02*
X122893359Y-81787000D01*
G04 #@! TO.C,C5*
X122812164Y-98832000D02*
X123027836Y-98832000D01*
X122812164Y-98112000D02*
X123027836Y-98112000D01*
G04 #@! TO.C,C8*
X123154836Y-80624000D02*
X122939164Y-80624000D01*
X123154836Y-79904000D02*
X122939164Y-79904000D01*
G04 #@! TO.C,R5*
X123073641Y-101345000D02*
X122766359Y-101345000D01*
X123073641Y-100585000D02*
X122766359Y-100585000D01*
G04 #@! TO.C,R3*
X140816359Y-86232000D02*
X141123641Y-86232000D01*
X140816359Y-85472000D02*
X141123641Y-85472000D01*
G04 #@! TO.C,R6*
X127620000Y-90196641D02*
X127620000Y-89889359D01*
X128380000Y-90196641D02*
X128380000Y-89889359D01*
G04 #@! TO.C,R4*
X122893359Y-91949000D02*
X123200641Y-91949000D01*
X122893359Y-92709000D02*
X123200641Y-92709000D01*
G04 #@! TO.C,C12*
X143843836Y-99335000D02*
X143628164Y-99335000D01*
X143843836Y-100055000D02*
X143628164Y-100055000D01*
G04 #@! TO.C,C4*
X122939164Y-93832000D02*
X123154836Y-93832000D01*
X122939164Y-93112000D02*
X123154836Y-93112000D01*
G04 #@! TO.C,C3*
X140862164Y-84942000D02*
X141077836Y-84942000D01*
X140862164Y-84222000D02*
X141077836Y-84222000D01*
G04 #@! TO.C,GND1*
X148142000Y-81848000D02*
X146812000Y-81848000D01*
X148142000Y-80518000D02*
X148142000Y-81848000D01*
X145482000Y-79248000D02*
X145482000Y-79188000D01*
X148142000Y-79188000D02*
X145482000Y-79188000D01*
X148142000Y-79248000D02*
X145482000Y-79248000D01*
X148142000Y-79248000D02*
X148142000Y-79188000D01*
G04 #@! TO.C,R10*
X143509000Y-102388641D02*
X143509000Y-102081359D01*
X142749000Y-102388641D02*
X142749000Y-102081359D01*
G04 #@! TO.C,5V1*
X148142000Y-86928000D02*
X146812000Y-86928000D01*
X148142000Y-84328000D02*
X145482000Y-84328000D01*
X148142000Y-85598000D02*
X148142000Y-86928000D01*
X145482000Y-84328000D02*
X145482000Y-84268000D01*
X148142000Y-84328000D02*
X148142000Y-84268000D01*
X148142000Y-84268000D02*
X145482000Y-84268000D01*
G04 #@! TO.C,C11*
X144039000Y-102127164D02*
X144039000Y-102342836D01*
X144759000Y-102127164D02*
X144759000Y-102342836D01*
G04 #@! TO.C,C6*
X122812164Y-100055000D02*
X123027836Y-100055000D01*
X122812164Y-99335000D02*
X123027836Y-99335000D01*
G04 #@! TO.C,IN1*
X135830000Y-81788000D02*
X138490000Y-81788000D01*
X138490000Y-81788000D02*
X138490000Y-81848000D01*
X135830000Y-81788000D02*
X135830000Y-81848000D01*
X135830000Y-79188000D02*
X137160000Y-79188000D01*
X135830000Y-81848000D02*
X138490000Y-81848000D01*
X135830000Y-80518000D02*
X135830000Y-79188000D01*
G04 #@! TO.C,U2*
X137479000Y-102890000D02*
X139429000Y-102890000D01*
X137479000Y-97770000D02*
X134029000Y-97770000D01*
X137479000Y-102890000D02*
X135529000Y-102890000D01*
X137479000Y-97770000D02*
X139429000Y-97770000D01*
G04 #@! TO.C,U1*
X140355000Y-90424000D02*
X140355000Y-92374000D01*
X135235000Y-90424000D02*
X135235000Y-92374000D01*
X135235000Y-90424000D02*
X135235000Y-88474000D01*
X140355000Y-90424000D02*
X140355000Y-86974000D01*
G04 #@! TO.C,C7*
X122939164Y-87270000D02*
X123154836Y-87270000D01*
X122939164Y-87990000D02*
X123154836Y-87990000D01*
G04 #@! TD*
M02*
