G04 #@! TF.GenerationSoftware,KiCad,Pcbnew,6.0.2-378541a8eb~116~ubuntu21.10.1*
G04 #@! TF.CreationDate,2022-03-03T13:54:26+01:00*
G04 #@! TF.ProjectId,test,74657374-2e6b-4696-9361-645f70636258,rev?*
G04 #@! TF.SameCoordinates,Original*
G04 #@! TF.FileFunction,Legend,Bot*
G04 #@! TF.FilePolarity,Positive*
%FSLAX46Y46*%
G04 Gerber Fmt 4.6, Leading zero omitted, Abs format (unit mm)*
G04 Created by KiCad (PCBNEW 6.0.2-378541a8eb~116~ubuntu21.10.1) date 2022-03-03 13:54:26*
%MOMM*%
%LPD*%
G01*
G04 APERTURE LIST*
%ADD10C,0.150000*%
%ADD11C,0.120000*%
G04 APERTURE END LIST*
D10*
G04 #@! TO.C,RV2*
X123578238Y-90509380D02*
X123911571Y-90033190D01*
X124149666Y-90509380D02*
X124149666Y-89509380D01*
X123768714Y-89509380D01*
X123673476Y-89557000D01*
X123625857Y-89604619D01*
X123578238Y-89699857D01*
X123578238Y-89842714D01*
X123625857Y-89937952D01*
X123673476Y-89985571D01*
X123768714Y-90033190D01*
X124149666Y-90033190D01*
X123292523Y-89509380D02*
X122959190Y-90509380D01*
X122625857Y-89509380D01*
X122340142Y-89604619D02*
X122292523Y-89557000D01*
X122197285Y-89509380D01*
X121959190Y-89509380D01*
X121863952Y-89557000D01*
X121816333Y-89604619D01*
X121768714Y-89699857D01*
X121768714Y-89795095D01*
X121816333Y-89937952D01*
X122387761Y-90509380D01*
X121768714Y-90509380D01*
G04 #@! TO.C,RV3*
X123705238Y-114639380D02*
X124038571Y-114163190D01*
X124276666Y-114639380D02*
X124276666Y-113639380D01*
X123895714Y-113639380D01*
X123800476Y-113687000D01*
X123752857Y-113734619D01*
X123705238Y-113829857D01*
X123705238Y-113972714D01*
X123752857Y-114067952D01*
X123800476Y-114115571D01*
X123895714Y-114163190D01*
X124276666Y-114163190D01*
X123419523Y-113639380D02*
X123086190Y-114639380D01*
X122752857Y-113639380D01*
X122514761Y-113639380D02*
X121895714Y-113639380D01*
X122229047Y-114020333D01*
X122086190Y-114020333D01*
X121990952Y-114067952D01*
X121943333Y-114115571D01*
X121895714Y-114210809D01*
X121895714Y-114448904D01*
X121943333Y-114544142D01*
X121990952Y-114591761D01*
X122086190Y-114639380D01*
X122371904Y-114639380D01*
X122467142Y-114591761D01*
X122514761Y-114544142D01*
G04 #@! TO.C,RV1*
X123595238Y-96365380D02*
X123928571Y-95889190D01*
X124166666Y-96365380D02*
X124166666Y-95365380D01*
X123785714Y-95365380D01*
X123690476Y-95413000D01*
X123642857Y-95460619D01*
X123595238Y-95555857D01*
X123595238Y-95698714D01*
X123642857Y-95793952D01*
X123690476Y-95841571D01*
X123785714Y-95889190D01*
X124166666Y-95889190D01*
X123309523Y-95365380D02*
X122976190Y-96365380D01*
X122642857Y-95365380D01*
X121785714Y-96365380D02*
X122357142Y-96365380D01*
X122071428Y-96365380D02*
X122071428Y-95365380D01*
X122166666Y-95508238D01*
X122261904Y-95603476D01*
X122357142Y-95651095D01*
D11*
G04 #@! TO.C,RV2*
X117863000Y-88928000D02*
X117863000Y-87833000D01*
X117863000Y-79982000D02*
X117863000Y-78887000D01*
X128103000Y-88928000D02*
X128103000Y-85332000D01*
X117863000Y-84981000D02*
X117863000Y-82832000D01*
X117863000Y-88928000D02*
X128103000Y-88928000D01*
X128103000Y-82482000D02*
X128103000Y-78887000D01*
X117863000Y-78887000D02*
X128103000Y-78887000D01*
G04 #@! TO.C,RV3*
X117990000Y-109111000D02*
X117990000Y-106962000D01*
X117990000Y-104112000D02*
X117990000Y-103017000D01*
X128230000Y-113058000D02*
X128230000Y-109462000D01*
X117990000Y-103017000D02*
X128230000Y-103017000D01*
X117990000Y-113058000D02*
X117990000Y-111963000D01*
X117990000Y-113058000D02*
X128230000Y-113058000D01*
X128230000Y-106612000D02*
X128230000Y-103017000D01*
G04 #@! TO.C,RV1*
X117880000Y-100993000D02*
X117880000Y-99898000D01*
X128120000Y-100993000D02*
X128120000Y-97397000D01*
X117880000Y-92047000D02*
X117880000Y-90952000D01*
X117880000Y-90952000D02*
X128120000Y-90952000D01*
X117880000Y-100993000D02*
X128120000Y-100993000D01*
X117880000Y-97046000D02*
X117880000Y-94897000D01*
X128120000Y-94547000D02*
X128120000Y-90952000D01*
G04 #@! TD*
M02*
