G04 #@! TF.GenerationSoftware,KiCad,Pcbnew,6.0.2-378541a8eb~116~ubuntu21.10.1*
G04 #@! TF.CreationDate,2022-03-03T13:54:26+01:00*
G04 #@! TF.ProjectId,test,74657374-2e6b-4696-9361-645f70636258,rev?*
G04 #@! TF.SameCoordinates,Original*
G04 #@! TF.FileFunction,Paste,Top*
G04 #@! TF.FilePolarity,Positive*
%FSLAX46Y46*%
G04 Gerber Fmt 4.6, Leading zero omitted, Abs format (unit mm)*
G04 Created by KiCad (PCBNEW 6.0.2-378541a8eb~116~ubuntu21.10.1) date 2022-03-03 13:54:26*
%MOMM*%
%LPD*%
G01*
G04 APERTURE LIST*
G04 Aperture macros list*
%AMRoundRect*
0 Rectangle with rounded corners*
0 $1 Rounding radius*
0 $2 $3 $4 $5 $6 $7 $8 $9 X,Y pos of 4 corners*
0 Add a 4 corners polygon primitive as box body*
4,1,4,$2,$3,$4,$5,$6,$7,$8,$9,$2,$3,0*
0 Add four circle primitives for the rounded corners*
1,1,$1+$1,$2,$3*
1,1,$1+$1,$4,$5*
1,1,$1+$1,$6,$7*
1,1,$1+$1,$8,$9*
0 Add four rect primitives between the rounded corners*
20,1,$1+$1,$2,$3,$4,$5,0*
20,1,$1+$1,$4,$5,$6,$7,0*
20,1,$1+$1,$6,$7,$8,$9,0*
20,1,$1+$1,$8,$9,$2,$3,0*%
G04 Aperture macros list end*
%ADD10RoundRect,0.135000X0.185000X-0.135000X0.185000X0.135000X-0.185000X0.135000X-0.185000X-0.135000X0*%
%ADD11RoundRect,0.135000X0.135000X0.185000X-0.135000X0.185000X-0.135000X-0.185000X0.135000X-0.185000X0*%
%ADD12RoundRect,0.135000X-0.185000X0.135000X-0.185000X-0.135000X0.185000X-0.135000X0.185000X0.135000X0*%
%ADD13RoundRect,0.140000X0.170000X-0.140000X0.170000X0.140000X-0.170000X0.140000X-0.170000X-0.140000X0*%
%ADD14RoundRect,0.140000X-0.170000X0.140000X-0.170000X-0.140000X0.170000X-0.140000X0.170000X0.140000X0*%
%ADD15RoundRect,0.140000X-0.140000X-0.170000X0.140000X-0.170000X0.140000X0.170000X-0.140000X0.170000X0*%
%ADD16RoundRect,0.140000X0.140000X0.170000X-0.140000X0.170000X-0.140000X-0.170000X0.140000X-0.170000X0*%
%ADD17RoundRect,0.135000X-0.135000X-0.185000X0.135000X-0.185000X0.135000X0.185000X-0.135000X0.185000X0*%
%ADD18RoundRect,0.230000X-0.230000X-0.375000X0.230000X-0.375000X0.230000X0.375000X-0.230000X0.375000X0*%
%ADD19RoundRect,0.150000X-0.825000X-0.150000X0.825000X-0.150000X0.825000X0.150000X-0.825000X0.150000X0*%
%ADD20RoundRect,0.230000X-0.375000X0.230000X-0.375000X-0.230000X0.375000X-0.230000X0.375000X0.230000X0*%
%ADD21RoundRect,0.150000X-0.150000X0.825000X-0.150000X-0.825000X0.150000X-0.825000X0.150000X0.825000X0*%
G04 APERTURE END LIST*
D10*
G04 #@! TO.C,R9*
X132334000Y-101475000D03*
X132334000Y-100455000D03*
G04 #@! TD*
D11*
G04 #@! TO.C,R7*
X123557000Y-86407000D03*
X122537000Y-86407000D03*
G04 #@! TD*
D12*
G04 #@! TO.C,R2*
X138430000Y-84072000D03*
X138430000Y-85092000D03*
G04 #@! TD*
D13*
G04 #@! TO.C,C10*
X141986000Y-102715000D03*
X141986000Y-101755000D03*
G04 #@! TD*
D10*
G04 #@! TO.C,R1*
X135890000Y-85092000D03*
X135890000Y-84072000D03*
G04 #@! TD*
D13*
G04 #@! TO.C,C2*
X134620000Y-85062000D03*
X134620000Y-84102000D03*
G04 #@! TD*
D14*
G04 #@! TO.C,C1*
X137160000Y-84102000D03*
X137160000Y-85062000D03*
G04 #@! TD*
D13*
G04 #@! TO.C,C9*
X118110000Y-102969000D03*
X118110000Y-102009000D03*
G04 #@! TD*
D11*
G04 #@! TO.C,R8*
X123557000Y-81407000D03*
X122537000Y-81407000D03*
G04 #@! TD*
D15*
G04 #@! TO.C,C5*
X122440000Y-98472000D03*
X123400000Y-98472000D03*
G04 #@! TD*
D16*
G04 #@! TO.C,C8*
X123527000Y-80264000D03*
X122567000Y-80264000D03*
G04 #@! TD*
D11*
G04 #@! TO.C,R5*
X123430000Y-100965000D03*
X122410000Y-100965000D03*
G04 #@! TD*
D17*
G04 #@! TO.C,R3*
X140460000Y-85852000D03*
X141480000Y-85852000D03*
G04 #@! TD*
D10*
G04 #@! TO.C,R6*
X128000000Y-90553000D03*
X128000000Y-89533000D03*
G04 #@! TD*
D17*
G04 #@! TO.C,R4*
X122537000Y-92329000D03*
X123557000Y-92329000D03*
G04 #@! TD*
D16*
G04 #@! TO.C,C12*
X144216000Y-99695000D03*
X143256000Y-99695000D03*
G04 #@! TD*
D15*
G04 #@! TO.C,C4*
X122567000Y-93472000D03*
X123527000Y-93472000D03*
G04 #@! TD*
G04 #@! TO.C,C3*
X140490000Y-84582000D03*
X141450000Y-84582000D03*
G04 #@! TD*
D10*
G04 #@! TO.C,R10*
X143129000Y-102745000D03*
X143129000Y-101725000D03*
G04 #@! TD*
D14*
G04 #@! TO.C,C11*
X144399000Y-101755000D03*
X144399000Y-102715000D03*
G04 #@! TD*
D15*
G04 #@! TO.C,C6*
X122440000Y-99695000D03*
X123400000Y-99695000D03*
G04 #@! TD*
D18*
G04 #@! TO.C,U2*
X136909000Y-99580000D03*
X138049000Y-99580000D03*
X138049000Y-101080000D03*
X136909000Y-101080000D03*
D19*
X135004000Y-98425000D03*
X135004000Y-99695000D03*
X135004000Y-100965000D03*
X135004000Y-102235000D03*
X139954000Y-102235000D03*
X139954000Y-100965000D03*
X139954000Y-99695000D03*
X139954000Y-98425000D03*
G04 #@! TD*
D20*
G04 #@! TO.C,U1*
X138545000Y-90994000D03*
X137045000Y-89854000D03*
X137045000Y-90994000D03*
X138545000Y-89854000D03*
D21*
X139700000Y-87949000D03*
X138430000Y-87949000D03*
X137160000Y-87949000D03*
X135890000Y-87949000D03*
X135890000Y-92899000D03*
X137160000Y-92899000D03*
X138430000Y-92899000D03*
X139700000Y-92899000D03*
G04 #@! TD*
D15*
G04 #@! TO.C,C7*
X122567000Y-87630000D03*
X123527000Y-87630000D03*
G04 #@! TD*
M02*
