G04 #@! TF.GenerationSoftware,KiCad,Pcbnew,6.0.2-378541a8eb~116~ubuntu21.10.1*
G04 #@! TF.CreationDate,2022-03-03T13:54:26+01:00*
G04 #@! TF.ProjectId,test,74657374-2e6b-4696-9361-645f70636258,rev?*
G04 #@! TF.SameCoordinates,Original*
G04 #@! TF.FileFunction,Copper,L2,Bot*
G04 #@! TF.FilePolarity,Positive*
%FSLAX46Y46*%
G04 Gerber Fmt 4.6, Leading zero omitted, Abs format (unit mm)*
G04 Created by KiCad (PCBNEW 6.0.2-378541a8eb~116~ubuntu21.10.1) date 2022-03-03 13:54:26*
%MOMM*%
%LPD*%
G01*
G04 APERTURE LIST*
G04 #@! TA.AperFunction,ComponentPad*
%ADD10R,1.700000X1.700000*%
G04 #@! TD*
G04 #@! TA.AperFunction,ComponentPad*
%ADD11C,2.340000*%
G04 #@! TD*
G04 #@! TA.AperFunction,ViaPad*
%ADD12C,0.800000*%
G04 #@! TD*
G04 #@! TA.AperFunction,Conductor*
%ADD13C,0.400000*%
G04 #@! TD*
G04 #@! TA.AperFunction,Conductor*
%ADD14C,0.250000*%
G04 #@! TD*
G04 APERTURE END LIST*
D10*
G04 #@! TO.P,OUT1,1,Pin_1*
G04 #@! TO.N,Net-(OUT1-Pad1)*
X137160000Y-111760000D03*
G04 #@! TD*
G04 #@! TO.P,GND1,1,Pin_1*
G04 #@! TO.N,GND*
X146812000Y-80518000D03*
G04 #@! TD*
G04 #@! TO.P,5V1,1,Pin_1*
G04 #@! TO.N,Net-(5V1-Pad1)*
X146812000Y-85598000D03*
G04 #@! TD*
G04 #@! TO.P,IN1,1,Pin_1*
G04 #@! TO.N,Net-(IN1-Pad1)*
X137160000Y-80518000D03*
G04 #@! TD*
D11*
G04 #@! TO.P,RV2,1,1*
G04 #@! TO.N,Net-(R8-Pad2)*
X117983000Y-81407000D03*
G04 #@! TO.P,RV2,2,2*
G04 #@! TO.N,Net-(R6-Pad2)*
X128000000Y-83907000D03*
G04 #@! TO.P,RV2,3,3*
G04 #@! TO.N,Net-(C7-Pad1)*
X117983000Y-86407000D03*
G04 #@! TD*
G04 #@! TO.P,RV3,1,1*
G04 #@! TO.N,Net-(C9-Pad1)*
X118110000Y-105537000D03*
G04 #@! TO.P,RV3,2,2*
G04 #@! TO.N,Net-(RV3-Pad2)*
X128110000Y-108037000D03*
G04 #@! TO.P,RV3,3,3*
G04 #@! TO.N,GND*
X118110000Y-110537000D03*
G04 #@! TD*
G04 #@! TO.P,RV1,1,1*
G04 #@! TO.N,Net-(C4-Pad1)*
X118000000Y-93472000D03*
G04 #@! TO.P,RV1,2,2*
G04 #@! TO.N,Net-(C4-Pad2)*
X128000000Y-95972000D03*
G04 #@! TO.P,RV1,3,3*
G04 #@! TO.N,Net-(C5-Pad1)*
X118000000Y-98472000D03*
G04 #@! TD*
D12*
G04 #@! TO.N,Net-(5V1-Pad1)*
X138430000Y-94488000D03*
X141605000Y-99695000D03*
G04 #@! TO.N,GND*
X134239000Y-103505000D03*
X135382000Y-103505000D03*
G04 #@! TO.N,Net-(C3-Pad2)*
X137160000Y-95250000D03*
X127000000Y-92329000D03*
G04 #@! TO.N,Net-(RV3-Pad2)*
X133477000Y-100965000D03*
G04 #@! TD*
D13*
G04 #@! TO.N,Net-(5V1-Pad1)*
X146812000Y-86106000D02*
X138430000Y-94488000D01*
X138430000Y-96520000D02*
X141605000Y-99695000D01*
X138430000Y-94488000D02*
X138430000Y-96520000D01*
X146812000Y-85598000D02*
X146812000Y-86106000D01*
D14*
G04 #@! TO.N,Net-(C3-Pad2)*
X136652000Y-95250000D02*
X133731000Y-92329000D01*
X137160000Y-95250000D02*
X136652000Y-95250000D01*
X133731000Y-92329000D02*
X127000000Y-92329000D01*
G04 #@! TO.N,Net-(RV3-Pad2)*
X128110000Y-108037000D02*
X128110000Y-106332000D01*
X128110000Y-106332000D02*
X133477000Y-100965000D01*
G04 #@! TD*
G04 #@! TA.AperFunction,Conductor*
G04 #@! TO.N,GND*
G36*
X148988121Y-77368002D02*
G01*
X149034614Y-77421658D01*
X149046000Y-77474000D01*
X149046000Y-116206000D01*
X149025998Y-116274121D01*
X148972342Y-116320614D01*
X148920000Y-116332000D01*
X115494000Y-116332000D01*
X115425879Y-116311998D01*
X115379386Y-116258342D01*
X115368000Y-116206000D01*
X115368000Y-112658134D01*
X135801500Y-112658134D01*
X135808255Y-112720316D01*
X135859385Y-112856705D01*
X135946739Y-112973261D01*
X136063295Y-113060615D01*
X136199684Y-113111745D01*
X136261866Y-113118500D01*
X138058134Y-113118500D01*
X138120316Y-113111745D01*
X138256705Y-113060615D01*
X138373261Y-112973261D01*
X138460615Y-112856705D01*
X138511745Y-112720316D01*
X138518500Y-112658134D01*
X138518500Y-110861866D01*
X138511745Y-110799684D01*
X138460615Y-110663295D01*
X138373261Y-110546739D01*
X138256705Y-110459385D01*
X138120316Y-110408255D01*
X138058134Y-110401500D01*
X136261866Y-110401500D01*
X136199684Y-110408255D01*
X136063295Y-110459385D01*
X135946739Y-110546739D01*
X135859385Y-110663295D01*
X135808255Y-110799684D01*
X135801500Y-110861866D01*
X135801500Y-112658134D01*
X115368000Y-112658134D01*
X115368000Y-111888895D01*
X117122851Y-111888895D01*
X117131563Y-111900415D01*
X117214529Y-111961249D01*
X117222444Y-111966194D01*
X117434873Y-112077959D01*
X117443447Y-112081687D01*
X117670067Y-112160826D01*
X117679077Y-112163240D01*
X117914923Y-112208017D01*
X117924180Y-112209071D01*
X118164058Y-112218497D01*
X118173372Y-112218171D01*
X118411996Y-112192038D01*
X118421173Y-112190337D01*
X118653312Y-112129220D01*
X118662132Y-112126183D01*
X118882693Y-112031423D01*
X118890965Y-112027116D01*
X119094026Y-111901458D01*
X119100751Y-111891253D01*
X119094688Y-111880899D01*
X118122810Y-110909020D01*
X118108869Y-110901408D01*
X118107034Y-110901539D01*
X118100420Y-110905790D01*
X117129509Y-111876702D01*
X117122851Y-111888895D01*
X115368000Y-111888895D01*
X115368000Y-110497624D01*
X116428096Y-110497624D01*
X116439614Y-110737398D01*
X116440751Y-110746658D01*
X116487581Y-110982095D01*
X116490075Y-110991088D01*
X116571189Y-111217009D01*
X116574989Y-111225544D01*
X116688607Y-111436996D01*
X116693618Y-111444863D01*
X116746609Y-111515826D01*
X116757867Y-111524275D01*
X116770286Y-111517503D01*
X117737980Y-110549810D01*
X117744357Y-110538131D01*
X118474408Y-110538131D01*
X118474539Y-110539966D01*
X118478790Y-110546580D01*
X119452024Y-111519813D01*
X119464404Y-111526573D01*
X119472745Y-111520330D01*
X119586265Y-111343843D01*
X119590708Y-111335659D01*
X119689304Y-111116783D01*
X119692494Y-111108018D01*
X119757654Y-110876981D01*
X119759514Y-110867839D01*
X119790001Y-110628196D01*
X119790482Y-110621909D01*
X119792622Y-110540160D01*
X119792471Y-110533851D01*
X119774568Y-110292932D01*
X119773191Y-110283726D01*
X119720210Y-110049582D01*
X119717486Y-110040671D01*
X119630478Y-109816930D01*
X119626467Y-109808521D01*
X119507347Y-109600105D01*
X119502130Y-109592370D01*
X119474425Y-109557227D01*
X119462501Y-109548758D01*
X119450965Y-109555246D01*
X118482020Y-110524190D01*
X118474408Y-110538131D01*
X117744357Y-110538131D01*
X117745592Y-110535869D01*
X117745461Y-110534034D01*
X117741210Y-110527420D01*
X116768131Y-109554342D01*
X116754823Y-109547075D01*
X116744786Y-109554195D01*
X116743076Y-109556251D01*
X116737655Y-109563851D01*
X116613127Y-109769067D01*
X116608889Y-109777384D01*
X116516060Y-109998755D01*
X116513099Y-110007605D01*
X116454011Y-110240264D01*
X116452390Y-110249458D01*
X116428341Y-110488297D01*
X116428096Y-110497624D01*
X115368000Y-110497624D01*
X115368000Y-109183585D01*
X117120999Y-109183585D01*
X117125572Y-109193361D01*
X118097190Y-110164980D01*
X118111131Y-110172592D01*
X118112966Y-110172461D01*
X118119580Y-110168210D01*
X119090929Y-109196860D01*
X119097313Y-109185169D01*
X119087903Y-109173061D01*
X118967873Y-109089793D01*
X118959846Y-109085065D01*
X118744540Y-108978888D01*
X118735907Y-108975400D01*
X118507265Y-108902211D01*
X118498214Y-108900038D01*
X118261269Y-108861449D01*
X118251980Y-108860637D01*
X118011950Y-108857495D01*
X118002638Y-108858065D01*
X117764776Y-108890436D01*
X117755658Y-108892374D01*
X117525203Y-108959546D01*
X117516450Y-108962818D01*
X117298454Y-109063316D01*
X117290299Y-109067836D01*
X117130136Y-109172844D01*
X117120999Y-109183585D01*
X115368000Y-109183585D01*
X115368000Y-107992939D01*
X126427370Y-107992939D01*
X126439339Y-108242131D01*
X126488010Y-108486818D01*
X126572314Y-108721622D01*
X126690398Y-108941386D01*
X126693193Y-108945130D01*
X126693195Y-108945132D01*
X126706402Y-108962818D01*
X126839668Y-109141283D01*
X127016844Y-109316921D01*
X127020606Y-109319679D01*
X127020609Y-109319682D01*
X127210265Y-109458742D01*
X127218036Y-109464440D01*
X127222171Y-109466616D01*
X127222175Y-109466618D01*
X127338009Y-109527561D01*
X127438823Y-109580602D01*
X127674354Y-109662853D01*
X127678947Y-109663725D01*
X127914867Y-109708516D01*
X127914870Y-109708516D01*
X127919456Y-109709387D01*
X128044100Y-109714285D01*
X128164075Y-109718999D01*
X128164081Y-109718999D01*
X128168743Y-109719182D01*
X128266134Y-109708516D01*
X128412087Y-109692532D01*
X128412092Y-109692531D01*
X128416740Y-109692022D01*
X128421264Y-109690831D01*
X128653476Y-109629694D01*
X128653478Y-109629693D01*
X128657999Y-109628503D01*
X128662296Y-109626657D01*
X128882924Y-109531868D01*
X128882926Y-109531867D01*
X128887218Y-109530023D01*
X128997667Y-109461675D01*
X129095391Y-109401202D01*
X129095395Y-109401199D01*
X129099364Y-109398743D01*
X129289775Y-109237548D01*
X129335710Y-109185169D01*
X129451187Y-109053494D01*
X129451191Y-109053489D01*
X129454269Y-109049979D01*
X129512438Y-108959546D01*
X129556890Y-108890436D01*
X129589231Y-108840157D01*
X129691697Y-108612691D01*
X129692967Y-108608188D01*
X129758146Y-108377082D01*
X129758147Y-108377079D01*
X129759416Y-108372578D01*
X129790900Y-108125092D01*
X129793207Y-108037000D01*
X129774718Y-107788206D01*
X129719659Y-107544878D01*
X129717966Y-107540524D01*
X129630931Y-107316714D01*
X129630930Y-107316712D01*
X129629238Y-107312361D01*
X129505442Y-107095763D01*
X129350990Y-106899842D01*
X129169276Y-106728902D01*
X128964292Y-106586700D01*
X128965251Y-106585318D01*
X128921616Y-106538756D01*
X128908783Y-106468929D01*
X128935739Y-106403248D01*
X128945009Y-106392895D01*
X133427499Y-101910405D01*
X133489811Y-101876379D01*
X133516594Y-101873500D01*
X133572487Y-101873500D01*
X133578939Y-101872128D01*
X133578944Y-101872128D01*
X133665887Y-101853647D01*
X133759288Y-101833794D01*
X133765319Y-101831109D01*
X133927722Y-101758803D01*
X133927724Y-101758802D01*
X133933752Y-101756118D01*
X134088253Y-101643866D01*
X134216040Y-101501944D01*
X134311527Y-101336556D01*
X134370542Y-101154928D01*
X134390504Y-100965000D01*
X134370542Y-100775072D01*
X134311527Y-100593444D01*
X134216040Y-100428056D01*
X134170744Y-100377749D01*
X134092675Y-100291045D01*
X134092674Y-100291044D01*
X134088253Y-100286134D01*
X133933752Y-100173882D01*
X133927724Y-100171198D01*
X133927722Y-100171197D01*
X133765319Y-100098891D01*
X133765318Y-100098891D01*
X133759288Y-100096206D01*
X133646721Y-100072279D01*
X133578944Y-100057872D01*
X133578939Y-100057872D01*
X133572487Y-100056500D01*
X133381513Y-100056500D01*
X133375061Y-100057872D01*
X133375056Y-100057872D01*
X133307279Y-100072279D01*
X133194712Y-100096206D01*
X133188682Y-100098891D01*
X133188681Y-100098891D01*
X133026278Y-100171197D01*
X133026276Y-100171198D01*
X133020248Y-100173882D01*
X132865747Y-100286134D01*
X132861326Y-100291044D01*
X132861325Y-100291045D01*
X132783257Y-100377749D01*
X132737960Y-100428056D01*
X132642473Y-100593444D01*
X132583458Y-100775072D01*
X132582768Y-100781633D01*
X132582768Y-100781635D01*
X132566093Y-100940292D01*
X132539080Y-101005949D01*
X132529878Y-101016217D01*
X127717747Y-105828348D01*
X127709461Y-105835888D01*
X127702982Y-105840000D01*
X127697557Y-105845777D01*
X127656357Y-105889651D01*
X127653602Y-105892493D01*
X127633865Y-105912230D01*
X127631385Y-105915427D01*
X127623682Y-105924447D01*
X127593414Y-105956679D01*
X127589595Y-105963625D01*
X127589593Y-105963628D01*
X127583652Y-105974434D01*
X127572801Y-105990953D01*
X127560386Y-106006959D01*
X127557241Y-106014228D01*
X127557238Y-106014232D01*
X127542826Y-106047537D01*
X127537609Y-106058187D01*
X127516305Y-106096940D01*
X127514334Y-106104615D01*
X127514334Y-106104616D01*
X127511267Y-106116562D01*
X127504863Y-106135266D01*
X127496819Y-106153855D01*
X127495580Y-106161678D01*
X127495577Y-106161688D01*
X127489901Y-106197524D01*
X127487495Y-106209144D01*
X127483233Y-106225746D01*
X127476500Y-106251970D01*
X127476500Y-106272224D01*
X127474949Y-106291934D01*
X127471780Y-106311943D01*
X127472526Y-106319835D01*
X127475941Y-106355961D01*
X127476500Y-106367819D01*
X127476500Y-106400026D01*
X127456498Y-106468147D01*
X127403252Y-106514452D01*
X127293965Y-106564834D01*
X127290056Y-106567397D01*
X127089242Y-106699056D01*
X127089237Y-106699060D01*
X127085329Y-106701622D01*
X126899202Y-106867746D01*
X126739675Y-107059557D01*
X126610252Y-107272840D01*
X126513775Y-107502911D01*
X126512624Y-107507443D01*
X126512623Y-107507446D01*
X126503117Y-107544878D01*
X126452365Y-107744714D01*
X126427370Y-107992939D01*
X115368000Y-107992939D01*
X115368000Y-105492939D01*
X116427370Y-105492939D01*
X116439339Y-105742131D01*
X116488010Y-105986818D01*
X116572314Y-106221622D01*
X116690398Y-106441386D01*
X116839668Y-106641283D01*
X117016844Y-106816921D01*
X117020606Y-106819679D01*
X117020609Y-106819682D01*
X117134937Y-106903510D01*
X117218036Y-106964440D01*
X117222171Y-106966616D01*
X117222175Y-106966618D01*
X117338009Y-107027561D01*
X117438823Y-107080602D01*
X117674354Y-107162853D01*
X117678947Y-107163725D01*
X117914867Y-107208516D01*
X117914870Y-107208516D01*
X117919456Y-107209387D01*
X118044099Y-107214284D01*
X118164075Y-107218999D01*
X118164081Y-107218999D01*
X118168743Y-107219182D01*
X118266134Y-107208516D01*
X118412087Y-107192532D01*
X118412092Y-107192531D01*
X118416740Y-107192022D01*
X118421264Y-107190831D01*
X118653476Y-107129694D01*
X118653478Y-107129693D01*
X118657999Y-107128503D01*
X118662296Y-107126657D01*
X118882924Y-107031868D01*
X118882926Y-107031867D01*
X118887218Y-107030023D01*
X119091661Y-106903510D01*
X119095391Y-106901202D01*
X119095395Y-106901199D01*
X119099364Y-106898743D01*
X119289775Y-106737548D01*
X119371316Y-106644569D01*
X119451187Y-106553494D01*
X119451191Y-106553489D01*
X119454269Y-106549979D01*
X119589231Y-106340157D01*
X119691697Y-106112691D01*
X119723282Y-106000699D01*
X119758146Y-105877082D01*
X119758147Y-105877079D01*
X119759416Y-105872578D01*
X119790900Y-105625092D01*
X119793207Y-105537000D01*
X119774718Y-105288206D01*
X119719659Y-105044878D01*
X119717966Y-105040524D01*
X119630931Y-104816714D01*
X119630930Y-104816712D01*
X119629238Y-104812361D01*
X119505442Y-104595763D01*
X119350990Y-104399842D01*
X119169276Y-104228902D01*
X119053160Y-104148350D01*
X118968130Y-104089362D01*
X118968125Y-104089359D01*
X118964292Y-104086700D01*
X118960110Y-104084637D01*
X118960102Y-104084633D01*
X118744728Y-103978423D01*
X118744725Y-103978422D01*
X118740540Y-103976358D01*
X118502937Y-103900300D01*
X118498330Y-103899550D01*
X118498327Y-103899549D01*
X118261312Y-103860949D01*
X118261313Y-103860949D01*
X118256701Y-103860198D01*
X118135753Y-103858615D01*
X118011920Y-103856994D01*
X118011917Y-103856994D01*
X118007243Y-103856933D01*
X117760042Y-103890575D01*
X117755556Y-103891883D01*
X117755554Y-103891883D01*
X117726677Y-103900300D01*
X117520528Y-103960387D01*
X117293965Y-104064834D01*
X117290056Y-104067397D01*
X117089242Y-104199056D01*
X117089237Y-104199060D01*
X117085329Y-104201622D01*
X116899202Y-104367746D01*
X116739675Y-104559557D01*
X116610252Y-104772840D01*
X116513775Y-105002911D01*
X116512624Y-105007443D01*
X116512623Y-105007446D01*
X116503117Y-105044878D01*
X116452365Y-105244714D01*
X116427370Y-105492939D01*
X115368000Y-105492939D01*
X115368000Y-98427939D01*
X116317370Y-98427939D01*
X116329339Y-98677131D01*
X116378010Y-98921818D01*
X116462314Y-99156622D01*
X116580398Y-99376386D01*
X116729668Y-99576283D01*
X116906844Y-99751921D01*
X116910606Y-99754679D01*
X116910609Y-99754682D01*
X117024555Y-99838230D01*
X117108036Y-99899440D01*
X117112171Y-99901616D01*
X117112175Y-99901618D01*
X117228009Y-99962561D01*
X117328823Y-100015602D01*
X117445937Y-100056500D01*
X117559638Y-100096206D01*
X117564354Y-100097853D01*
X117568947Y-100098725D01*
X117804867Y-100143516D01*
X117804870Y-100143516D01*
X117809456Y-100144387D01*
X117934099Y-100149284D01*
X118054075Y-100153999D01*
X118054081Y-100153999D01*
X118058743Y-100154182D01*
X118156134Y-100143516D01*
X118302087Y-100127532D01*
X118302092Y-100127531D01*
X118306740Y-100127022D01*
X118413588Y-100098891D01*
X118543476Y-100064694D01*
X118543478Y-100064693D01*
X118547999Y-100063503D01*
X118564299Y-100056500D01*
X118772924Y-99966868D01*
X118772926Y-99966867D01*
X118777218Y-99965023D01*
X118917259Y-99878363D01*
X118985391Y-99836202D01*
X118985395Y-99836199D01*
X118989364Y-99833743D01*
X119179775Y-99672548D01*
X119261316Y-99579569D01*
X119341187Y-99488494D01*
X119341191Y-99488489D01*
X119344269Y-99484979D01*
X119479231Y-99275157D01*
X119581697Y-99047691D01*
X119591692Y-99012251D01*
X119648146Y-98812082D01*
X119648147Y-98812079D01*
X119649416Y-98807578D01*
X119680900Y-98560092D01*
X119683207Y-98472000D01*
X119664718Y-98223206D01*
X119609659Y-97979878D01*
X119607966Y-97975524D01*
X119520931Y-97751714D01*
X119520930Y-97751712D01*
X119519238Y-97747361D01*
X119395442Y-97530763D01*
X119240990Y-97334842D01*
X119059276Y-97163902D01*
X118927585Y-97072545D01*
X118858130Y-97024362D01*
X118858125Y-97024359D01*
X118854292Y-97021700D01*
X118850110Y-97019637D01*
X118850102Y-97019633D01*
X118634728Y-96913423D01*
X118634725Y-96913422D01*
X118630540Y-96911358D01*
X118392937Y-96835300D01*
X118388330Y-96834550D01*
X118388327Y-96834549D01*
X118151312Y-96795949D01*
X118151313Y-96795949D01*
X118146701Y-96795198D01*
X118025753Y-96793615D01*
X117901920Y-96791994D01*
X117901917Y-96791994D01*
X117897243Y-96791933D01*
X117650042Y-96825575D01*
X117645556Y-96826883D01*
X117645554Y-96826883D01*
X117616677Y-96835300D01*
X117410528Y-96895387D01*
X117183965Y-96999834D01*
X117180056Y-97002397D01*
X116979242Y-97134056D01*
X116979237Y-97134060D01*
X116975329Y-97136622D01*
X116789202Y-97302746D01*
X116629675Y-97494557D01*
X116500252Y-97707840D01*
X116403775Y-97937911D01*
X116402624Y-97942443D01*
X116402623Y-97942446D01*
X116393117Y-97979878D01*
X116342365Y-98179714D01*
X116317370Y-98427939D01*
X115368000Y-98427939D01*
X115368000Y-95927939D01*
X126317370Y-95927939D01*
X126317594Y-95932606D01*
X126317594Y-95932611D01*
X126319335Y-95968851D01*
X126329339Y-96177131D01*
X126378010Y-96421818D01*
X126462314Y-96656622D01*
X126580398Y-96876386D01*
X126583193Y-96880130D01*
X126583195Y-96880132D01*
X126596051Y-96897348D01*
X126729668Y-97076283D01*
X126906844Y-97251921D01*
X126910606Y-97254679D01*
X126910609Y-97254682D01*
X127024937Y-97338510D01*
X127108036Y-97399440D01*
X127112171Y-97401616D01*
X127112175Y-97401618D01*
X127228009Y-97462561D01*
X127328823Y-97515602D01*
X127564354Y-97597853D01*
X127568947Y-97598725D01*
X127804867Y-97643516D01*
X127804870Y-97643516D01*
X127809456Y-97644387D01*
X127934099Y-97649284D01*
X128054075Y-97653999D01*
X128054081Y-97653999D01*
X128058743Y-97654182D01*
X128156134Y-97643516D01*
X128302087Y-97627532D01*
X128302092Y-97627531D01*
X128306740Y-97627022D01*
X128311264Y-97625831D01*
X128543476Y-97564694D01*
X128543478Y-97564693D01*
X128547999Y-97563503D01*
X128552296Y-97561657D01*
X128772924Y-97466868D01*
X128772926Y-97466867D01*
X128777218Y-97465023D01*
X128981661Y-97338510D01*
X128985391Y-97336202D01*
X128985395Y-97336199D01*
X128989364Y-97333743D01*
X129179775Y-97172548D01*
X129261316Y-97079569D01*
X129341187Y-96988494D01*
X129341191Y-96988489D01*
X129344269Y-96984979D01*
X129401897Y-96895387D01*
X129476703Y-96779087D01*
X129479231Y-96775157D01*
X129581697Y-96547691D01*
X129597661Y-96491088D01*
X129648146Y-96312082D01*
X129648147Y-96312079D01*
X129649416Y-96307578D01*
X129676578Y-96094069D01*
X129680502Y-96063222D01*
X129680502Y-96063218D01*
X129680900Y-96060092D01*
X129683207Y-95972000D01*
X129675120Y-95863181D01*
X129665064Y-95727858D01*
X129665063Y-95727854D01*
X129664718Y-95723206D01*
X129609659Y-95479878D01*
X129607966Y-95475524D01*
X129520931Y-95251714D01*
X129520930Y-95251712D01*
X129519238Y-95247361D01*
X129395442Y-95030763D01*
X129240990Y-94834842D01*
X129059276Y-94663902D01*
X128902734Y-94555305D01*
X128858130Y-94524362D01*
X128858125Y-94524359D01*
X128854292Y-94521700D01*
X128850110Y-94519637D01*
X128850102Y-94519633D01*
X128634728Y-94413423D01*
X128634725Y-94413422D01*
X128630540Y-94411358D01*
X128617448Y-94407167D01*
X128580647Y-94395387D01*
X128392937Y-94335300D01*
X128388330Y-94334550D01*
X128388327Y-94334549D01*
X128151312Y-94295949D01*
X128151313Y-94295949D01*
X128146701Y-94295198D01*
X128025753Y-94293615D01*
X127901920Y-94291994D01*
X127901917Y-94291994D01*
X127897243Y-94291933D01*
X127650042Y-94325575D01*
X127645556Y-94326883D01*
X127645554Y-94326883D01*
X127616677Y-94335300D01*
X127410528Y-94395387D01*
X127183965Y-94499834D01*
X127180056Y-94502397D01*
X126979242Y-94634056D01*
X126979237Y-94634060D01*
X126975329Y-94636622D01*
X126789202Y-94802746D01*
X126629675Y-94994557D01*
X126500252Y-95207840D01*
X126403775Y-95437911D01*
X126402624Y-95442443D01*
X126402623Y-95442446D01*
X126393117Y-95479878D01*
X126342365Y-95679714D01*
X126317370Y-95927939D01*
X115368000Y-95927939D01*
X115368000Y-93427939D01*
X116317370Y-93427939D01*
X116329339Y-93677131D01*
X116378010Y-93921818D01*
X116462314Y-94156622D01*
X116580398Y-94376386D01*
X116583193Y-94380130D01*
X116583195Y-94380132D01*
X116629685Y-94442389D01*
X116729668Y-94576283D01*
X116906844Y-94751921D01*
X116910606Y-94754679D01*
X116910609Y-94754682D01*
X117024937Y-94838510D01*
X117108036Y-94899440D01*
X117112171Y-94901616D01*
X117112175Y-94901618D01*
X117228009Y-94962561D01*
X117328823Y-95015602D01*
X117564354Y-95097853D01*
X117568947Y-95098725D01*
X117804867Y-95143516D01*
X117804870Y-95143516D01*
X117809456Y-95144387D01*
X117934100Y-95149285D01*
X118054075Y-95153999D01*
X118054081Y-95153999D01*
X118058743Y-95154182D01*
X118156134Y-95143516D01*
X118302087Y-95127532D01*
X118302092Y-95127531D01*
X118306740Y-95127022D01*
X118311264Y-95125831D01*
X118543476Y-95064694D01*
X118543478Y-95064693D01*
X118547999Y-95063503D01*
X118552296Y-95061657D01*
X118772924Y-94966868D01*
X118772926Y-94966867D01*
X118777218Y-94965023D01*
X118887667Y-94896675D01*
X118985391Y-94836202D01*
X118985395Y-94836199D01*
X118989364Y-94833743D01*
X119179775Y-94672548D01*
X119261316Y-94579569D01*
X119341187Y-94488494D01*
X119341191Y-94488489D01*
X119344269Y-94484979D01*
X119401897Y-94395387D01*
X119447206Y-94324945D01*
X119479231Y-94275157D01*
X119581697Y-94047691D01*
X119610335Y-93946148D01*
X119648146Y-93812082D01*
X119648147Y-93812079D01*
X119649416Y-93807578D01*
X119653587Y-93774794D01*
X119680502Y-93563222D01*
X119680502Y-93563218D01*
X119680900Y-93560092D01*
X119683207Y-93472000D01*
X119679587Y-93423285D01*
X119665064Y-93227858D01*
X119665063Y-93227854D01*
X119664718Y-93223206D01*
X119609659Y-92979878D01*
X119602901Y-92962500D01*
X119520931Y-92751714D01*
X119520930Y-92751712D01*
X119519238Y-92747361D01*
X119395442Y-92530763D01*
X119240990Y-92334842D01*
X119234780Y-92329000D01*
X126086496Y-92329000D01*
X126087186Y-92335565D01*
X126104317Y-92498554D01*
X126106458Y-92518928D01*
X126165473Y-92700556D01*
X126260960Y-92865944D01*
X126265378Y-92870851D01*
X126265379Y-92870852D01*
X126365909Y-92982502D01*
X126388747Y-93007866D01*
X126543248Y-93120118D01*
X126549276Y-93122802D01*
X126549278Y-93122803D01*
X126711681Y-93195109D01*
X126717712Y-93197794D01*
X126811113Y-93217647D01*
X126898056Y-93236128D01*
X126898061Y-93236128D01*
X126904513Y-93237500D01*
X127095487Y-93237500D01*
X127101939Y-93236128D01*
X127101944Y-93236128D01*
X127188887Y-93217647D01*
X127282288Y-93197794D01*
X127288319Y-93195109D01*
X127450722Y-93122803D01*
X127450724Y-93122802D01*
X127456752Y-93120118D01*
X127611253Y-93007866D01*
X127615668Y-93002963D01*
X127620580Y-92998540D01*
X127621705Y-92999789D01*
X127675014Y-92966949D01*
X127708200Y-92962500D01*
X133416406Y-92962500D01*
X133484527Y-92982502D01*
X133505501Y-92999405D01*
X136148348Y-95642253D01*
X136155888Y-95650539D01*
X136160000Y-95657018D01*
X136165777Y-95662443D01*
X136209651Y-95703643D01*
X136212493Y-95706398D01*
X136232230Y-95726135D01*
X136235427Y-95728615D01*
X136244447Y-95736318D01*
X136276679Y-95766586D01*
X136283625Y-95770405D01*
X136283628Y-95770407D01*
X136294434Y-95776348D01*
X136310953Y-95787199D01*
X136326959Y-95799614D01*
X136334228Y-95802759D01*
X136334232Y-95802762D01*
X136367537Y-95817174D01*
X136378187Y-95822391D01*
X136416940Y-95843695D01*
X136424615Y-95845666D01*
X136424616Y-95845666D01*
X136436562Y-95848733D01*
X136455266Y-95855137D01*
X136473855Y-95863181D01*
X136472547Y-95866204D01*
X136517938Y-95894649D01*
X136548747Y-95928866D01*
X136554089Y-95932747D01*
X136554091Y-95932749D01*
X136612465Y-95975160D01*
X136703248Y-96041118D01*
X136709276Y-96043802D01*
X136709278Y-96043803D01*
X136775748Y-96073397D01*
X136877712Y-96118794D01*
X136971112Y-96138647D01*
X137058056Y-96157128D01*
X137058061Y-96157128D01*
X137064513Y-96158500D01*
X137255487Y-96158500D01*
X137261939Y-96157128D01*
X137261944Y-96157128D01*
X137348887Y-96138647D01*
X137442288Y-96118794D01*
X137544252Y-96073397D01*
X137614618Y-96063963D01*
X137678915Y-96094069D01*
X137716729Y-96154158D01*
X137721500Y-96188504D01*
X137721500Y-96491088D01*
X137721208Y-96499658D01*
X137717934Y-96547691D01*
X137717275Y-96557352D01*
X137718580Y-96564829D01*
X137718580Y-96564830D01*
X137728261Y-96620299D01*
X137729223Y-96626821D01*
X137736898Y-96690242D01*
X137739581Y-96697343D01*
X137740222Y-96699952D01*
X137744684Y-96716260D01*
X137745451Y-96718800D01*
X137746757Y-96726284D01*
X137749811Y-96733241D01*
X137772442Y-96784795D01*
X137774933Y-96790899D01*
X137776841Y-96795949D01*
X137791711Y-96835300D01*
X137797513Y-96850656D01*
X137801817Y-96856919D01*
X137803054Y-96859285D01*
X137811299Y-96874097D01*
X137812632Y-96876351D01*
X137815685Y-96883305D01*
X137837212Y-96911358D01*
X137854579Y-96933991D01*
X137858459Y-96939332D01*
X137890339Y-96985720D01*
X137890344Y-96985725D01*
X137894643Y-96991981D01*
X137900313Y-96997032D01*
X137900314Y-96997034D01*
X137941170Y-97033435D01*
X137946446Y-97038416D01*
X140670335Y-99762305D01*
X140704361Y-99824617D01*
X140706550Y-99838228D01*
X140711458Y-99884928D01*
X140770473Y-100066556D01*
X140773776Y-100072278D01*
X140773777Y-100072279D01*
X140805383Y-100127022D01*
X140865960Y-100231944D01*
X140870378Y-100236851D01*
X140870379Y-100236852D01*
X140914753Y-100286134D01*
X140993747Y-100373866D01*
X141148248Y-100486118D01*
X141154276Y-100488802D01*
X141154278Y-100488803D01*
X141316681Y-100561109D01*
X141322712Y-100563794D01*
X141416113Y-100583647D01*
X141503056Y-100602128D01*
X141503061Y-100602128D01*
X141509513Y-100603500D01*
X141700487Y-100603500D01*
X141706939Y-100602128D01*
X141706944Y-100602128D01*
X141793887Y-100583647D01*
X141887288Y-100563794D01*
X141893319Y-100561109D01*
X142055722Y-100488803D01*
X142055724Y-100488802D01*
X142061752Y-100486118D01*
X142216253Y-100373866D01*
X142295247Y-100286134D01*
X142339621Y-100236852D01*
X142339622Y-100236851D01*
X142344040Y-100231944D01*
X142404617Y-100127022D01*
X142436223Y-100072279D01*
X142436224Y-100072278D01*
X142439527Y-100066556D01*
X142498542Y-99884928D01*
X142518504Y-99695000D01*
X142506372Y-99579569D01*
X142499232Y-99511635D01*
X142499232Y-99511633D01*
X142498542Y-99505072D01*
X142439527Y-99323444D01*
X142344040Y-99158056D01*
X142338784Y-99152218D01*
X142220675Y-99021045D01*
X142220674Y-99021044D01*
X142216253Y-99016134D01*
X142061752Y-98903882D01*
X142055724Y-98901198D01*
X142055722Y-98901197D01*
X141893319Y-98828891D01*
X141893318Y-98828891D01*
X141887288Y-98826206D01*
X141734431Y-98793715D01*
X141671533Y-98759563D01*
X139175405Y-96263435D01*
X139141379Y-96201123D01*
X139138500Y-96174340D01*
X139138500Y-95106744D01*
X139158502Y-95038623D01*
X139162564Y-95032683D01*
X139164621Y-95029852D01*
X139169040Y-95024944D01*
X139202570Y-94966868D01*
X139261223Y-94865279D01*
X139261224Y-94865278D01*
X139264527Y-94859556D01*
X139323542Y-94677928D01*
X139328450Y-94631230D01*
X139355463Y-94565573D01*
X139364665Y-94555305D01*
X146926565Y-86993405D01*
X146988877Y-86959379D01*
X147015660Y-86956500D01*
X147710134Y-86956500D01*
X147772316Y-86949745D01*
X147908705Y-86898615D01*
X148025261Y-86811261D01*
X148112615Y-86694705D01*
X148163745Y-86558316D01*
X148170500Y-86496134D01*
X148170500Y-84699866D01*
X148163745Y-84637684D01*
X148112615Y-84501295D01*
X148025261Y-84384739D01*
X147908705Y-84297385D01*
X147772316Y-84246255D01*
X147710134Y-84239500D01*
X145913866Y-84239500D01*
X145851684Y-84246255D01*
X145715295Y-84297385D01*
X145598739Y-84384739D01*
X145511385Y-84501295D01*
X145460255Y-84637684D01*
X145453500Y-84699866D01*
X145453500Y-86410340D01*
X145433498Y-86478461D01*
X145416595Y-86499435D01*
X138363467Y-93552563D01*
X138300569Y-93586715D01*
X138147712Y-93619206D01*
X138141682Y-93621891D01*
X138141681Y-93621891D01*
X137979278Y-93694197D01*
X137979276Y-93694198D01*
X137973248Y-93696882D01*
X137818747Y-93809134D01*
X137690960Y-93951056D01*
X137595473Y-94116444D01*
X137593431Y-94122729D01*
X137540166Y-94286660D01*
X137500092Y-94345266D01*
X137434696Y-94372903D01*
X137394136Y-94370971D01*
X137261944Y-94342872D01*
X137261939Y-94342872D01*
X137255487Y-94341500D01*
X137064513Y-94341500D01*
X137058061Y-94342872D01*
X137058056Y-94342872D01*
X136971112Y-94361353D01*
X136877712Y-94381206D01*
X136871682Y-94383891D01*
X136871681Y-94383891D01*
X136819403Y-94407167D01*
X136749036Y-94416601D01*
X136684739Y-94386495D01*
X136679059Y-94381155D01*
X135482277Y-93184372D01*
X134234652Y-91936747D01*
X134227112Y-91928461D01*
X134223000Y-91921982D01*
X134173348Y-91875356D01*
X134170507Y-91872602D01*
X134150770Y-91852865D01*
X134147573Y-91850385D01*
X134138551Y-91842680D01*
X134130692Y-91835300D01*
X134106321Y-91812414D01*
X134099375Y-91808595D01*
X134099372Y-91808593D01*
X134088566Y-91802652D01*
X134072047Y-91791801D01*
X134066048Y-91787148D01*
X134056041Y-91779386D01*
X134048772Y-91776241D01*
X134048768Y-91776238D01*
X134015463Y-91761826D01*
X134004813Y-91756609D01*
X133966060Y-91735305D01*
X133946437Y-91730267D01*
X133927734Y-91723863D01*
X133916420Y-91718967D01*
X133916419Y-91718967D01*
X133909145Y-91715819D01*
X133901322Y-91714580D01*
X133901312Y-91714577D01*
X133865476Y-91708901D01*
X133853856Y-91706495D01*
X133818711Y-91697472D01*
X133818710Y-91697472D01*
X133811030Y-91695500D01*
X133790776Y-91695500D01*
X133771065Y-91693949D01*
X133758886Y-91692020D01*
X133751057Y-91690780D01*
X133743165Y-91691526D01*
X133707039Y-91694941D01*
X133695181Y-91695500D01*
X127708200Y-91695500D01*
X127640079Y-91675498D01*
X127620853Y-91659157D01*
X127620580Y-91659460D01*
X127615668Y-91655037D01*
X127611253Y-91650134D01*
X127456752Y-91537882D01*
X127450724Y-91535198D01*
X127450722Y-91535197D01*
X127288319Y-91462891D01*
X127288318Y-91462891D01*
X127282288Y-91460206D01*
X127188887Y-91440353D01*
X127101944Y-91421872D01*
X127101939Y-91421872D01*
X127095487Y-91420500D01*
X126904513Y-91420500D01*
X126898061Y-91421872D01*
X126898056Y-91421872D01*
X126811112Y-91440353D01*
X126717712Y-91460206D01*
X126711682Y-91462891D01*
X126711681Y-91462891D01*
X126549278Y-91535197D01*
X126549276Y-91535198D01*
X126543248Y-91537882D01*
X126388747Y-91650134D01*
X126384326Y-91655044D01*
X126384325Y-91655045D01*
X126275203Y-91776238D01*
X126260960Y-91792056D01*
X126241608Y-91825575D01*
X126200170Y-91897348D01*
X126165473Y-91957444D01*
X126106458Y-92139072D01*
X126105768Y-92145633D01*
X126105768Y-92145635D01*
X126089583Y-92299629D01*
X126086496Y-92329000D01*
X119234780Y-92329000D01*
X119059276Y-92163902D01*
X118943160Y-92083350D01*
X118858130Y-92024362D01*
X118858125Y-92024359D01*
X118854292Y-92021700D01*
X118850110Y-92019637D01*
X118850102Y-92019633D01*
X118634728Y-91913423D01*
X118634725Y-91913422D01*
X118630540Y-91911358D01*
X118392937Y-91835300D01*
X118388330Y-91834550D01*
X118388327Y-91834549D01*
X118151312Y-91795949D01*
X118151313Y-91795949D01*
X118146701Y-91795198D01*
X118025753Y-91793615D01*
X117901920Y-91791994D01*
X117901917Y-91791994D01*
X117897243Y-91791933D01*
X117650042Y-91825575D01*
X117645556Y-91826883D01*
X117645554Y-91826883D01*
X117616677Y-91835300D01*
X117410528Y-91895387D01*
X117183965Y-91999834D01*
X117180056Y-92002397D01*
X116979242Y-92134056D01*
X116979237Y-92134060D01*
X116975329Y-92136622D01*
X116789202Y-92302746D01*
X116629675Y-92494557D01*
X116500252Y-92707840D01*
X116403775Y-92937911D01*
X116402624Y-92942443D01*
X116402623Y-92942446D01*
X116372138Y-93062483D01*
X116342365Y-93179714D01*
X116317370Y-93427939D01*
X115368000Y-93427939D01*
X115368000Y-86362939D01*
X116300370Y-86362939D01*
X116300594Y-86367606D01*
X116300594Y-86367611D01*
X116305153Y-86462530D01*
X116312339Y-86612131D01*
X116361010Y-86856818D01*
X116445314Y-87091622D01*
X116563398Y-87311386D01*
X116712668Y-87511283D01*
X116889844Y-87686921D01*
X116893606Y-87689679D01*
X116893609Y-87689682D01*
X117083265Y-87828742D01*
X117091036Y-87834440D01*
X117095171Y-87836616D01*
X117095175Y-87836618D01*
X117211009Y-87897561D01*
X117311823Y-87950602D01*
X117547354Y-88032853D01*
X117551947Y-88033725D01*
X117787867Y-88078516D01*
X117787870Y-88078516D01*
X117792456Y-88079387D01*
X117917100Y-88084285D01*
X118037075Y-88088999D01*
X118037081Y-88088999D01*
X118041743Y-88089182D01*
X118139134Y-88078516D01*
X118285087Y-88062532D01*
X118285092Y-88062531D01*
X118289740Y-88062022D01*
X118294264Y-88060831D01*
X118526476Y-87999694D01*
X118526478Y-87999693D01*
X118530999Y-87998503D01*
X118535296Y-87996657D01*
X118755924Y-87901868D01*
X118755926Y-87901867D01*
X118760218Y-87900023D01*
X118870667Y-87831675D01*
X118968391Y-87771202D01*
X118968395Y-87771199D01*
X118972364Y-87768743D01*
X119162775Y-87607548D01*
X119244316Y-87514569D01*
X119324187Y-87423494D01*
X119324191Y-87423489D01*
X119327269Y-87419979D01*
X119462231Y-87210157D01*
X119564697Y-86982691D01*
X119589928Y-86893229D01*
X119631146Y-86747082D01*
X119631147Y-86747079D01*
X119632416Y-86742578D01*
X119663900Y-86495092D01*
X119666207Y-86407000D01*
X119647718Y-86158206D01*
X119592659Y-85914878D01*
X119590966Y-85910524D01*
X119503931Y-85686714D01*
X119503930Y-85686712D01*
X119502238Y-85682361D01*
X119378442Y-85465763D01*
X119223990Y-85269842D01*
X119042276Y-85098902D01*
X118910585Y-85007545D01*
X118841130Y-84959362D01*
X118841125Y-84959359D01*
X118837292Y-84956700D01*
X118833110Y-84954637D01*
X118833102Y-84954633D01*
X118617728Y-84848423D01*
X118617725Y-84848422D01*
X118613540Y-84846358D01*
X118375937Y-84770300D01*
X118371330Y-84769550D01*
X118371327Y-84769549D01*
X118134312Y-84730949D01*
X118134313Y-84730949D01*
X118129701Y-84730198D01*
X118008753Y-84728615D01*
X117884920Y-84726994D01*
X117884917Y-84726994D01*
X117880243Y-84726933D01*
X117633042Y-84760575D01*
X117628556Y-84761883D01*
X117628554Y-84761883D01*
X117599677Y-84770300D01*
X117393528Y-84830387D01*
X117166965Y-84934834D01*
X117163056Y-84937397D01*
X116962242Y-85069056D01*
X116962237Y-85069060D01*
X116958329Y-85071622D01*
X116772202Y-85237746D01*
X116612675Y-85429557D01*
X116483252Y-85642840D01*
X116386775Y-85872911D01*
X116385624Y-85877443D01*
X116385623Y-85877446D01*
X116376117Y-85914878D01*
X116325365Y-86114714D01*
X116300370Y-86362939D01*
X115368000Y-86362939D01*
X115368000Y-83862939D01*
X126317370Y-83862939D01*
X126329339Y-84112131D01*
X126378010Y-84356818D01*
X126462314Y-84591622D01*
X126580398Y-84811386D01*
X126583193Y-84815130D01*
X126583195Y-84815132D01*
X126596051Y-84832348D01*
X126729668Y-85011283D01*
X126906844Y-85186921D01*
X126910606Y-85189679D01*
X126910609Y-85189682D01*
X127024937Y-85273510D01*
X127108036Y-85334440D01*
X127112171Y-85336616D01*
X127112175Y-85336618D01*
X127228009Y-85397561D01*
X127328823Y-85450602D01*
X127564354Y-85532853D01*
X127568947Y-85533725D01*
X127804867Y-85578516D01*
X127804870Y-85578516D01*
X127809456Y-85579387D01*
X127934099Y-85584284D01*
X128054075Y-85588999D01*
X128054081Y-85588999D01*
X128058743Y-85589182D01*
X128156134Y-85578516D01*
X128302087Y-85562532D01*
X128302092Y-85562531D01*
X128306740Y-85562022D01*
X128311264Y-85560831D01*
X128543476Y-85499694D01*
X128543478Y-85499693D01*
X128547999Y-85498503D01*
X128552296Y-85496657D01*
X128772924Y-85401868D01*
X128772926Y-85401867D01*
X128777218Y-85400023D01*
X128981661Y-85273510D01*
X128985391Y-85271202D01*
X128985395Y-85271199D01*
X128989364Y-85268743D01*
X129179775Y-85107548D01*
X129261316Y-85014569D01*
X129341187Y-84923494D01*
X129341191Y-84923489D01*
X129344269Y-84919979D01*
X129401897Y-84830387D01*
X129476703Y-84714087D01*
X129479231Y-84710157D01*
X129581697Y-84482691D01*
X129582967Y-84478188D01*
X129648146Y-84247082D01*
X129648147Y-84247079D01*
X129649416Y-84242578D01*
X129680900Y-83995092D01*
X129683207Y-83907000D01*
X129664718Y-83658206D01*
X129609659Y-83414878D01*
X129607966Y-83410524D01*
X129520931Y-83186714D01*
X129520930Y-83186712D01*
X129519238Y-83182361D01*
X129395442Y-82965763D01*
X129240990Y-82769842D01*
X129059276Y-82598902D01*
X128927585Y-82507545D01*
X128858130Y-82459362D01*
X128858125Y-82459359D01*
X128854292Y-82456700D01*
X128850110Y-82454637D01*
X128850102Y-82454633D01*
X128634728Y-82348423D01*
X128634725Y-82348422D01*
X128630540Y-82346358D01*
X128392937Y-82270300D01*
X128388330Y-82269550D01*
X128388327Y-82269549D01*
X128151312Y-82230949D01*
X128151313Y-82230949D01*
X128146701Y-82230198D01*
X128025753Y-82228615D01*
X127901920Y-82226994D01*
X127901917Y-82226994D01*
X127897243Y-82226933D01*
X127650042Y-82260575D01*
X127645556Y-82261883D01*
X127645554Y-82261883D01*
X127616677Y-82270300D01*
X127410528Y-82330387D01*
X127183965Y-82434834D01*
X127180056Y-82437397D01*
X126979242Y-82569056D01*
X126979237Y-82569060D01*
X126975329Y-82571622D01*
X126789202Y-82737746D01*
X126629675Y-82929557D01*
X126500252Y-83142840D01*
X126403775Y-83372911D01*
X126402624Y-83377443D01*
X126402623Y-83377446D01*
X126393117Y-83414878D01*
X126342365Y-83614714D01*
X126317370Y-83862939D01*
X115368000Y-83862939D01*
X115368000Y-81362939D01*
X116300370Y-81362939D01*
X116300594Y-81367606D01*
X116300594Y-81367611D01*
X116302761Y-81412717D01*
X116312339Y-81612131D01*
X116361010Y-81856818D01*
X116445314Y-82091622D01*
X116563398Y-82311386D01*
X116566193Y-82315130D01*
X116566195Y-82315132D01*
X116579051Y-82332348D01*
X116712668Y-82511283D01*
X116889844Y-82686921D01*
X116893606Y-82689679D01*
X116893609Y-82689682D01*
X117007937Y-82773510D01*
X117091036Y-82834440D01*
X117095171Y-82836616D01*
X117095175Y-82836618D01*
X117211009Y-82897561D01*
X117311823Y-82950602D01*
X117547354Y-83032853D01*
X117551947Y-83033725D01*
X117787867Y-83078516D01*
X117787870Y-83078516D01*
X117792456Y-83079387D01*
X117917100Y-83084285D01*
X118037075Y-83088999D01*
X118037081Y-83088999D01*
X118041743Y-83089182D01*
X118139134Y-83078516D01*
X118285087Y-83062532D01*
X118285092Y-83062531D01*
X118289740Y-83062022D01*
X118294264Y-83060831D01*
X118526476Y-82999694D01*
X118526478Y-82999693D01*
X118530999Y-82998503D01*
X118535296Y-82996657D01*
X118755924Y-82901868D01*
X118755926Y-82901867D01*
X118760218Y-82900023D01*
X118964661Y-82773510D01*
X118968391Y-82771202D01*
X118968395Y-82771199D01*
X118972364Y-82768743D01*
X119162775Y-82607548D01*
X119244316Y-82514569D01*
X119324187Y-82423494D01*
X119324191Y-82423489D01*
X119327269Y-82419979D01*
X119384897Y-82330387D01*
X119459703Y-82214087D01*
X119462231Y-82210157D01*
X119564697Y-81982691D01*
X119595259Y-81874328D01*
X119631146Y-81747082D01*
X119631147Y-81747079D01*
X119632416Y-81742578D01*
X119663900Y-81495092D01*
X119664149Y-81485606D01*
X119665967Y-81416134D01*
X135801500Y-81416134D01*
X135808255Y-81478316D01*
X135859385Y-81614705D01*
X135946739Y-81731261D01*
X136063295Y-81818615D01*
X136199684Y-81869745D01*
X136261866Y-81876500D01*
X138058134Y-81876500D01*
X138120316Y-81869745D01*
X138256705Y-81818615D01*
X138373261Y-81731261D01*
X138460615Y-81614705D01*
X138511745Y-81478316D01*
X138518500Y-81416134D01*
X138518500Y-81412669D01*
X145454001Y-81412669D01*
X145454371Y-81419490D01*
X145459895Y-81470352D01*
X145463521Y-81485604D01*
X145508676Y-81606054D01*
X145517214Y-81621649D01*
X145593715Y-81723724D01*
X145606276Y-81736285D01*
X145708351Y-81812786D01*
X145723946Y-81821324D01*
X145844394Y-81866478D01*
X145859649Y-81870105D01*
X145910514Y-81875631D01*
X145917328Y-81876000D01*
X146539885Y-81876000D01*
X146555124Y-81871525D01*
X146556329Y-81870135D01*
X146558000Y-81862452D01*
X146558000Y-81857884D01*
X147066000Y-81857884D01*
X147070475Y-81873123D01*
X147071865Y-81874328D01*
X147079548Y-81875999D01*
X147706669Y-81875999D01*
X147713490Y-81875629D01*
X147764352Y-81870105D01*
X147779604Y-81866479D01*
X147900054Y-81821324D01*
X147915649Y-81812786D01*
X148017724Y-81736285D01*
X148030285Y-81723724D01*
X148106786Y-81621649D01*
X148115324Y-81606054D01*
X148160478Y-81485606D01*
X148164105Y-81470351D01*
X148169631Y-81419486D01*
X148170000Y-81412672D01*
X148170000Y-80790115D01*
X148165525Y-80774876D01*
X148164135Y-80773671D01*
X148156452Y-80772000D01*
X147084115Y-80772000D01*
X147068876Y-80776475D01*
X147067671Y-80777865D01*
X147066000Y-80785548D01*
X147066000Y-81857884D01*
X146558000Y-81857884D01*
X146558000Y-80790115D01*
X146553525Y-80774876D01*
X146552135Y-80773671D01*
X146544452Y-80772000D01*
X145472116Y-80772000D01*
X145456877Y-80776475D01*
X145455672Y-80777865D01*
X145454001Y-80785548D01*
X145454001Y-81412669D01*
X138518500Y-81412669D01*
X138518500Y-80245885D01*
X145454000Y-80245885D01*
X145458475Y-80261124D01*
X145459865Y-80262329D01*
X145467548Y-80264000D01*
X146539885Y-80264000D01*
X146555124Y-80259525D01*
X146556329Y-80258135D01*
X146558000Y-80250452D01*
X146558000Y-80245885D01*
X147066000Y-80245885D01*
X147070475Y-80261124D01*
X147071865Y-80262329D01*
X147079548Y-80264000D01*
X148151884Y-80264000D01*
X148167123Y-80259525D01*
X148168328Y-80258135D01*
X148169999Y-80250452D01*
X148169999Y-79623331D01*
X148169629Y-79616510D01*
X148164105Y-79565648D01*
X148160479Y-79550396D01*
X148115324Y-79429946D01*
X148106786Y-79414351D01*
X148030285Y-79312276D01*
X148017724Y-79299715D01*
X147915649Y-79223214D01*
X147900054Y-79214676D01*
X147779606Y-79169522D01*
X147764351Y-79165895D01*
X147713486Y-79160369D01*
X147706672Y-79160000D01*
X147084115Y-79160000D01*
X147068876Y-79164475D01*
X147067671Y-79165865D01*
X147066000Y-79173548D01*
X147066000Y-80245885D01*
X146558000Y-80245885D01*
X146558000Y-79178116D01*
X146553525Y-79162877D01*
X146552135Y-79161672D01*
X146544452Y-79160001D01*
X145917331Y-79160001D01*
X145910510Y-79160371D01*
X145859648Y-79165895D01*
X145844396Y-79169521D01*
X145723946Y-79214676D01*
X145708351Y-79223214D01*
X145606276Y-79299715D01*
X145593715Y-79312276D01*
X145517214Y-79414351D01*
X145508676Y-79429946D01*
X145463522Y-79550394D01*
X145459895Y-79565649D01*
X145454369Y-79616514D01*
X145454000Y-79623328D01*
X145454000Y-80245885D01*
X138518500Y-80245885D01*
X138518500Y-79619866D01*
X138511745Y-79557684D01*
X138460615Y-79421295D01*
X138373261Y-79304739D01*
X138256705Y-79217385D01*
X138120316Y-79166255D01*
X138058134Y-79159500D01*
X136261866Y-79159500D01*
X136199684Y-79166255D01*
X136063295Y-79217385D01*
X135946739Y-79304739D01*
X135859385Y-79421295D01*
X135808255Y-79557684D01*
X135801500Y-79619866D01*
X135801500Y-81416134D01*
X119665967Y-81416134D01*
X119666058Y-81412672D01*
X119666207Y-81407000D01*
X119647718Y-81158206D01*
X119592659Y-80914878D01*
X119590966Y-80910524D01*
X119503931Y-80686714D01*
X119503930Y-80686712D01*
X119502238Y-80682361D01*
X119378442Y-80465763D01*
X119223990Y-80269842D01*
X119042276Y-80098902D01*
X118926160Y-80018350D01*
X118841130Y-79959362D01*
X118841125Y-79959359D01*
X118837292Y-79956700D01*
X118833110Y-79954637D01*
X118833102Y-79954633D01*
X118617728Y-79848423D01*
X118617725Y-79848422D01*
X118613540Y-79846358D01*
X118375937Y-79770300D01*
X118371330Y-79769550D01*
X118371327Y-79769549D01*
X118134312Y-79730949D01*
X118134313Y-79730949D01*
X118129701Y-79730198D01*
X118008753Y-79728615D01*
X117884920Y-79726994D01*
X117884917Y-79726994D01*
X117880243Y-79726933D01*
X117633042Y-79760575D01*
X117628556Y-79761883D01*
X117628554Y-79761883D01*
X117599677Y-79770300D01*
X117393528Y-79830387D01*
X117166965Y-79934834D01*
X117163056Y-79937397D01*
X116962242Y-80069056D01*
X116962237Y-80069060D01*
X116958329Y-80071622D01*
X116772202Y-80237746D01*
X116612675Y-80429557D01*
X116483252Y-80642840D01*
X116481443Y-80647154D01*
X116481442Y-80647156D01*
X116427885Y-80774876D01*
X116386775Y-80872911D01*
X116385624Y-80877443D01*
X116385623Y-80877446D01*
X116376117Y-80914878D01*
X116325365Y-81114714D01*
X116300370Y-81362939D01*
X115368000Y-81362939D01*
X115368000Y-77474000D01*
X115388002Y-77405879D01*
X115441658Y-77359386D01*
X115494000Y-77348000D01*
X148920000Y-77348000D01*
X148988121Y-77368002D01*
G37*
G04 #@! TD.AperFunction*
G04 #@! TD*
M02*
