G04 #@! TF.GenerationSoftware,KiCad,Pcbnew,6.0.2-378541a8eb~116~ubuntu21.10.1*
G04 #@! TF.CreationDate,2022-03-02T08:52:49+01:00*
G04 #@! TF.ProjectId,BH,42482e6b-6963-4616-945f-706362585858,rev?*
G04 #@! TF.SameCoordinates,Original*
G04 #@! TF.FileFunction,Soldermask,Bot*
G04 #@! TF.FilePolarity,Negative*
%FSLAX46Y46*%
G04 Gerber Fmt 4.6, Leading zero omitted, Abs format (unit mm)*
G04 Created by KiCad (PCBNEW 6.0.2-378541a8eb~116~ubuntu21.10.1) date 2022-03-02 08:52:49*
%MOMM*%
%LPD*%
G01*
G04 APERTURE LIST*
%ADD10R,1.700000X1.700000*%
%ADD11R,1.600000X1.600000*%
%ADD12C,1.600000*%
%ADD13O,1.700000X1.700000*%
%ADD14O,2.720000X3.240000*%
%ADD15R,1.800000X1.800000*%
%ADD16C,1.800000*%
%ADD17R,3.000000X3.000000*%
%ADD18C,3.000000*%
G04 APERTURE END LIST*
D10*
G04 #@! TO.C,LSP3*
X171196000Y-109220000D03*
G04 #@! TD*
D11*
G04 #@! TO.C,C2*
X123444000Y-100838000D03*
D12*
X125944000Y-100838000D03*
G04 #@! TD*
D10*
G04 #@! TO.C,LSP1*
X171196000Y-98323400D03*
G04 #@! TD*
G04 #@! TO.C,LSP4*
X171196000Y-104140000D03*
G04 #@! TD*
G04 #@! TO.C,JP1*
X113000000Y-107950000D03*
D13*
X113000000Y-110490000D03*
X113000000Y-113030000D03*
X113000000Y-115570000D03*
G04 #@! TD*
D11*
G04 #@! TO.C,C8*
X148400888Y-115570000D03*
D12*
X150900888Y-115570000D03*
G04 #@! TD*
D14*
G04 #@! TO.C,R4*
X138912000Y-125225000D03*
X129312000Y-125225000D03*
D15*
X131612000Y-132725000D03*
D16*
X134112000Y-132725000D03*
X136612000Y-132725000D03*
G04 #@! TD*
D14*
G04 #@! TO.C,R17*
X113200000Y-125225000D03*
X122800000Y-125225000D03*
D15*
X115500000Y-132725000D03*
D16*
X118000000Y-132725000D03*
X120500000Y-132725000D03*
G04 #@! TD*
D14*
G04 #@! TO.C,R15*
X160300000Y-125225000D03*
X169900000Y-125225000D03*
D15*
X162600000Y-132725000D03*
D16*
X165100000Y-132725000D03*
X167600000Y-132725000D03*
G04 #@! TD*
D10*
G04 #@! TO.C,LSP2*
X118618000Y-100838000D03*
G04 #@! TD*
D14*
G04 #@! TO.C,R25*
X145060000Y-125225000D03*
X154660000Y-125225000D03*
D15*
X147360000Y-132725000D03*
D16*
X149860000Y-132725000D03*
X152360000Y-132725000D03*
G04 #@! TD*
D10*
G04 #@! TO.C,LSP5*
X171196000Y-114300000D03*
G04 #@! TD*
G04 #@! TO.C,JP2*
X128778000Y-95885000D03*
D13*
X131318000Y-95885000D03*
X133858000Y-95885000D03*
X136398000Y-95885000D03*
G04 #@! TD*
D11*
G04 #@! TO.C,C11*
X148400888Y-109474000D03*
D12*
X150900888Y-109474000D03*
G04 #@! TD*
D17*
G04 #@! TO.C,BT1*
X165100000Y-99060000D03*
D18*
X165100000Y-111760000D03*
G04 #@! TD*
M02*
