G04 #@! TF.GenerationSoftware,KiCad,Pcbnew,6.0.2-378541a8eb~116~ubuntu21.10.1*
G04 #@! TF.CreationDate,2022-03-02T08:52:49+01:00*
G04 #@! TF.ProjectId,BH,42482e6b-6963-4616-945f-706362585858,rev?*
G04 #@! TF.SameCoordinates,Original*
G04 #@! TF.FileFunction,Soldermask,Top*
G04 #@! TF.FilePolarity,Negative*
%FSLAX46Y46*%
G04 Gerber Fmt 4.6, Leading zero omitted, Abs format (unit mm)*
G04 Created by KiCad (PCBNEW 6.0.2-378541a8eb~116~ubuntu21.10.1) date 2022-03-02 08:52:49*
%MOMM*%
%LPD*%
G01*
G04 APERTURE LIST*
G04 Aperture macros list*
%AMRoundRect*
0 Rectangle with rounded corners*
0 $1 Rounding radius*
0 $2 $3 $4 $5 $6 $7 $8 $9 X,Y pos of 4 corners*
0 Add a 4 corners polygon primitive as box body*
4,1,4,$2,$3,$4,$5,$6,$7,$8,$9,$2,$3,0*
0 Add four circle primitives for the rounded corners*
1,1,$1+$1,$2,$3*
1,1,$1+$1,$4,$5*
1,1,$1+$1,$6,$7*
1,1,$1+$1,$8,$9*
0 Add four rect primitives between the rounded corners*
20,1,$1+$1,$2,$3,$4,$5,0*
20,1,$1+$1,$4,$5,$6,$7,0*
20,1,$1+$1,$6,$7,$8,$9,0*
20,1,$1+$1,$8,$9,$2,$3,0*%
G04 Aperture macros list end*
%ADD10R,1.700000X1.700000*%
%ADD11R,1.600000X1.600000*%
%ADD12C,1.600000*%
%ADD13RoundRect,0.135000X-0.185000X0.135000X-0.185000X-0.135000X0.185000X-0.135000X0.185000X0.135000X0*%
%ADD14RoundRect,0.140000X0.170000X-0.140000X0.170000X0.140000X-0.170000X0.140000X-0.170000X-0.140000X0*%
%ADD15RoundRect,0.237500X-0.287500X-0.237500X0.287500X-0.237500X0.287500X0.237500X-0.287500X0.237500X0*%
%ADD16RoundRect,0.135000X-0.135000X-0.185000X0.135000X-0.185000X0.135000X0.185000X-0.135000X0.185000X0*%
%ADD17RoundRect,0.135000X0.135000X0.185000X-0.135000X0.185000X-0.135000X-0.185000X0.135000X-0.185000X0*%
%ADD18RoundRect,0.237500X-0.237500X0.287500X-0.237500X-0.287500X0.237500X-0.287500X0.237500X0.287500X0*%
%ADD19RoundRect,0.237500X0.237500X-0.287500X0.237500X0.287500X-0.237500X0.287500X-0.237500X-0.287500X0*%
%ADD20RoundRect,0.140000X-0.140000X-0.170000X0.140000X-0.170000X0.140000X0.170000X-0.140000X0.170000X0*%
%ADD21R,2.000000X0.700000*%
%ADD22R,0.700000X2.000000*%
%ADD23RoundRect,0.135000X0.185000X-0.135000X0.185000X0.135000X-0.185000X0.135000X-0.185000X-0.135000X0*%
%ADD24O,1.700000X1.700000*%
%ADD25RoundRect,0.140000X-0.170000X0.140000X-0.170000X-0.140000X0.170000X-0.140000X0.170000X0.140000X0*%
%ADD26RoundRect,0.150000X-0.825000X-0.150000X0.825000X-0.150000X0.825000X0.150000X-0.825000X0.150000X0*%
%ADD27RoundRect,0.140000X0.140000X0.170000X-0.140000X0.170000X-0.140000X-0.170000X0.140000X-0.170000X0*%
%ADD28O,2.720000X3.240000*%
%ADD29R,1.800000X1.800000*%
%ADD30C,1.800000*%
%ADD31RoundRect,0.150000X0.150000X-0.825000X0.150000X0.825000X-0.150000X0.825000X-0.150000X-0.825000X0*%
%ADD32RoundRect,0.237500X0.287500X0.237500X-0.287500X0.237500X-0.287500X-0.237500X0.287500X-0.237500X0*%
%ADD33R,3.000000X3.000000*%
%ADD34C,3.000000*%
G04 APERTURE END LIST*
D10*
G04 #@! TO.C,LSP3*
X171196000Y-109220000D03*
G04 #@! TD*
D11*
G04 #@! TO.C,C2*
X123444000Y-100838000D03*
D12*
X125944000Y-100838000D03*
G04 #@! TD*
D13*
G04 #@! TO.C,R12*
X147828000Y-99058000D03*
X147828000Y-100078000D03*
G04 #@! TD*
D10*
G04 #@! TO.C,LSP1*
X171196000Y-98323400D03*
G04 #@! TD*
D14*
G04 #@! TO.C,C1*
X128016000Y-108684000D03*
X128016000Y-107724000D03*
G04 #@! TD*
D13*
G04 #@! TO.C,R7*
X130556000Y-107694000D03*
X130556000Y-108714000D03*
G04 #@! TD*
D15*
G04 #@! TO.C,D5*
X154065000Y-115570000D03*
X155815000Y-115570000D03*
G04 #@! TD*
D16*
G04 #@! TO.C,R10*
X119124000Y-112522000D03*
X120144000Y-112522000D03*
G04 #@! TD*
D17*
G04 #@! TO.C,R1*
X141988000Y-101788000D03*
X140968000Y-101788000D03*
G04 #@! TD*
D18*
G04 #@! TO.C,D4*
X155702000Y-108599000D03*
X155702000Y-110349000D03*
G04 #@! TD*
D17*
G04 #@! TO.C,R3*
X129288000Y-105918000D03*
X128268000Y-105918000D03*
G04 #@! TD*
D19*
G04 #@! TO.C,LED2*
X146812000Y-96875000D03*
X146812000Y-95125000D03*
G04 #@! TD*
D20*
G04 #@! TO.C,C7*
X134140000Y-110744000D03*
X135100000Y-110744000D03*
G04 #@! TD*
D10*
G04 #@! TO.C,LSP4*
X171196000Y-104140000D03*
G04 #@! TD*
D19*
G04 #@! TO.C,LED3*
X149606000Y-96875000D03*
X149606000Y-95125000D03*
G04 #@! TD*
D21*
G04 #@! TO.C,Q1*
X135206000Y-100838000D03*
X135206000Y-102738000D03*
X138606000Y-101788000D03*
G04 #@! TD*
D20*
G04 #@! TO.C,C6*
X116106000Y-107950000D03*
X117066000Y-107950000D03*
G04 #@! TD*
G04 #@! TO.C,C10*
X139728000Y-117348000D03*
X140688000Y-117348000D03*
G04 #@! TD*
D16*
G04 #@! TO.C,R6*
X132078000Y-100838000D03*
X133098000Y-100838000D03*
G04 #@! TD*
D22*
G04 #@! TO.C,Q2*
X155702000Y-103046000D03*
X157602000Y-103046000D03*
X156652000Y-99646000D03*
G04 #@! TD*
D19*
G04 #@! TO.C,LED1*
X143764000Y-96875000D03*
X143764000Y-95125000D03*
G04 #@! TD*
D23*
G04 #@! TO.C,R29*
X142240000Y-106174000D03*
X142240000Y-105154000D03*
G04 #@! TD*
D16*
G04 #@! TO.C,R11*
X119124000Y-111252000D03*
X120144000Y-111252000D03*
G04 #@! TD*
D15*
G04 #@! TO.C,D1*
X141365000Y-99822000D03*
X143115000Y-99822000D03*
G04 #@! TD*
D10*
G04 #@! TO.C,JP1*
X113000000Y-107950000D03*
D24*
X113000000Y-110490000D03*
X113000000Y-113030000D03*
X113000000Y-115570000D03*
G04 #@! TD*
D13*
G04 #@! TO.C,R18*
X135382000Y-107440000D03*
X135382000Y-108460000D03*
G04 #@! TD*
D25*
G04 #@! TO.C,C5*
X140462000Y-95520000D03*
X140462000Y-96480000D03*
G04 #@! TD*
D13*
G04 #@! TO.C,R2*
X128016000Y-109952000D03*
X128016000Y-110972000D03*
G04 #@! TD*
D17*
G04 #@! TO.C,R21*
X140718000Y-113538000D03*
X139698000Y-113538000D03*
G04 #@! TD*
D11*
G04 #@! TO.C,C8*
X148400888Y-115570000D03*
D12*
X150900888Y-115570000D03*
G04 #@! TD*
D16*
G04 #@! TO.C,R8*
X128268000Y-104394000D03*
X129288000Y-104394000D03*
G04 #@! TD*
D26*
G04 #@! TO.C,IC2*
X138684000Y-108204000D03*
X138684000Y-109474000D03*
X138684000Y-110744000D03*
X138684000Y-112014000D03*
X143634000Y-112014000D03*
X143634000Y-110744000D03*
X143634000Y-109474000D03*
X143634000Y-108204000D03*
G04 #@! TD*
D27*
G04 #@! TO.C,C4*
X117066000Y-115570000D03*
X116106000Y-115570000D03*
G04 #@! TD*
D28*
G04 #@! TO.C,R4*
X138912000Y-125225000D03*
X129312000Y-125225000D03*
D29*
X131612000Y-132725000D03*
D30*
X134112000Y-132725000D03*
X136612000Y-132725000D03*
G04 #@! TD*
D13*
G04 #@! TO.C,R14*
X136652000Y-107440000D03*
X136652000Y-108460000D03*
G04 #@! TD*
D15*
G04 #@! TO.C,D3*
X128665000Y-102870000D03*
X130415000Y-102870000D03*
G04 #@! TD*
D28*
G04 #@! TO.C,R17*
X113200000Y-125225000D03*
X122800000Y-125225000D03*
D29*
X115500000Y-132725000D03*
D30*
X118000000Y-132725000D03*
X120500000Y-132725000D03*
G04 #@! TD*
D28*
G04 #@! TO.C,R15*
X160300000Y-125225000D03*
X169900000Y-125225000D03*
D29*
X162600000Y-132725000D03*
D30*
X165100000Y-132725000D03*
X167600000Y-132725000D03*
G04 #@! TD*
D25*
G04 #@! TO.C,C3*
X129286000Y-107724000D03*
X129286000Y-108684000D03*
G04 #@! TD*
D17*
G04 #@! TO.C,R28*
X140718000Y-116078000D03*
X139698000Y-116078000D03*
G04 #@! TD*
D10*
G04 #@! TO.C,LSP2*
X118618000Y-100838000D03*
G04 #@! TD*
D28*
G04 #@! TO.C,R25*
X145060000Y-125225000D03*
X154660000Y-125225000D03*
D29*
X147360000Y-132725000D03*
D30*
X149860000Y-132725000D03*
X152360000Y-132725000D03*
G04 #@! TD*
D17*
G04 #@! TO.C,R13*
X132844000Y-110744000D03*
X131824000Y-110744000D03*
G04 #@! TD*
D23*
G04 #@! TO.C,R9*
X120650000Y-109730000D03*
X120650000Y-108710000D03*
G04 #@! TD*
D16*
G04 #@! TO.C,R5*
X131062000Y-105918000D03*
X132082000Y-105918000D03*
G04 #@! TD*
D17*
G04 #@! TO.C,R23*
X137924000Y-117348000D03*
X136904000Y-117348000D03*
G04 #@! TD*
G04 #@! TO.C,R16*
X127002000Y-116332000D03*
X125982000Y-116332000D03*
G04 #@! TD*
D15*
G04 #@! TO.C,D7*
X157621000Y-109474000D03*
X159371000Y-109474000D03*
G04 #@! TD*
D13*
G04 #@! TO.C,R24*
X143510000Y-105154000D03*
X143510000Y-106174000D03*
G04 #@! TD*
D31*
G04 #@! TO.C,IC1*
X122174000Y-114235000D03*
X123444000Y-114235000D03*
X124714000Y-114235000D03*
X125984000Y-114235000D03*
X125984000Y-109285000D03*
X124714000Y-109285000D03*
X123444000Y-109285000D03*
X122174000Y-109285000D03*
G04 #@! TD*
D23*
G04 #@! TO.C,R27*
X153924000Y-106682000D03*
X153924000Y-105662000D03*
G04 #@! TD*
D27*
G04 #@! TO.C,C9*
X135100000Y-112014000D03*
X134140000Y-112014000D03*
G04 #@! TD*
D10*
G04 #@! TO.C,LSP5*
X171196000Y-114300000D03*
G04 #@! TD*
G04 #@! TO.C,JP2*
X128778000Y-95885000D03*
D24*
X131318000Y-95885000D03*
X133858000Y-95885000D03*
X136398000Y-95885000D03*
G04 #@! TD*
D17*
G04 #@! TO.C,R20*
X135130000Y-113284000D03*
X134110000Y-113284000D03*
G04 #@! TD*
D27*
G04 #@! TO.C,C12*
X140688000Y-114808000D03*
X139728000Y-114808000D03*
G04 #@! TD*
D13*
G04 #@! TO.C,R22*
X150000000Y-99490000D03*
X150000000Y-100510000D03*
G04 #@! TD*
G04 #@! TO.C,R26*
X146558000Y-105154000D03*
X146558000Y-106174000D03*
G04 #@! TD*
D22*
G04 #@! TO.C,Q3*
X151770000Y-103046000D03*
X153670000Y-103046000D03*
X152720000Y-99646000D03*
G04 #@! TD*
D32*
G04 #@! TO.C,D2*
X130415000Y-100838000D03*
X128665000Y-100838000D03*
G04 #@! TD*
D23*
G04 #@! TO.C,R19*
X155702000Y-106682000D03*
X155702000Y-105662000D03*
G04 #@! TD*
D11*
G04 #@! TO.C,C11*
X148400888Y-109474000D03*
D12*
X150900888Y-109474000D03*
G04 #@! TD*
D18*
G04 #@! TO.C,D6*
X153924000Y-108599000D03*
X153924000Y-110349000D03*
G04 #@! TD*
D33*
G04 #@! TO.C,BT1*
X165100000Y-99060000D03*
D34*
X165100000Y-111760000D03*
G04 #@! TD*
M02*
