G04 #@! TF.GenerationSoftware,KiCad,Pcbnew,6.0.2-378541a8eb~116~ubuntu21.10.1*
G04 #@! TF.CreationDate,2022-03-02T08:52:49+01:00*
G04 #@! TF.ProjectId,BH,42482e6b-6963-4616-945f-706362585858,rev?*
G04 #@! TF.SameCoordinates,Original*
G04 #@! TF.FileFunction,Legend,Bot*
G04 #@! TF.FilePolarity,Positive*
%FSLAX46Y46*%
G04 Gerber Fmt 4.6, Leading zero omitted, Abs format (unit mm)*
G04 Created by KiCad (PCBNEW 6.0.2-378541a8eb~116~ubuntu21.10.1) date 2022-03-02 08:52:49*
%MOMM*%
%LPD*%
G01*
G04 APERTURE LIST*
%ADD10C,0.150000*%
%ADD11C,0.120000*%
G04 APERTURE END LIST*
D10*
G04 #@! TO.C,BT1*
X165975714Y-90793571D02*
X165832857Y-90841190D01*
X165785238Y-90888809D01*
X165737619Y-90984047D01*
X165737619Y-91126904D01*
X165785238Y-91222142D01*
X165832857Y-91269761D01*
X165928095Y-91317380D01*
X166309047Y-91317380D01*
X166309047Y-90317380D01*
X165975714Y-90317380D01*
X165880476Y-90365000D01*
X165832857Y-90412619D01*
X165785238Y-90507857D01*
X165785238Y-90603095D01*
X165832857Y-90698333D01*
X165880476Y-90745952D01*
X165975714Y-90793571D01*
X166309047Y-90793571D01*
X165451904Y-90317380D02*
X164880476Y-90317380D01*
X165166190Y-91317380D02*
X165166190Y-90317380D01*
X164023333Y-91317380D02*
X164594761Y-91317380D01*
X164309047Y-91317380D02*
X164309047Y-90317380D01*
X164404285Y-90460238D01*
X164499523Y-90555476D01*
X164594761Y-90603095D01*
X170742857Y-99324285D02*
X168457142Y-99324285D01*
X169600000Y-100467142D02*
X169600000Y-98181428D01*
D11*
X168190000Y-94560000D02*
X168190000Y-91560000D01*
X168190000Y-91560000D02*
X165190000Y-91560000D01*
X114940000Y-91940000D02*
X114940000Y-129680000D01*
X167810000Y-91940000D02*
X167810000Y-129680000D01*
X167810000Y-91940000D02*
X114940000Y-91940000D01*
X167810000Y-129680000D02*
X114940000Y-129680000D01*
G04 #@! TD*
M02*
