G04 #@! TF.GenerationSoftware,KiCad,Pcbnew,6.0.2-378541a8eb~116~ubuntu21.10.1*
G04 #@! TF.CreationDate,2022-03-02T08:52:49+01:00*
G04 #@! TF.ProjectId,BH,42482e6b-6963-4616-945f-706362585858,rev?*
G04 #@! TF.SameCoordinates,Original*
G04 #@! TF.FileFunction,Legend,Top*
G04 #@! TF.FilePolarity,Positive*
%FSLAX46Y46*%
G04 Gerber Fmt 4.6, Leading zero omitted, Abs format (unit mm)*
G04 Created by KiCad (PCBNEW 6.0.2-378541a8eb~116~ubuntu21.10.1) date 2022-03-02 08:52:49*
%MOMM*%
%LPD*%
G01*
G04 APERTURE LIST*
%ADD10C,0.300000*%
%ADD11C,0.150000*%
%ADD12C,0.120000*%
G04 APERTURE END LIST*
D10*
X167862285Y-98441771D02*
X167148000Y-98441771D01*
X167076571Y-99156057D01*
X167148000Y-99084628D01*
X167290857Y-99013200D01*
X167648000Y-99013200D01*
X167790857Y-99084628D01*
X167862285Y-99156057D01*
X167933714Y-99298914D01*
X167933714Y-99656057D01*
X167862285Y-99798914D01*
X167790857Y-99870342D01*
X167648000Y-99941771D01*
X167290857Y-99941771D01*
X167148000Y-99870342D01*
X167076571Y-99798914D01*
X168362285Y-98441771D02*
X168862285Y-99941771D01*
X169362285Y-98441771D01*
X166141542Y-113905600D02*
X165998685Y-113834171D01*
X165784400Y-113834171D01*
X165570114Y-113905600D01*
X165427257Y-114048457D01*
X165355828Y-114191314D01*
X165284400Y-114477028D01*
X165284400Y-114691314D01*
X165355828Y-114977028D01*
X165427257Y-115119885D01*
X165570114Y-115262742D01*
X165784400Y-115334171D01*
X165927257Y-115334171D01*
X166141542Y-115262742D01*
X166212971Y-115191314D01*
X166212971Y-114691314D01*
X165927257Y-114691314D01*
X166855828Y-115334171D02*
X166855828Y-113834171D01*
X167712971Y-115334171D01*
X167712971Y-113834171D01*
X168427257Y-115334171D02*
X168427257Y-113834171D01*
X168784400Y-113834171D01*
X168998685Y-113905600D01*
X169141542Y-114048457D01*
X169212971Y-114191314D01*
X169284400Y-114477028D01*
X169284400Y-114691314D01*
X169212971Y-114977028D01*
X169141542Y-115119885D01*
X168998685Y-115262742D01*
X168784400Y-115334171D01*
X168427257Y-115334171D01*
D11*
G04 #@! TO.C,LSP3*
X170053142Y-107342380D02*
X169576952Y-107342380D01*
X169576952Y-106342380D01*
X170338857Y-107294761D02*
X170481714Y-107342380D01*
X170719809Y-107342380D01*
X170815047Y-107294761D01*
X170862666Y-107247142D01*
X170910285Y-107151904D01*
X170910285Y-107056666D01*
X170862666Y-106961428D01*
X170815047Y-106913809D01*
X170719809Y-106866190D01*
X170529333Y-106818571D01*
X170434095Y-106770952D01*
X170386476Y-106723333D01*
X170338857Y-106628095D01*
X170338857Y-106532857D01*
X170386476Y-106437619D01*
X170434095Y-106390000D01*
X170529333Y-106342380D01*
X170767428Y-106342380D01*
X170910285Y-106390000D01*
X171338857Y-107342380D02*
X171338857Y-106342380D01*
X171719809Y-106342380D01*
X171815047Y-106390000D01*
X171862666Y-106437619D01*
X171910285Y-106532857D01*
X171910285Y-106675714D01*
X171862666Y-106770952D01*
X171815047Y-106818571D01*
X171719809Y-106866190D01*
X171338857Y-106866190D01*
X172243619Y-106342380D02*
X172862666Y-106342380D01*
X172529333Y-106723333D01*
X172672190Y-106723333D01*
X172767428Y-106770952D01*
X172815047Y-106818571D01*
X172862666Y-106913809D01*
X172862666Y-107151904D01*
X172815047Y-107247142D01*
X172767428Y-107294761D01*
X172672190Y-107342380D01*
X172386476Y-107342380D01*
X172291238Y-107294761D01*
X172243619Y-107247142D01*
G04 #@! TO.C,C2*
X124527333Y-97445142D02*
X124479714Y-97492761D01*
X124336857Y-97540380D01*
X124241619Y-97540380D01*
X124098761Y-97492761D01*
X124003523Y-97397523D01*
X123955904Y-97302285D01*
X123908285Y-97111809D01*
X123908285Y-96968952D01*
X123955904Y-96778476D01*
X124003523Y-96683238D01*
X124098761Y-96588000D01*
X124241619Y-96540380D01*
X124336857Y-96540380D01*
X124479714Y-96588000D01*
X124527333Y-96635619D01*
X124908285Y-96635619D02*
X124955904Y-96588000D01*
X125051142Y-96540380D01*
X125289238Y-96540380D01*
X125384476Y-96588000D01*
X125432095Y-96635619D01*
X125479714Y-96730857D01*
X125479714Y-96826095D01*
X125432095Y-96968952D01*
X124860666Y-97540380D01*
X125479714Y-97540380D01*
G04 #@! TO.C,R12*
X147061180Y-100210857D02*
X146584990Y-100544190D01*
X147061180Y-100782285D02*
X146061180Y-100782285D01*
X146061180Y-100401333D01*
X146108800Y-100306095D01*
X146156419Y-100258476D01*
X146251657Y-100210857D01*
X146394514Y-100210857D01*
X146489752Y-100258476D01*
X146537371Y-100306095D01*
X146584990Y-100401333D01*
X146584990Y-100782285D01*
X147061180Y-99258476D02*
X147061180Y-99829904D01*
X147061180Y-99544190D02*
X146061180Y-99544190D01*
X146204038Y-99639428D01*
X146299276Y-99734666D01*
X146346895Y-99829904D01*
X146156419Y-98877523D02*
X146108800Y-98829904D01*
X146061180Y-98734666D01*
X146061180Y-98496571D01*
X146108800Y-98401333D01*
X146156419Y-98353714D01*
X146251657Y-98306095D01*
X146346895Y-98306095D01*
X146489752Y-98353714D01*
X147061180Y-98925142D01*
X147061180Y-98306095D01*
G04 #@! TO.C,LSP1*
X170053142Y-96445780D02*
X169576952Y-96445780D01*
X169576952Y-95445780D01*
X170338857Y-96398161D02*
X170481714Y-96445780D01*
X170719809Y-96445780D01*
X170815047Y-96398161D01*
X170862666Y-96350542D01*
X170910285Y-96255304D01*
X170910285Y-96160066D01*
X170862666Y-96064828D01*
X170815047Y-96017209D01*
X170719809Y-95969590D01*
X170529333Y-95921971D01*
X170434095Y-95874352D01*
X170386476Y-95826733D01*
X170338857Y-95731495D01*
X170338857Y-95636257D01*
X170386476Y-95541019D01*
X170434095Y-95493400D01*
X170529333Y-95445780D01*
X170767428Y-95445780D01*
X170910285Y-95493400D01*
X171338857Y-96445780D02*
X171338857Y-95445780D01*
X171719809Y-95445780D01*
X171815047Y-95493400D01*
X171862666Y-95541019D01*
X171910285Y-95636257D01*
X171910285Y-95779114D01*
X171862666Y-95874352D01*
X171815047Y-95921971D01*
X171719809Y-95969590D01*
X171338857Y-95969590D01*
X172862666Y-96445780D02*
X172291238Y-96445780D01*
X172576952Y-96445780D02*
X172576952Y-95445780D01*
X172481714Y-95588638D01*
X172386476Y-95683876D01*
X172291238Y-95731495D01*
G04 #@! TO.C,C1*
X127357142Y-108370666D02*
X127404761Y-108418285D01*
X127452380Y-108561142D01*
X127452380Y-108656380D01*
X127404761Y-108799238D01*
X127309523Y-108894476D01*
X127214285Y-108942095D01*
X127023809Y-108989714D01*
X126880952Y-108989714D01*
X126690476Y-108942095D01*
X126595238Y-108894476D01*
X126500000Y-108799238D01*
X126452380Y-108656380D01*
X126452380Y-108561142D01*
X126500000Y-108418285D01*
X126547619Y-108370666D01*
X127452380Y-107418285D02*
X127452380Y-107989714D01*
X127452380Y-107704000D02*
X126452380Y-107704000D01*
X126595238Y-107799238D01*
X126690476Y-107894476D01*
X126738095Y-107989714D01*
G04 #@! TO.C,R7*
X132178380Y-108370666D02*
X131702190Y-108704000D01*
X132178380Y-108942095D02*
X131178380Y-108942095D01*
X131178380Y-108561142D01*
X131226000Y-108465904D01*
X131273619Y-108418285D01*
X131368857Y-108370666D01*
X131511714Y-108370666D01*
X131606952Y-108418285D01*
X131654571Y-108465904D01*
X131702190Y-108561142D01*
X131702190Y-108942095D01*
X131178380Y-108037333D02*
X131178380Y-107370666D01*
X132178380Y-107799238D01*
G04 #@! TO.C,D5*
X156995904Y-116022380D02*
X156995904Y-115022380D01*
X157234000Y-115022380D01*
X157376857Y-115070000D01*
X157472095Y-115165238D01*
X157519714Y-115260476D01*
X157567333Y-115450952D01*
X157567333Y-115593809D01*
X157519714Y-115784285D01*
X157472095Y-115879523D01*
X157376857Y-115974761D01*
X157234000Y-116022380D01*
X156995904Y-116022380D01*
X158472095Y-115022380D02*
X157995904Y-115022380D01*
X157948285Y-115498571D01*
X157995904Y-115450952D01*
X158091142Y-115403333D01*
X158329238Y-115403333D01*
X158424476Y-115450952D01*
X158472095Y-115498571D01*
X158519714Y-115593809D01*
X158519714Y-115831904D01*
X158472095Y-115927142D01*
X158424476Y-115974761D01*
X158329238Y-116022380D01*
X158091142Y-116022380D01*
X157995904Y-115974761D01*
X157948285Y-115927142D01*
G04 #@! TO.C,R10*
X116705142Y-112974380D02*
X116371809Y-112498190D01*
X116133714Y-112974380D02*
X116133714Y-111974380D01*
X116514666Y-111974380D01*
X116609904Y-112022000D01*
X116657523Y-112069619D01*
X116705142Y-112164857D01*
X116705142Y-112307714D01*
X116657523Y-112402952D01*
X116609904Y-112450571D01*
X116514666Y-112498190D01*
X116133714Y-112498190D01*
X117657523Y-112974380D02*
X117086095Y-112974380D01*
X117371809Y-112974380D02*
X117371809Y-111974380D01*
X117276571Y-112117238D01*
X117181333Y-112212476D01*
X117086095Y-112260095D01*
X118276571Y-111974380D02*
X118371809Y-111974380D01*
X118467047Y-112022000D01*
X118514666Y-112069619D01*
X118562285Y-112164857D01*
X118609904Y-112355333D01*
X118609904Y-112593428D01*
X118562285Y-112783904D01*
X118514666Y-112879142D01*
X118467047Y-112926761D01*
X118371809Y-112974380D01*
X118276571Y-112974380D01*
X118181333Y-112926761D01*
X118133714Y-112879142D01*
X118086095Y-112783904D01*
X118038476Y-112593428D01*
X118038476Y-112355333D01*
X118086095Y-112164857D01*
X118133714Y-112069619D01*
X118181333Y-112022000D01*
X118276571Y-111974380D01*
G04 #@! TO.C,R1*
X143343333Y-102306380D02*
X143010000Y-101830190D01*
X142771904Y-102306380D02*
X142771904Y-101306380D01*
X143152857Y-101306380D01*
X143248095Y-101354000D01*
X143295714Y-101401619D01*
X143343333Y-101496857D01*
X143343333Y-101639714D01*
X143295714Y-101734952D01*
X143248095Y-101782571D01*
X143152857Y-101830190D01*
X142771904Y-101830190D01*
X144295714Y-102306380D02*
X143724285Y-102306380D01*
X144010000Y-102306380D02*
X144010000Y-101306380D01*
X143914761Y-101449238D01*
X143819523Y-101544476D01*
X143724285Y-101592095D01*
G04 #@! TO.C,D4*
X156154380Y-113006095D02*
X155154380Y-113006095D01*
X155154380Y-112768000D01*
X155202000Y-112625142D01*
X155297238Y-112529904D01*
X155392476Y-112482285D01*
X155582952Y-112434666D01*
X155725809Y-112434666D01*
X155916285Y-112482285D01*
X156011523Y-112529904D01*
X156106761Y-112625142D01*
X156154380Y-112768000D01*
X156154380Y-113006095D01*
X155487714Y-111577523D02*
X156154380Y-111577523D01*
X155106761Y-111815619D02*
X155821047Y-112053714D01*
X155821047Y-111434666D01*
G04 #@! TO.C,R3*
X126579333Y-106370380D02*
X126246000Y-105894190D01*
X126007904Y-106370380D02*
X126007904Y-105370380D01*
X126388857Y-105370380D01*
X126484095Y-105418000D01*
X126531714Y-105465619D01*
X126579333Y-105560857D01*
X126579333Y-105703714D01*
X126531714Y-105798952D01*
X126484095Y-105846571D01*
X126388857Y-105894190D01*
X126007904Y-105894190D01*
X126912666Y-105370380D02*
X127531714Y-105370380D01*
X127198380Y-105751333D01*
X127341238Y-105751333D01*
X127436476Y-105798952D01*
X127484095Y-105846571D01*
X127531714Y-105941809D01*
X127531714Y-106179904D01*
X127484095Y-106275142D01*
X127436476Y-106322761D01*
X127341238Y-106370380D01*
X127055523Y-106370380D01*
X126960285Y-106322761D01*
X126912666Y-106275142D01*
G04 #@! TO.C,LED2*
X145834380Y-97119047D02*
X145834380Y-97595238D01*
X144834380Y-97595238D01*
X145310571Y-96785714D02*
X145310571Y-96452380D01*
X145834380Y-96309523D02*
X145834380Y-96785714D01*
X144834380Y-96785714D01*
X144834380Y-96309523D01*
X145834380Y-95880952D02*
X144834380Y-95880952D01*
X144834380Y-95642857D01*
X144882000Y-95500000D01*
X144977238Y-95404761D01*
X145072476Y-95357142D01*
X145262952Y-95309523D01*
X145405809Y-95309523D01*
X145596285Y-95357142D01*
X145691523Y-95404761D01*
X145786761Y-95500000D01*
X145834380Y-95642857D01*
X145834380Y-95880952D01*
X144929619Y-94928571D02*
X144882000Y-94880952D01*
X144834380Y-94785714D01*
X144834380Y-94547619D01*
X144882000Y-94452380D01*
X144929619Y-94404761D01*
X145024857Y-94357142D01*
X145120095Y-94357142D01*
X145262952Y-94404761D01*
X145834380Y-94976190D01*
X145834380Y-94357142D01*
G04 #@! TO.C,C7*
X136231333Y-111101142D02*
X136183714Y-111148761D01*
X136040857Y-111196380D01*
X135945619Y-111196380D01*
X135802761Y-111148761D01*
X135707523Y-111053523D01*
X135659904Y-110958285D01*
X135612285Y-110767809D01*
X135612285Y-110624952D01*
X135659904Y-110434476D01*
X135707523Y-110339238D01*
X135802761Y-110244000D01*
X135945619Y-110196380D01*
X136040857Y-110196380D01*
X136183714Y-110244000D01*
X136231333Y-110291619D01*
X136564666Y-110196380D02*
X137231333Y-110196380D01*
X136802761Y-111196380D01*
G04 #@! TO.C,LSP4*
X170053142Y-102262380D02*
X169576952Y-102262380D01*
X169576952Y-101262380D01*
X170338857Y-102214761D02*
X170481714Y-102262380D01*
X170719809Y-102262380D01*
X170815047Y-102214761D01*
X170862666Y-102167142D01*
X170910285Y-102071904D01*
X170910285Y-101976666D01*
X170862666Y-101881428D01*
X170815047Y-101833809D01*
X170719809Y-101786190D01*
X170529333Y-101738571D01*
X170434095Y-101690952D01*
X170386476Y-101643333D01*
X170338857Y-101548095D01*
X170338857Y-101452857D01*
X170386476Y-101357619D01*
X170434095Y-101310000D01*
X170529333Y-101262380D01*
X170767428Y-101262380D01*
X170910285Y-101310000D01*
X171338857Y-102262380D02*
X171338857Y-101262380D01*
X171719809Y-101262380D01*
X171815047Y-101310000D01*
X171862666Y-101357619D01*
X171910285Y-101452857D01*
X171910285Y-101595714D01*
X171862666Y-101690952D01*
X171815047Y-101738571D01*
X171719809Y-101786190D01*
X171338857Y-101786190D01*
X172767428Y-101595714D02*
X172767428Y-102262380D01*
X172529333Y-101214761D02*
X172291238Y-101929047D01*
X172910285Y-101929047D01*
G04 #@! TO.C,LED3*
X148712180Y-97119047D02*
X148712180Y-97595238D01*
X147712180Y-97595238D01*
X148188371Y-96785714D02*
X148188371Y-96452380D01*
X148712180Y-96309523D02*
X148712180Y-96785714D01*
X147712180Y-96785714D01*
X147712180Y-96309523D01*
X148712180Y-95880952D02*
X147712180Y-95880952D01*
X147712180Y-95642857D01*
X147759800Y-95500000D01*
X147855038Y-95404761D01*
X147950276Y-95357142D01*
X148140752Y-95309523D01*
X148283609Y-95309523D01*
X148474085Y-95357142D01*
X148569323Y-95404761D01*
X148664561Y-95500000D01*
X148712180Y-95642857D01*
X148712180Y-95880952D01*
X147712180Y-94976190D02*
X147712180Y-94357142D01*
X148093133Y-94690476D01*
X148093133Y-94547619D01*
X148140752Y-94452380D01*
X148188371Y-94404761D01*
X148283609Y-94357142D01*
X148521704Y-94357142D01*
X148616942Y-94404761D01*
X148664561Y-94452380D01*
X148712180Y-94547619D01*
X148712180Y-94833333D01*
X148664561Y-94928571D01*
X148616942Y-94976190D01*
G04 #@! TO.C,Q1*
X136810761Y-99835619D02*
X136715523Y-99788000D01*
X136620285Y-99692761D01*
X136477428Y-99549904D01*
X136382190Y-99502285D01*
X136286952Y-99502285D01*
X136334571Y-99740380D02*
X136239333Y-99692761D01*
X136144095Y-99597523D01*
X136096476Y-99407047D01*
X136096476Y-99073714D01*
X136144095Y-98883238D01*
X136239333Y-98788000D01*
X136334571Y-98740380D01*
X136525047Y-98740380D01*
X136620285Y-98788000D01*
X136715523Y-98883238D01*
X136763142Y-99073714D01*
X136763142Y-99407047D01*
X136715523Y-99597523D01*
X136620285Y-99692761D01*
X136525047Y-99740380D01*
X136334571Y-99740380D01*
X137715523Y-99740380D02*
X137144095Y-99740380D01*
X137429809Y-99740380D02*
X137429809Y-98740380D01*
X137334571Y-98883238D01*
X137239333Y-98978476D01*
X137144095Y-99026095D01*
G04 #@! TO.C,C6*
X116419333Y-107147142D02*
X116371714Y-107194761D01*
X116228857Y-107242380D01*
X116133619Y-107242380D01*
X115990761Y-107194761D01*
X115895523Y-107099523D01*
X115847904Y-107004285D01*
X115800285Y-106813809D01*
X115800285Y-106670952D01*
X115847904Y-106480476D01*
X115895523Y-106385238D01*
X115990761Y-106290000D01*
X116133619Y-106242380D01*
X116228857Y-106242380D01*
X116371714Y-106290000D01*
X116419333Y-106337619D01*
X117276476Y-106242380D02*
X117086000Y-106242380D01*
X116990761Y-106290000D01*
X116943142Y-106337619D01*
X116847904Y-106480476D01*
X116800285Y-106670952D01*
X116800285Y-107051904D01*
X116847904Y-107147142D01*
X116895523Y-107194761D01*
X116990761Y-107242380D01*
X117181238Y-107242380D01*
X117276476Y-107194761D01*
X117324095Y-107147142D01*
X117371714Y-107051904D01*
X117371714Y-106813809D01*
X117324095Y-106718571D01*
X117276476Y-106670952D01*
X117181238Y-106623333D01*
X116990761Y-106623333D01*
X116895523Y-106670952D01*
X116847904Y-106718571D01*
X116800285Y-106813809D01*
G04 #@! TO.C,C10*
X139819142Y-118975142D02*
X139771523Y-119022761D01*
X139628666Y-119070380D01*
X139533428Y-119070380D01*
X139390571Y-119022761D01*
X139295333Y-118927523D01*
X139247714Y-118832285D01*
X139200095Y-118641809D01*
X139200095Y-118498952D01*
X139247714Y-118308476D01*
X139295333Y-118213238D01*
X139390571Y-118118000D01*
X139533428Y-118070380D01*
X139628666Y-118070380D01*
X139771523Y-118118000D01*
X139819142Y-118165619D01*
X140771523Y-119070380D02*
X140200095Y-119070380D01*
X140485809Y-119070380D02*
X140485809Y-118070380D01*
X140390571Y-118213238D01*
X140295333Y-118308476D01*
X140200095Y-118356095D01*
X141390571Y-118070380D02*
X141485809Y-118070380D01*
X141581047Y-118118000D01*
X141628666Y-118165619D01*
X141676285Y-118260857D01*
X141723904Y-118451333D01*
X141723904Y-118689428D01*
X141676285Y-118879904D01*
X141628666Y-118975142D01*
X141581047Y-119022761D01*
X141485809Y-119070380D01*
X141390571Y-119070380D01*
X141295333Y-119022761D01*
X141247714Y-118975142D01*
X141200095Y-118879904D01*
X141152476Y-118689428D01*
X141152476Y-118451333D01*
X141200095Y-118260857D01*
X141247714Y-118165619D01*
X141295333Y-118118000D01*
X141390571Y-118070380D01*
G04 #@! TO.C,R6*
X132421333Y-100120380D02*
X132088000Y-99644190D01*
X131849904Y-100120380D02*
X131849904Y-99120380D01*
X132230857Y-99120380D01*
X132326095Y-99168000D01*
X132373714Y-99215619D01*
X132421333Y-99310857D01*
X132421333Y-99453714D01*
X132373714Y-99548952D01*
X132326095Y-99596571D01*
X132230857Y-99644190D01*
X131849904Y-99644190D01*
X133278476Y-99120380D02*
X133088000Y-99120380D01*
X132992761Y-99168000D01*
X132945142Y-99215619D01*
X132849904Y-99358476D01*
X132802285Y-99548952D01*
X132802285Y-99929904D01*
X132849904Y-100025142D01*
X132897523Y-100072761D01*
X132992761Y-100120380D01*
X133183238Y-100120380D01*
X133278476Y-100072761D01*
X133326095Y-100025142D01*
X133373714Y-99929904D01*
X133373714Y-99691809D01*
X133326095Y-99596571D01*
X133278476Y-99548952D01*
X133183238Y-99501333D01*
X132992761Y-99501333D01*
X132897523Y-99548952D01*
X132849904Y-99596571D01*
X132802285Y-99691809D01*
G04 #@! TO.C,Q2*
X159569161Y-101944419D02*
X159473923Y-101896800D01*
X159378685Y-101801561D01*
X159235828Y-101658704D01*
X159140590Y-101611085D01*
X159045352Y-101611085D01*
X159092971Y-101849180D02*
X158997733Y-101801561D01*
X158902495Y-101706323D01*
X158854876Y-101515847D01*
X158854876Y-101182514D01*
X158902495Y-100992038D01*
X158997733Y-100896800D01*
X159092971Y-100849180D01*
X159283447Y-100849180D01*
X159378685Y-100896800D01*
X159473923Y-100992038D01*
X159521542Y-101182514D01*
X159521542Y-101515847D01*
X159473923Y-101706323D01*
X159378685Y-101801561D01*
X159283447Y-101849180D01*
X159092971Y-101849180D01*
X159902495Y-100944419D02*
X159950114Y-100896800D01*
X160045352Y-100849180D01*
X160283447Y-100849180D01*
X160378685Y-100896800D01*
X160426304Y-100944419D01*
X160473923Y-101039657D01*
X160473923Y-101134895D01*
X160426304Y-101277752D01*
X159854876Y-101849180D01*
X160473923Y-101849180D01*
G04 #@! TO.C,LED1*
X142786380Y-97119047D02*
X142786380Y-97595238D01*
X141786380Y-97595238D01*
X142262571Y-96785714D02*
X142262571Y-96452380D01*
X142786380Y-96309523D02*
X142786380Y-96785714D01*
X141786380Y-96785714D01*
X141786380Y-96309523D01*
X142786380Y-95880952D02*
X141786380Y-95880952D01*
X141786380Y-95642857D01*
X141834000Y-95500000D01*
X141929238Y-95404761D01*
X142024476Y-95357142D01*
X142214952Y-95309523D01*
X142357809Y-95309523D01*
X142548285Y-95357142D01*
X142643523Y-95404761D01*
X142738761Y-95500000D01*
X142786380Y-95642857D01*
X142786380Y-95880952D01*
X142786380Y-94357142D02*
X142786380Y-94928571D01*
X142786380Y-94642857D02*
X141786380Y-94642857D01*
X141929238Y-94738095D01*
X142024476Y-94833333D01*
X142072095Y-94928571D01*
G04 #@! TO.C,R29*
X141522380Y-106306857D02*
X141046190Y-106640190D01*
X141522380Y-106878285D02*
X140522380Y-106878285D01*
X140522380Y-106497333D01*
X140570000Y-106402095D01*
X140617619Y-106354476D01*
X140712857Y-106306857D01*
X140855714Y-106306857D01*
X140950952Y-106354476D01*
X140998571Y-106402095D01*
X141046190Y-106497333D01*
X141046190Y-106878285D01*
X140617619Y-105925904D02*
X140570000Y-105878285D01*
X140522380Y-105783047D01*
X140522380Y-105544952D01*
X140570000Y-105449714D01*
X140617619Y-105402095D01*
X140712857Y-105354476D01*
X140808095Y-105354476D01*
X140950952Y-105402095D01*
X141522380Y-105973523D01*
X141522380Y-105354476D01*
X141522380Y-104878285D02*
X141522380Y-104687809D01*
X141474761Y-104592571D01*
X141427142Y-104544952D01*
X141284285Y-104449714D01*
X141093809Y-104402095D01*
X140712857Y-104402095D01*
X140617619Y-104449714D01*
X140570000Y-104497333D01*
X140522380Y-104592571D01*
X140522380Y-104783047D01*
X140570000Y-104878285D01*
X140617619Y-104925904D01*
X140712857Y-104973523D01*
X140950952Y-104973523D01*
X141046190Y-104925904D01*
X141093809Y-104878285D01*
X141141428Y-104783047D01*
X141141428Y-104592571D01*
X141093809Y-104497333D01*
X141046190Y-104449714D01*
X140950952Y-104402095D01*
G04 #@! TO.C,R11*
X116703142Y-111704380D02*
X116369809Y-111228190D01*
X116131714Y-111704380D02*
X116131714Y-110704380D01*
X116512666Y-110704380D01*
X116607904Y-110752000D01*
X116655523Y-110799619D01*
X116703142Y-110894857D01*
X116703142Y-111037714D01*
X116655523Y-111132952D01*
X116607904Y-111180571D01*
X116512666Y-111228190D01*
X116131714Y-111228190D01*
X117655523Y-111704380D02*
X117084095Y-111704380D01*
X117369809Y-111704380D02*
X117369809Y-110704380D01*
X117274571Y-110847238D01*
X117179333Y-110942476D01*
X117084095Y-110990095D01*
X118607904Y-111704380D02*
X118036476Y-111704380D01*
X118322190Y-111704380D02*
X118322190Y-110704380D01*
X118226952Y-110847238D01*
X118131714Y-110942476D01*
X118036476Y-110990095D01*
G04 #@! TO.C,D1*
X141501904Y-98844380D02*
X141501904Y-97844380D01*
X141740000Y-97844380D01*
X141882857Y-97892000D01*
X141978095Y-97987238D01*
X142025714Y-98082476D01*
X142073333Y-98272952D01*
X142073333Y-98415809D01*
X142025714Y-98606285D01*
X141978095Y-98701523D01*
X141882857Y-98796761D01*
X141740000Y-98844380D01*
X141501904Y-98844380D01*
X143025714Y-98844380D02*
X142454285Y-98844380D01*
X142740000Y-98844380D02*
X142740000Y-97844380D01*
X142644761Y-97987238D01*
X142549523Y-98082476D01*
X142454285Y-98130095D01*
G04 #@! TO.C,JP1*
X112166666Y-105072380D02*
X112166666Y-105786666D01*
X112119047Y-105929523D01*
X112023809Y-106024761D01*
X111880952Y-106072380D01*
X111785714Y-106072380D01*
X112642857Y-106072380D02*
X112642857Y-105072380D01*
X113023809Y-105072380D01*
X113119047Y-105120000D01*
X113166666Y-105167619D01*
X113214285Y-105262857D01*
X113214285Y-105405714D01*
X113166666Y-105500952D01*
X113119047Y-105548571D01*
X113023809Y-105596190D01*
X112642857Y-105596190D01*
X114166666Y-106072380D02*
X113595238Y-106072380D01*
X113880952Y-106072380D02*
X113880952Y-105072380D01*
X113785714Y-105215238D01*
X113690476Y-105310476D01*
X113595238Y-105358095D01*
G04 #@! TO.C,R18*
X135834380Y-106052857D02*
X135358190Y-106386190D01*
X135834380Y-106624285D02*
X134834380Y-106624285D01*
X134834380Y-106243333D01*
X134882000Y-106148095D01*
X134929619Y-106100476D01*
X135024857Y-106052857D01*
X135167714Y-106052857D01*
X135262952Y-106100476D01*
X135310571Y-106148095D01*
X135358190Y-106243333D01*
X135358190Y-106624285D01*
X135834380Y-105100476D02*
X135834380Y-105671904D01*
X135834380Y-105386190D02*
X134834380Y-105386190D01*
X134977238Y-105481428D01*
X135072476Y-105576666D01*
X135120095Y-105671904D01*
X135262952Y-104529047D02*
X135215333Y-104624285D01*
X135167714Y-104671904D01*
X135072476Y-104719523D01*
X135024857Y-104719523D01*
X134929619Y-104671904D01*
X134882000Y-104624285D01*
X134834380Y-104529047D01*
X134834380Y-104338571D01*
X134882000Y-104243333D01*
X134929619Y-104195714D01*
X135024857Y-104148095D01*
X135072476Y-104148095D01*
X135167714Y-104195714D01*
X135215333Y-104243333D01*
X135262952Y-104338571D01*
X135262952Y-104529047D01*
X135310571Y-104624285D01*
X135358190Y-104671904D01*
X135453428Y-104719523D01*
X135643904Y-104719523D01*
X135739142Y-104671904D01*
X135786761Y-104624285D01*
X135834380Y-104529047D01*
X135834380Y-104338571D01*
X135786761Y-104243333D01*
X135739142Y-104195714D01*
X135643904Y-104148095D01*
X135453428Y-104148095D01*
X135358190Y-104195714D01*
X135310571Y-104243333D01*
X135262952Y-104338571D01*
G04 #@! TO.C,C5*
X139549142Y-96166666D02*
X139596761Y-96214285D01*
X139644380Y-96357142D01*
X139644380Y-96452380D01*
X139596761Y-96595238D01*
X139501523Y-96690476D01*
X139406285Y-96738095D01*
X139215809Y-96785714D01*
X139072952Y-96785714D01*
X138882476Y-96738095D01*
X138787238Y-96690476D01*
X138692000Y-96595238D01*
X138644380Y-96452380D01*
X138644380Y-96357142D01*
X138692000Y-96214285D01*
X138739619Y-96166666D01*
X138644380Y-95261904D02*
X138644380Y-95738095D01*
X139120571Y-95785714D01*
X139072952Y-95738095D01*
X139025333Y-95642857D01*
X139025333Y-95404761D01*
X139072952Y-95309523D01*
X139120571Y-95261904D01*
X139215809Y-95214285D01*
X139453904Y-95214285D01*
X139549142Y-95261904D01*
X139596761Y-95309523D01*
X139644380Y-95404761D01*
X139644380Y-95642857D01*
X139596761Y-95738095D01*
X139549142Y-95785714D01*
G04 #@! TO.C,R2*
X128468380Y-112942666D02*
X127992190Y-113276000D01*
X128468380Y-113514095D02*
X127468380Y-113514095D01*
X127468380Y-113133142D01*
X127516000Y-113037904D01*
X127563619Y-112990285D01*
X127658857Y-112942666D01*
X127801714Y-112942666D01*
X127896952Y-112990285D01*
X127944571Y-113037904D01*
X127992190Y-113133142D01*
X127992190Y-113514095D01*
X127563619Y-112561714D02*
X127516000Y-112514095D01*
X127468380Y-112418857D01*
X127468380Y-112180761D01*
X127516000Y-112085523D01*
X127563619Y-112037904D01*
X127658857Y-111990285D01*
X127754095Y-111990285D01*
X127896952Y-112037904D01*
X128468380Y-112609333D01*
X128468380Y-111990285D01*
G04 #@! TO.C,R21*
X137025142Y-113990380D02*
X136691809Y-113514190D01*
X136453714Y-113990380D02*
X136453714Y-112990380D01*
X136834666Y-112990380D01*
X136929904Y-113038000D01*
X136977523Y-113085619D01*
X137025142Y-113180857D01*
X137025142Y-113323714D01*
X136977523Y-113418952D01*
X136929904Y-113466571D01*
X136834666Y-113514190D01*
X136453714Y-113514190D01*
X137406095Y-113085619D02*
X137453714Y-113038000D01*
X137548952Y-112990380D01*
X137787047Y-112990380D01*
X137882285Y-113038000D01*
X137929904Y-113085619D01*
X137977523Y-113180857D01*
X137977523Y-113276095D01*
X137929904Y-113418952D01*
X137358476Y-113990380D01*
X137977523Y-113990380D01*
X138929904Y-113990380D02*
X138358476Y-113990380D01*
X138644190Y-113990380D02*
X138644190Y-112990380D01*
X138548952Y-113133238D01*
X138453714Y-113228476D01*
X138358476Y-113276095D01*
G04 #@! TO.C,C8*
X149439333Y-119737142D02*
X149391714Y-119784761D01*
X149248857Y-119832380D01*
X149153619Y-119832380D01*
X149010761Y-119784761D01*
X148915523Y-119689523D01*
X148867904Y-119594285D01*
X148820285Y-119403809D01*
X148820285Y-119260952D01*
X148867904Y-119070476D01*
X148915523Y-118975238D01*
X149010761Y-118880000D01*
X149153619Y-118832380D01*
X149248857Y-118832380D01*
X149391714Y-118880000D01*
X149439333Y-118927619D01*
X150010761Y-119260952D02*
X149915523Y-119213333D01*
X149867904Y-119165714D01*
X149820285Y-119070476D01*
X149820285Y-119022857D01*
X149867904Y-118927619D01*
X149915523Y-118880000D01*
X150010761Y-118832380D01*
X150201238Y-118832380D01*
X150296476Y-118880000D01*
X150344095Y-118927619D01*
X150391714Y-119022857D01*
X150391714Y-119070476D01*
X150344095Y-119165714D01*
X150296476Y-119213333D01*
X150201238Y-119260952D01*
X150010761Y-119260952D01*
X149915523Y-119308571D01*
X149867904Y-119356190D01*
X149820285Y-119451428D01*
X149820285Y-119641904D01*
X149867904Y-119737142D01*
X149915523Y-119784761D01*
X150010761Y-119832380D01*
X150201238Y-119832380D01*
X150296476Y-119784761D01*
X150344095Y-119737142D01*
X150391714Y-119641904D01*
X150391714Y-119451428D01*
X150344095Y-119356190D01*
X150296476Y-119308571D01*
X150201238Y-119260952D01*
G04 #@! TO.C,R8*
X126630133Y-104846380D02*
X126296800Y-104370190D01*
X126058704Y-104846380D02*
X126058704Y-103846380D01*
X126439657Y-103846380D01*
X126534895Y-103894000D01*
X126582514Y-103941619D01*
X126630133Y-104036857D01*
X126630133Y-104179714D01*
X126582514Y-104274952D01*
X126534895Y-104322571D01*
X126439657Y-104370190D01*
X126058704Y-104370190D01*
X127201561Y-104274952D02*
X127106323Y-104227333D01*
X127058704Y-104179714D01*
X127011085Y-104084476D01*
X127011085Y-104036857D01*
X127058704Y-103941619D01*
X127106323Y-103894000D01*
X127201561Y-103846380D01*
X127392038Y-103846380D01*
X127487276Y-103894000D01*
X127534895Y-103941619D01*
X127582514Y-104036857D01*
X127582514Y-104084476D01*
X127534895Y-104179714D01*
X127487276Y-104227333D01*
X127392038Y-104274952D01*
X127201561Y-104274952D01*
X127106323Y-104322571D01*
X127058704Y-104370190D01*
X127011085Y-104465428D01*
X127011085Y-104655904D01*
X127058704Y-104751142D01*
X127106323Y-104798761D01*
X127201561Y-104846380D01*
X127392038Y-104846380D01*
X127487276Y-104798761D01*
X127534895Y-104751142D01*
X127582514Y-104655904D01*
X127582514Y-104465428D01*
X127534895Y-104370190D01*
X127487276Y-104322571D01*
X127392038Y-104274952D01*
G04 #@! TO.C,IC2*
X140182809Y-110434380D02*
X140182809Y-109434380D01*
X141230428Y-110339142D02*
X141182809Y-110386761D01*
X141039952Y-110434380D01*
X140944714Y-110434380D01*
X140801857Y-110386761D01*
X140706619Y-110291523D01*
X140659000Y-110196285D01*
X140611380Y-110005809D01*
X140611380Y-109862952D01*
X140659000Y-109672476D01*
X140706619Y-109577238D01*
X140801857Y-109482000D01*
X140944714Y-109434380D01*
X141039952Y-109434380D01*
X141182809Y-109482000D01*
X141230428Y-109529619D01*
X141611380Y-109529619D02*
X141659000Y-109482000D01*
X141754238Y-109434380D01*
X141992333Y-109434380D01*
X142087571Y-109482000D01*
X142135190Y-109529619D01*
X142182809Y-109624857D01*
X142182809Y-109720095D01*
X142135190Y-109862952D01*
X141563761Y-110434380D01*
X142182809Y-110434380D01*
G04 #@! TO.C,C4*
X116419333Y-117087142D02*
X116371714Y-117134761D01*
X116228857Y-117182380D01*
X116133619Y-117182380D01*
X115990761Y-117134761D01*
X115895523Y-117039523D01*
X115847904Y-116944285D01*
X115800285Y-116753809D01*
X115800285Y-116610952D01*
X115847904Y-116420476D01*
X115895523Y-116325238D01*
X115990761Y-116230000D01*
X116133619Y-116182380D01*
X116228857Y-116182380D01*
X116371714Y-116230000D01*
X116419333Y-116277619D01*
X117276476Y-116515714D02*
X117276476Y-117182380D01*
X117038380Y-116134761D02*
X116800285Y-116849047D01*
X117419333Y-116849047D01*
G04 #@! TO.C,R4*
X127424380Y-126181666D02*
X126948190Y-126515000D01*
X127424380Y-126753095D02*
X126424380Y-126753095D01*
X126424380Y-126372142D01*
X126472000Y-126276904D01*
X126519619Y-126229285D01*
X126614857Y-126181666D01*
X126757714Y-126181666D01*
X126852952Y-126229285D01*
X126900571Y-126276904D01*
X126948190Y-126372142D01*
X126948190Y-126753095D01*
X126757714Y-125324523D02*
X127424380Y-125324523D01*
X126376761Y-125562619D02*
X127091047Y-125800714D01*
X127091047Y-125181666D01*
G04 #@! TO.C,R14*
X137104380Y-106052857D02*
X136628190Y-106386190D01*
X137104380Y-106624285D02*
X136104380Y-106624285D01*
X136104380Y-106243333D01*
X136152000Y-106148095D01*
X136199619Y-106100476D01*
X136294857Y-106052857D01*
X136437714Y-106052857D01*
X136532952Y-106100476D01*
X136580571Y-106148095D01*
X136628190Y-106243333D01*
X136628190Y-106624285D01*
X137104380Y-105100476D02*
X137104380Y-105671904D01*
X137104380Y-105386190D02*
X136104380Y-105386190D01*
X136247238Y-105481428D01*
X136342476Y-105576666D01*
X136390095Y-105671904D01*
X136437714Y-104243333D02*
X137104380Y-104243333D01*
X136056761Y-104481428D02*
X136771047Y-104719523D01*
X136771047Y-104100476D01*
G04 #@! TO.C,D3*
X131595904Y-103322380D02*
X131595904Y-102322380D01*
X131834000Y-102322380D01*
X131976857Y-102370000D01*
X132072095Y-102465238D01*
X132119714Y-102560476D01*
X132167333Y-102750952D01*
X132167333Y-102893809D01*
X132119714Y-103084285D01*
X132072095Y-103179523D01*
X131976857Y-103274761D01*
X131834000Y-103322380D01*
X131595904Y-103322380D01*
X132500666Y-102322380D02*
X133119714Y-102322380D01*
X132786380Y-102703333D01*
X132929238Y-102703333D01*
X133024476Y-102750952D01*
X133072095Y-102798571D01*
X133119714Y-102893809D01*
X133119714Y-103131904D01*
X133072095Y-103227142D01*
X133024476Y-103274761D01*
X132929238Y-103322380D01*
X132643523Y-103322380D01*
X132548285Y-103274761D01*
X132500666Y-103227142D01*
G04 #@! TO.C,R17*
X111312380Y-126657857D02*
X110836190Y-126991190D01*
X111312380Y-127229285D02*
X110312380Y-127229285D01*
X110312380Y-126848333D01*
X110360000Y-126753095D01*
X110407619Y-126705476D01*
X110502857Y-126657857D01*
X110645714Y-126657857D01*
X110740952Y-126705476D01*
X110788571Y-126753095D01*
X110836190Y-126848333D01*
X110836190Y-127229285D01*
X111312380Y-125705476D02*
X111312380Y-126276904D01*
X111312380Y-125991190D02*
X110312380Y-125991190D01*
X110455238Y-126086428D01*
X110550476Y-126181666D01*
X110598095Y-126276904D01*
X110312380Y-125372142D02*
X110312380Y-124705476D01*
X111312380Y-125134047D01*
G04 #@! TO.C,R15*
X158412380Y-126657857D02*
X157936190Y-126991190D01*
X158412380Y-127229285D02*
X157412380Y-127229285D01*
X157412380Y-126848333D01*
X157460000Y-126753095D01*
X157507619Y-126705476D01*
X157602857Y-126657857D01*
X157745714Y-126657857D01*
X157840952Y-126705476D01*
X157888571Y-126753095D01*
X157936190Y-126848333D01*
X157936190Y-127229285D01*
X158412380Y-125705476D02*
X158412380Y-126276904D01*
X158412380Y-125991190D02*
X157412380Y-125991190D01*
X157555238Y-126086428D01*
X157650476Y-126181666D01*
X157698095Y-126276904D01*
X157412380Y-124800714D02*
X157412380Y-125276904D01*
X157888571Y-125324523D01*
X157840952Y-125276904D01*
X157793333Y-125181666D01*
X157793333Y-124943571D01*
X157840952Y-124848333D01*
X157888571Y-124800714D01*
X157983809Y-124753095D01*
X158221904Y-124753095D01*
X158317142Y-124800714D01*
X158364761Y-124848333D01*
X158412380Y-124943571D01*
X158412380Y-125181666D01*
X158364761Y-125276904D01*
X158317142Y-125324523D01*
G04 #@! TO.C,C3*
X129643142Y-110402666D02*
X129690761Y-110450285D01*
X129738380Y-110593142D01*
X129738380Y-110688380D01*
X129690761Y-110831238D01*
X129595523Y-110926476D01*
X129500285Y-110974095D01*
X129309809Y-111021714D01*
X129166952Y-111021714D01*
X128976476Y-110974095D01*
X128881238Y-110926476D01*
X128786000Y-110831238D01*
X128738380Y-110688380D01*
X128738380Y-110593142D01*
X128786000Y-110450285D01*
X128833619Y-110402666D01*
X128738380Y-110069333D02*
X128738380Y-109450285D01*
X129119333Y-109783619D01*
X129119333Y-109640761D01*
X129166952Y-109545523D01*
X129214571Y-109497904D01*
X129309809Y-109450285D01*
X129547904Y-109450285D01*
X129643142Y-109497904D01*
X129690761Y-109545523D01*
X129738380Y-109640761D01*
X129738380Y-109926476D01*
X129690761Y-110021714D01*
X129643142Y-110069333D01*
G04 #@! TO.C,R28*
X137025142Y-116530380D02*
X136691809Y-116054190D01*
X136453714Y-116530380D02*
X136453714Y-115530380D01*
X136834666Y-115530380D01*
X136929904Y-115578000D01*
X136977523Y-115625619D01*
X137025142Y-115720857D01*
X137025142Y-115863714D01*
X136977523Y-115958952D01*
X136929904Y-116006571D01*
X136834666Y-116054190D01*
X136453714Y-116054190D01*
X137406095Y-115625619D02*
X137453714Y-115578000D01*
X137548952Y-115530380D01*
X137787047Y-115530380D01*
X137882285Y-115578000D01*
X137929904Y-115625619D01*
X137977523Y-115720857D01*
X137977523Y-115816095D01*
X137929904Y-115958952D01*
X137358476Y-116530380D01*
X137977523Y-116530380D01*
X138548952Y-115958952D02*
X138453714Y-115911333D01*
X138406095Y-115863714D01*
X138358476Y-115768476D01*
X138358476Y-115720857D01*
X138406095Y-115625619D01*
X138453714Y-115578000D01*
X138548952Y-115530380D01*
X138739428Y-115530380D01*
X138834666Y-115578000D01*
X138882285Y-115625619D01*
X138929904Y-115720857D01*
X138929904Y-115768476D01*
X138882285Y-115863714D01*
X138834666Y-115911333D01*
X138739428Y-115958952D01*
X138548952Y-115958952D01*
X138453714Y-116006571D01*
X138406095Y-116054190D01*
X138358476Y-116149428D01*
X138358476Y-116339904D01*
X138406095Y-116435142D01*
X138453714Y-116482761D01*
X138548952Y-116530380D01*
X138739428Y-116530380D01*
X138834666Y-116482761D01*
X138882285Y-116435142D01*
X138929904Y-116339904D01*
X138929904Y-116149428D01*
X138882285Y-116054190D01*
X138834666Y-116006571D01*
X138739428Y-115958952D01*
G04 #@! TO.C,LSP2*
X117475142Y-98960380D02*
X116998952Y-98960380D01*
X116998952Y-97960380D01*
X117760857Y-98912761D02*
X117903714Y-98960380D01*
X118141809Y-98960380D01*
X118237047Y-98912761D01*
X118284666Y-98865142D01*
X118332285Y-98769904D01*
X118332285Y-98674666D01*
X118284666Y-98579428D01*
X118237047Y-98531809D01*
X118141809Y-98484190D01*
X117951333Y-98436571D01*
X117856095Y-98388952D01*
X117808476Y-98341333D01*
X117760857Y-98246095D01*
X117760857Y-98150857D01*
X117808476Y-98055619D01*
X117856095Y-98008000D01*
X117951333Y-97960380D01*
X118189428Y-97960380D01*
X118332285Y-98008000D01*
X118760857Y-98960380D02*
X118760857Y-97960380D01*
X119141809Y-97960380D01*
X119237047Y-98008000D01*
X119284666Y-98055619D01*
X119332285Y-98150857D01*
X119332285Y-98293714D01*
X119284666Y-98388952D01*
X119237047Y-98436571D01*
X119141809Y-98484190D01*
X118760857Y-98484190D01*
X119713238Y-98055619D02*
X119760857Y-98008000D01*
X119856095Y-97960380D01*
X120094190Y-97960380D01*
X120189428Y-98008000D01*
X120237047Y-98055619D01*
X120284666Y-98150857D01*
X120284666Y-98246095D01*
X120237047Y-98388952D01*
X119665619Y-98960380D01*
X120284666Y-98960380D01*
G04 #@! TO.C,R25*
X143172380Y-126657857D02*
X142696190Y-126991190D01*
X143172380Y-127229285D02*
X142172380Y-127229285D01*
X142172380Y-126848333D01*
X142220000Y-126753095D01*
X142267619Y-126705476D01*
X142362857Y-126657857D01*
X142505714Y-126657857D01*
X142600952Y-126705476D01*
X142648571Y-126753095D01*
X142696190Y-126848333D01*
X142696190Y-127229285D01*
X142267619Y-126276904D02*
X142220000Y-126229285D01*
X142172380Y-126134047D01*
X142172380Y-125895952D01*
X142220000Y-125800714D01*
X142267619Y-125753095D01*
X142362857Y-125705476D01*
X142458095Y-125705476D01*
X142600952Y-125753095D01*
X143172380Y-126324523D01*
X143172380Y-125705476D01*
X142172380Y-124800714D02*
X142172380Y-125276904D01*
X142648571Y-125324523D01*
X142600952Y-125276904D01*
X142553333Y-125181666D01*
X142553333Y-124943571D01*
X142600952Y-124848333D01*
X142648571Y-124800714D01*
X142743809Y-124753095D01*
X142981904Y-124753095D01*
X143077142Y-124800714D01*
X143124761Y-124848333D01*
X143172380Y-124943571D01*
X143172380Y-125181666D01*
X143124761Y-125276904D01*
X143077142Y-125324523D01*
G04 #@! TO.C,R13*
X131537501Y-112466380D02*
X131204168Y-111990190D01*
X130966073Y-112466380D02*
X130966073Y-111466380D01*
X131347025Y-111466380D01*
X131442263Y-111514000D01*
X131489882Y-111561619D01*
X131537501Y-111656857D01*
X131537501Y-111799714D01*
X131489882Y-111894952D01*
X131442263Y-111942571D01*
X131347025Y-111990190D01*
X130966073Y-111990190D01*
X132489882Y-112466380D02*
X131918454Y-112466380D01*
X132204168Y-112466380D02*
X132204168Y-111466380D01*
X132108930Y-111609238D01*
X132013692Y-111704476D01*
X131918454Y-111752095D01*
X132823216Y-111466380D02*
X133442263Y-111466380D01*
X133108930Y-111847333D01*
X133251787Y-111847333D01*
X133347025Y-111894952D01*
X133394644Y-111942571D01*
X133442263Y-112037809D01*
X133442263Y-112275904D01*
X133394644Y-112371142D01*
X133347025Y-112418761D01*
X133251787Y-112466380D01*
X132966073Y-112466380D01*
X132870835Y-112418761D01*
X132823216Y-112371142D01*
G04 #@! TO.C,R9*
X119932380Y-109386666D02*
X119456190Y-109720000D01*
X119932380Y-109958095D02*
X118932380Y-109958095D01*
X118932380Y-109577142D01*
X118980000Y-109481904D01*
X119027619Y-109434285D01*
X119122857Y-109386666D01*
X119265714Y-109386666D01*
X119360952Y-109434285D01*
X119408571Y-109481904D01*
X119456190Y-109577142D01*
X119456190Y-109958095D01*
X119932380Y-108910476D02*
X119932380Y-108720000D01*
X119884761Y-108624761D01*
X119837142Y-108577142D01*
X119694285Y-108481904D01*
X119503809Y-108434285D01*
X119122857Y-108434285D01*
X119027619Y-108481904D01*
X118980000Y-108529523D01*
X118932380Y-108624761D01*
X118932380Y-108815238D01*
X118980000Y-108910476D01*
X119027619Y-108958095D01*
X119122857Y-109005714D01*
X119360952Y-109005714D01*
X119456190Y-108958095D01*
X119503809Y-108910476D01*
X119551428Y-108815238D01*
X119551428Y-108624761D01*
X119503809Y-108529523D01*
X119456190Y-108481904D01*
X119360952Y-108434285D01*
G04 #@! TO.C,R5*
X131405333Y-105201980D02*
X131072000Y-104725790D01*
X130833904Y-105201980D02*
X130833904Y-104201980D01*
X131214857Y-104201980D01*
X131310095Y-104249600D01*
X131357714Y-104297219D01*
X131405333Y-104392457D01*
X131405333Y-104535314D01*
X131357714Y-104630552D01*
X131310095Y-104678171D01*
X131214857Y-104725790D01*
X130833904Y-104725790D01*
X132310095Y-104201980D02*
X131833904Y-104201980D01*
X131786285Y-104678171D01*
X131833904Y-104630552D01*
X131929142Y-104582933D01*
X132167238Y-104582933D01*
X132262476Y-104630552D01*
X132310095Y-104678171D01*
X132357714Y-104773409D01*
X132357714Y-105011504D01*
X132310095Y-105106742D01*
X132262476Y-105154361D01*
X132167238Y-105201980D01*
X131929142Y-105201980D01*
X131833904Y-105154361D01*
X131786285Y-105106742D01*
G04 #@! TO.C,R23*
X136517142Y-119070380D02*
X136183809Y-118594190D01*
X135945714Y-119070380D02*
X135945714Y-118070380D01*
X136326666Y-118070380D01*
X136421904Y-118118000D01*
X136469523Y-118165619D01*
X136517142Y-118260857D01*
X136517142Y-118403714D01*
X136469523Y-118498952D01*
X136421904Y-118546571D01*
X136326666Y-118594190D01*
X135945714Y-118594190D01*
X136898095Y-118165619D02*
X136945714Y-118118000D01*
X137040952Y-118070380D01*
X137279047Y-118070380D01*
X137374285Y-118118000D01*
X137421904Y-118165619D01*
X137469523Y-118260857D01*
X137469523Y-118356095D01*
X137421904Y-118498952D01*
X136850476Y-119070380D01*
X137469523Y-119070380D01*
X137802857Y-118070380D02*
X138421904Y-118070380D01*
X138088571Y-118451333D01*
X138231428Y-118451333D01*
X138326666Y-118498952D01*
X138374285Y-118546571D01*
X138421904Y-118641809D01*
X138421904Y-118879904D01*
X138374285Y-118975142D01*
X138326666Y-119022761D01*
X138231428Y-119070380D01*
X137945714Y-119070380D01*
X137850476Y-119022761D01*
X137802857Y-118975142D01*
G04 #@! TO.C,R16*
X128389142Y-116784380D02*
X128055809Y-116308190D01*
X127817714Y-116784380D02*
X127817714Y-115784380D01*
X128198666Y-115784380D01*
X128293904Y-115832000D01*
X128341523Y-115879619D01*
X128389142Y-115974857D01*
X128389142Y-116117714D01*
X128341523Y-116212952D01*
X128293904Y-116260571D01*
X128198666Y-116308190D01*
X127817714Y-116308190D01*
X129341523Y-116784380D02*
X128770095Y-116784380D01*
X129055809Y-116784380D02*
X129055809Y-115784380D01*
X128960571Y-115927238D01*
X128865333Y-116022476D01*
X128770095Y-116070095D01*
X130198666Y-115784380D02*
X130008190Y-115784380D01*
X129912952Y-115832000D01*
X129865333Y-115879619D01*
X129770095Y-116022476D01*
X129722476Y-116212952D01*
X129722476Y-116593904D01*
X129770095Y-116689142D01*
X129817714Y-116736761D01*
X129912952Y-116784380D01*
X130103428Y-116784380D01*
X130198666Y-116736761D01*
X130246285Y-116689142D01*
X130293904Y-116593904D01*
X130293904Y-116355809D01*
X130246285Y-116260571D01*
X130198666Y-116212952D01*
X130103428Y-116165333D01*
X129912952Y-116165333D01*
X129817714Y-116212952D01*
X129770095Y-116260571D01*
X129722476Y-116355809D01*
G04 #@! TO.C,D7*
X160551904Y-109926380D02*
X160551904Y-108926380D01*
X160790000Y-108926380D01*
X160932857Y-108974000D01*
X161028095Y-109069238D01*
X161075714Y-109164476D01*
X161123333Y-109354952D01*
X161123333Y-109497809D01*
X161075714Y-109688285D01*
X161028095Y-109783523D01*
X160932857Y-109878761D01*
X160790000Y-109926380D01*
X160551904Y-109926380D01*
X161456666Y-108926380D02*
X162123333Y-108926380D01*
X161694761Y-109926380D01*
G04 #@! TO.C,R24*
X145132380Y-106306857D02*
X144656190Y-106640190D01*
X145132380Y-106878285D02*
X144132380Y-106878285D01*
X144132380Y-106497333D01*
X144180000Y-106402095D01*
X144227619Y-106354476D01*
X144322857Y-106306857D01*
X144465714Y-106306857D01*
X144560952Y-106354476D01*
X144608571Y-106402095D01*
X144656190Y-106497333D01*
X144656190Y-106878285D01*
X144227619Y-105925904D02*
X144180000Y-105878285D01*
X144132380Y-105783047D01*
X144132380Y-105544952D01*
X144180000Y-105449714D01*
X144227619Y-105402095D01*
X144322857Y-105354476D01*
X144418095Y-105354476D01*
X144560952Y-105402095D01*
X145132380Y-105973523D01*
X145132380Y-105354476D01*
X144465714Y-104497333D02*
X145132380Y-104497333D01*
X144084761Y-104735428D02*
X144799047Y-104973523D01*
X144799047Y-104354476D01*
G04 #@! TO.C,IC1*
X123229809Y-112212380D02*
X123229809Y-111212380D01*
X124277428Y-112117142D02*
X124229809Y-112164761D01*
X124086952Y-112212380D01*
X123991714Y-112212380D01*
X123848857Y-112164761D01*
X123753619Y-112069523D01*
X123706000Y-111974285D01*
X123658380Y-111783809D01*
X123658380Y-111640952D01*
X123706000Y-111450476D01*
X123753619Y-111355238D01*
X123848857Y-111260000D01*
X123991714Y-111212380D01*
X124086952Y-111212380D01*
X124229809Y-111260000D01*
X124277428Y-111307619D01*
X125229809Y-112212380D02*
X124658380Y-112212380D01*
X124944095Y-112212380D02*
X124944095Y-111212380D01*
X124848857Y-111355238D01*
X124753619Y-111450476D01*
X124658380Y-111498095D01*
G04 #@! TO.C,R27*
X153106380Y-106814857D02*
X152630190Y-107148190D01*
X153106380Y-107386285D02*
X152106380Y-107386285D01*
X152106380Y-107005333D01*
X152154000Y-106910095D01*
X152201619Y-106862476D01*
X152296857Y-106814857D01*
X152439714Y-106814857D01*
X152534952Y-106862476D01*
X152582571Y-106910095D01*
X152630190Y-107005333D01*
X152630190Y-107386285D01*
X152201619Y-106433904D02*
X152154000Y-106386285D01*
X152106380Y-106291047D01*
X152106380Y-106052952D01*
X152154000Y-105957714D01*
X152201619Y-105910095D01*
X152296857Y-105862476D01*
X152392095Y-105862476D01*
X152534952Y-105910095D01*
X153106380Y-106481523D01*
X153106380Y-105862476D01*
X152106380Y-105529142D02*
X152106380Y-104862476D01*
X153106380Y-105291047D01*
G04 #@! TO.C,C9*
X136231333Y-112371142D02*
X136183714Y-112418761D01*
X136040857Y-112466380D01*
X135945619Y-112466380D01*
X135802761Y-112418761D01*
X135707523Y-112323523D01*
X135659904Y-112228285D01*
X135612285Y-112037809D01*
X135612285Y-111894952D01*
X135659904Y-111704476D01*
X135707523Y-111609238D01*
X135802761Y-111514000D01*
X135945619Y-111466380D01*
X136040857Y-111466380D01*
X136183714Y-111514000D01*
X136231333Y-111561619D01*
X136707523Y-112466380D02*
X136898000Y-112466380D01*
X136993238Y-112418761D01*
X137040857Y-112371142D01*
X137136095Y-112228285D01*
X137183714Y-112037809D01*
X137183714Y-111656857D01*
X137136095Y-111561619D01*
X137088476Y-111514000D01*
X136993238Y-111466380D01*
X136802761Y-111466380D01*
X136707523Y-111514000D01*
X136659904Y-111561619D01*
X136612285Y-111656857D01*
X136612285Y-111894952D01*
X136659904Y-111990190D01*
X136707523Y-112037809D01*
X136802761Y-112085428D01*
X136993238Y-112085428D01*
X137088476Y-112037809D01*
X137136095Y-111990190D01*
X137183714Y-111894952D01*
G04 #@! TO.C,LSP5*
X170053142Y-112422380D02*
X169576952Y-112422380D01*
X169576952Y-111422380D01*
X170338857Y-112374761D02*
X170481714Y-112422380D01*
X170719809Y-112422380D01*
X170815047Y-112374761D01*
X170862666Y-112327142D01*
X170910285Y-112231904D01*
X170910285Y-112136666D01*
X170862666Y-112041428D01*
X170815047Y-111993809D01*
X170719809Y-111946190D01*
X170529333Y-111898571D01*
X170434095Y-111850952D01*
X170386476Y-111803333D01*
X170338857Y-111708095D01*
X170338857Y-111612857D01*
X170386476Y-111517619D01*
X170434095Y-111470000D01*
X170529333Y-111422380D01*
X170767428Y-111422380D01*
X170910285Y-111470000D01*
X171338857Y-112422380D02*
X171338857Y-111422380D01*
X171719809Y-111422380D01*
X171815047Y-111470000D01*
X171862666Y-111517619D01*
X171910285Y-111612857D01*
X171910285Y-111755714D01*
X171862666Y-111850952D01*
X171815047Y-111898571D01*
X171719809Y-111946190D01*
X171338857Y-111946190D01*
X172815047Y-111422380D02*
X172338857Y-111422380D01*
X172291238Y-111898571D01*
X172338857Y-111850952D01*
X172434095Y-111803333D01*
X172672190Y-111803333D01*
X172767428Y-111850952D01*
X172815047Y-111898571D01*
X172862666Y-111993809D01*
X172862666Y-112231904D01*
X172815047Y-112327142D01*
X172767428Y-112374761D01*
X172672190Y-112422380D01*
X172434095Y-112422380D01*
X172338857Y-112374761D01*
X172291238Y-112327142D01*
G04 #@! TO.C,JP2*
X125900380Y-96718333D02*
X126614666Y-96718333D01*
X126757523Y-96765952D01*
X126852761Y-96861190D01*
X126900380Y-97004047D01*
X126900380Y-97099285D01*
X126900380Y-96242142D02*
X125900380Y-96242142D01*
X125900380Y-95861190D01*
X125948000Y-95765952D01*
X125995619Y-95718333D01*
X126090857Y-95670714D01*
X126233714Y-95670714D01*
X126328952Y-95718333D01*
X126376571Y-95765952D01*
X126424190Y-95861190D01*
X126424190Y-96242142D01*
X125995619Y-95289761D02*
X125948000Y-95242142D01*
X125900380Y-95146904D01*
X125900380Y-94908809D01*
X125948000Y-94813571D01*
X125995619Y-94765952D01*
X126090857Y-94718333D01*
X126186095Y-94718333D01*
X126328952Y-94765952D01*
X126900380Y-95337380D01*
X126900380Y-94718333D01*
G04 #@! TO.C,R20*
X131437142Y-113736380D02*
X131103809Y-113260190D01*
X130865714Y-113736380D02*
X130865714Y-112736380D01*
X131246666Y-112736380D01*
X131341904Y-112784000D01*
X131389523Y-112831619D01*
X131437142Y-112926857D01*
X131437142Y-113069714D01*
X131389523Y-113164952D01*
X131341904Y-113212571D01*
X131246666Y-113260190D01*
X130865714Y-113260190D01*
X131818095Y-112831619D02*
X131865714Y-112784000D01*
X131960952Y-112736380D01*
X132199047Y-112736380D01*
X132294285Y-112784000D01*
X132341904Y-112831619D01*
X132389523Y-112926857D01*
X132389523Y-113022095D01*
X132341904Y-113164952D01*
X131770476Y-113736380D01*
X132389523Y-113736380D01*
X133008571Y-112736380D02*
X133103809Y-112736380D01*
X133199047Y-112784000D01*
X133246666Y-112831619D01*
X133294285Y-112926857D01*
X133341904Y-113117333D01*
X133341904Y-113355428D01*
X133294285Y-113545904D01*
X133246666Y-113641142D01*
X133199047Y-113688761D01*
X133103809Y-113736380D01*
X133008571Y-113736380D01*
X132913333Y-113688761D01*
X132865714Y-113641142D01*
X132818095Y-113545904D01*
X132770476Y-113355428D01*
X132770476Y-113117333D01*
X132818095Y-112926857D01*
X132865714Y-112831619D01*
X132913333Y-112784000D01*
X133008571Y-112736380D01*
G04 #@! TO.C,C12*
X137025142Y-115165142D02*
X136977523Y-115212761D01*
X136834666Y-115260380D01*
X136739428Y-115260380D01*
X136596571Y-115212761D01*
X136501333Y-115117523D01*
X136453714Y-115022285D01*
X136406095Y-114831809D01*
X136406095Y-114688952D01*
X136453714Y-114498476D01*
X136501333Y-114403238D01*
X136596571Y-114308000D01*
X136739428Y-114260380D01*
X136834666Y-114260380D01*
X136977523Y-114308000D01*
X137025142Y-114355619D01*
X137977523Y-115260380D02*
X137406095Y-115260380D01*
X137691809Y-115260380D02*
X137691809Y-114260380D01*
X137596571Y-114403238D01*
X137501333Y-114498476D01*
X137406095Y-114546095D01*
X138358476Y-114355619D02*
X138406095Y-114308000D01*
X138501333Y-114260380D01*
X138739428Y-114260380D01*
X138834666Y-114308000D01*
X138882285Y-114355619D01*
X138929904Y-114450857D01*
X138929904Y-114546095D01*
X138882285Y-114688952D01*
X138310857Y-115260380D01*
X138929904Y-115260380D01*
G04 #@! TO.C,R22*
X150452380Y-103284457D02*
X149976190Y-103617790D01*
X150452380Y-103855885D02*
X149452380Y-103855885D01*
X149452380Y-103474933D01*
X149500000Y-103379695D01*
X149547619Y-103332076D01*
X149642857Y-103284457D01*
X149785714Y-103284457D01*
X149880952Y-103332076D01*
X149928571Y-103379695D01*
X149976190Y-103474933D01*
X149976190Y-103855885D01*
X149547619Y-102903504D02*
X149500000Y-102855885D01*
X149452380Y-102760647D01*
X149452380Y-102522552D01*
X149500000Y-102427314D01*
X149547619Y-102379695D01*
X149642857Y-102332076D01*
X149738095Y-102332076D01*
X149880952Y-102379695D01*
X150452380Y-102951123D01*
X150452380Y-102332076D01*
X149547619Y-101951123D02*
X149500000Y-101903504D01*
X149452380Y-101808266D01*
X149452380Y-101570171D01*
X149500000Y-101474933D01*
X149547619Y-101427314D01*
X149642857Y-101379695D01*
X149738095Y-101379695D01*
X149880952Y-101427314D01*
X150452380Y-101998742D01*
X150452380Y-101379695D01*
G04 #@! TO.C,R26*
X147010380Y-103766857D02*
X146534190Y-104100190D01*
X147010380Y-104338285D02*
X146010380Y-104338285D01*
X146010380Y-103957333D01*
X146058000Y-103862095D01*
X146105619Y-103814476D01*
X146200857Y-103766857D01*
X146343714Y-103766857D01*
X146438952Y-103814476D01*
X146486571Y-103862095D01*
X146534190Y-103957333D01*
X146534190Y-104338285D01*
X146105619Y-103385904D02*
X146058000Y-103338285D01*
X146010380Y-103243047D01*
X146010380Y-103004952D01*
X146058000Y-102909714D01*
X146105619Y-102862095D01*
X146200857Y-102814476D01*
X146296095Y-102814476D01*
X146438952Y-102862095D01*
X147010380Y-103433523D01*
X147010380Y-102814476D01*
X146010380Y-101957333D02*
X146010380Y-102147809D01*
X146058000Y-102243047D01*
X146105619Y-102290666D01*
X146248476Y-102385904D01*
X146438952Y-102433523D01*
X146819904Y-102433523D01*
X146915142Y-102385904D01*
X146962761Y-102338285D01*
X147010380Y-102243047D01*
X147010380Y-102052571D01*
X146962761Y-101957333D01*
X146915142Y-101909714D01*
X146819904Y-101862095D01*
X146581809Y-101862095D01*
X146486571Y-101909714D01*
X146438952Y-101957333D01*
X146391333Y-102052571D01*
X146391333Y-102243047D01*
X146438952Y-102338285D01*
X146486571Y-102385904D01*
X146581809Y-102433523D01*
G04 #@! TO.C,Q3*
X152904761Y-97547619D02*
X152809523Y-97500000D01*
X152714285Y-97404761D01*
X152571428Y-97261904D01*
X152476190Y-97214285D01*
X152380952Y-97214285D01*
X152428571Y-97452380D02*
X152333333Y-97404761D01*
X152238095Y-97309523D01*
X152190476Y-97119047D01*
X152190476Y-96785714D01*
X152238095Y-96595238D01*
X152333333Y-96500000D01*
X152428571Y-96452380D01*
X152619047Y-96452380D01*
X152714285Y-96500000D01*
X152809523Y-96595238D01*
X152857142Y-96785714D01*
X152857142Y-97119047D01*
X152809523Y-97309523D01*
X152714285Y-97404761D01*
X152619047Y-97452380D01*
X152428571Y-97452380D01*
X153190476Y-96452380D02*
X153809523Y-96452380D01*
X153476190Y-96833333D01*
X153619047Y-96833333D01*
X153714285Y-96880952D01*
X153761904Y-96928571D01*
X153809523Y-97023809D01*
X153809523Y-97261904D01*
X153761904Y-97357142D01*
X153714285Y-97404761D01*
X153619047Y-97452380D01*
X153333333Y-97452380D01*
X153238095Y-97404761D01*
X153190476Y-97357142D01*
G04 #@! TO.C,D2*
X128801904Y-99766380D02*
X128801904Y-98766380D01*
X129040000Y-98766380D01*
X129182857Y-98814000D01*
X129278095Y-98909238D01*
X129325714Y-99004476D01*
X129373333Y-99194952D01*
X129373333Y-99337809D01*
X129325714Y-99528285D01*
X129278095Y-99623523D01*
X129182857Y-99718761D01*
X129040000Y-99766380D01*
X128801904Y-99766380D01*
X129754285Y-98861619D02*
X129801904Y-98814000D01*
X129897142Y-98766380D01*
X130135238Y-98766380D01*
X130230476Y-98814000D01*
X130278095Y-98861619D01*
X130325714Y-98956857D01*
X130325714Y-99052095D01*
X130278095Y-99194952D01*
X129706666Y-99766380D01*
X130325714Y-99766380D01*
G04 #@! TO.C,R19*
X157678380Y-106814857D02*
X157202190Y-107148190D01*
X157678380Y-107386285D02*
X156678380Y-107386285D01*
X156678380Y-107005333D01*
X156726000Y-106910095D01*
X156773619Y-106862476D01*
X156868857Y-106814857D01*
X157011714Y-106814857D01*
X157106952Y-106862476D01*
X157154571Y-106910095D01*
X157202190Y-107005333D01*
X157202190Y-107386285D01*
X157678380Y-105862476D02*
X157678380Y-106433904D01*
X157678380Y-106148190D02*
X156678380Y-106148190D01*
X156821238Y-106243428D01*
X156916476Y-106338666D01*
X156964095Y-106433904D01*
X157678380Y-105386285D02*
X157678380Y-105195809D01*
X157630761Y-105100571D01*
X157583142Y-105052952D01*
X157440285Y-104957714D01*
X157249809Y-104910095D01*
X156868857Y-104910095D01*
X156773619Y-104957714D01*
X156726000Y-105005333D01*
X156678380Y-105100571D01*
X156678380Y-105291047D01*
X156726000Y-105386285D01*
X156773619Y-105433904D01*
X156868857Y-105481523D01*
X157106952Y-105481523D01*
X157202190Y-105433904D01*
X157249809Y-105386285D01*
X157297428Y-105291047D01*
X157297428Y-105100571D01*
X157249809Y-105005333D01*
X157202190Y-104957714D01*
X157106952Y-104910095D01*
G04 #@! TO.C,C11*
X148963142Y-106275142D02*
X148915523Y-106322761D01*
X148772666Y-106370380D01*
X148677428Y-106370380D01*
X148534571Y-106322761D01*
X148439333Y-106227523D01*
X148391714Y-106132285D01*
X148344095Y-105941809D01*
X148344095Y-105798952D01*
X148391714Y-105608476D01*
X148439333Y-105513238D01*
X148534571Y-105418000D01*
X148677428Y-105370380D01*
X148772666Y-105370380D01*
X148915523Y-105418000D01*
X148963142Y-105465619D01*
X149915523Y-106370380D02*
X149344095Y-106370380D01*
X149629809Y-106370380D02*
X149629809Y-105370380D01*
X149534571Y-105513238D01*
X149439333Y-105608476D01*
X149344095Y-105656095D01*
X150867904Y-106370380D02*
X150296476Y-106370380D01*
X150582190Y-106370380D02*
X150582190Y-105370380D01*
X150486952Y-105513238D01*
X150391714Y-105608476D01*
X150296476Y-105656095D01*
G04 #@! TO.C,D6*
X154376380Y-113006095D02*
X153376380Y-113006095D01*
X153376380Y-112768000D01*
X153424000Y-112625142D01*
X153519238Y-112529904D01*
X153614476Y-112482285D01*
X153804952Y-112434666D01*
X153947809Y-112434666D01*
X154138285Y-112482285D01*
X154233523Y-112529904D01*
X154328761Y-112625142D01*
X154376380Y-112768000D01*
X154376380Y-113006095D01*
X153376380Y-111577523D02*
X153376380Y-111768000D01*
X153424000Y-111863238D01*
X153471619Y-111910857D01*
X153614476Y-112006095D01*
X153804952Y-112053714D01*
X154185904Y-112053714D01*
X154281142Y-112006095D01*
X154328761Y-111958476D01*
X154376380Y-111863238D01*
X154376380Y-111672761D01*
X154328761Y-111577523D01*
X154281142Y-111529904D01*
X154185904Y-111482285D01*
X153947809Y-111482285D01*
X153852571Y-111529904D01*
X153804952Y-111577523D01*
X153757333Y-111672761D01*
X153757333Y-111863238D01*
X153804952Y-111958476D01*
X153852571Y-112006095D01*
X153947809Y-112053714D01*
D12*
G04 #@! TO.C,LSP3*
X169866000Y-109220000D02*
X169866000Y-107890000D01*
X172526000Y-110490000D02*
X172526000Y-110550000D01*
X169866000Y-110490000D02*
X172526000Y-110490000D01*
X169866000Y-110490000D02*
X169866000Y-110550000D01*
X169866000Y-107890000D02*
X171196000Y-107890000D01*
X169866000Y-110550000D02*
X172526000Y-110550000D01*
G04 #@! TO.C,C2*
X126735000Y-101878000D02*
X126735000Y-102443000D01*
X126935000Y-101878000D02*
X126935000Y-102157000D01*
X126415000Y-98901000D02*
X126415000Y-99798000D01*
X124974000Y-101878000D02*
X124974000Y-103403000D01*
X126935000Y-99519000D02*
X126935000Y-99798000D01*
X126855000Y-101878000D02*
X126855000Y-102281000D01*
X125495000Y-101878000D02*
X125495000Y-103293000D01*
X126615000Y-99095000D02*
X126615000Y-99798000D01*
X126055000Y-98638000D02*
X126055000Y-99798000D01*
X125815000Y-98509000D02*
X125815000Y-99798000D01*
X125695000Y-98456000D02*
X125695000Y-99798000D01*
X125094000Y-101878000D02*
X125094000Y-103388000D01*
X125735000Y-101878000D02*
X125735000Y-103203000D01*
X127215000Y-100161000D02*
X127215000Y-101515000D01*
X126335000Y-98834000D02*
X126335000Y-99798000D01*
X125054000Y-101878000D02*
X125054000Y-103394000D01*
X126695000Y-101878000D02*
X126695000Y-102491000D01*
X125374000Y-101878000D02*
X125374000Y-103329000D01*
X127295000Y-100554000D02*
X127295000Y-101122000D01*
X126615000Y-101878000D02*
X126615000Y-102581000D01*
X126255000Y-101878000D02*
X126255000Y-102903000D01*
X126735000Y-99233000D02*
X126735000Y-99798000D01*
X126975000Y-99587000D02*
X126975000Y-99798000D01*
X127135000Y-99923000D02*
X127135000Y-101753000D01*
X125014000Y-101878000D02*
X125014000Y-103399000D01*
X125975000Y-101878000D02*
X125975000Y-103085000D01*
X127175000Y-100033000D02*
X127175000Y-101643000D01*
X125575000Y-101878000D02*
X125575000Y-103266000D01*
X126375000Y-101878000D02*
X126375000Y-102809000D01*
X126695000Y-99185000D02*
X126695000Y-99798000D01*
X126855000Y-99395000D02*
X126855000Y-99798000D01*
X124894000Y-98265000D02*
X124894000Y-103411000D01*
X125615000Y-101878000D02*
X125615000Y-103252000D01*
X126455000Y-98937000D02*
X126455000Y-99798000D01*
X124934000Y-101878000D02*
X124934000Y-103407000D01*
X126775000Y-101878000D02*
X126775000Y-102392000D01*
X125535000Y-98396000D02*
X125535000Y-99798000D01*
X126295000Y-98803000D02*
X126295000Y-99798000D01*
X127055000Y-99740000D02*
X127055000Y-101936000D01*
X125374000Y-98347000D02*
X125374000Y-99798000D01*
X125695000Y-101878000D02*
X125695000Y-103220000D01*
X126455000Y-101878000D02*
X126455000Y-102739000D01*
X125495000Y-98383000D02*
X125495000Y-99798000D01*
X125014000Y-98277000D02*
X125014000Y-99798000D01*
X126255000Y-98773000D02*
X126255000Y-99798000D01*
X126135000Y-98689000D02*
X126135000Y-99798000D01*
X126655000Y-99139000D02*
X126655000Y-99798000D01*
X125655000Y-98440000D02*
X125655000Y-99798000D01*
X121889225Y-99363000D02*
X122389225Y-99363000D01*
X126535000Y-101878000D02*
X126535000Y-102664000D01*
X126295000Y-101878000D02*
X126295000Y-102873000D01*
X126575000Y-101878000D02*
X126575000Y-102623000D01*
X126815000Y-101878000D02*
X126815000Y-102338000D01*
X126415000Y-101878000D02*
X126415000Y-102775000D01*
X127095000Y-99827000D02*
X127095000Y-101849000D01*
X125214000Y-101878000D02*
X125214000Y-103366000D01*
X126895000Y-99455000D02*
X126895000Y-99798000D01*
X125415000Y-101878000D02*
X125415000Y-103318000D01*
X125294000Y-101878000D02*
X125294000Y-103349000D01*
X125735000Y-98473000D02*
X125735000Y-99798000D01*
X125655000Y-101878000D02*
X125655000Y-103236000D01*
X126175000Y-98716000D02*
X126175000Y-99798000D01*
X126095000Y-101878000D02*
X126095000Y-103013000D01*
X125294000Y-98327000D02*
X125294000Y-99798000D01*
X124934000Y-98269000D02*
X124934000Y-99798000D01*
X126015000Y-98614000D02*
X126015000Y-99798000D01*
X125895000Y-101878000D02*
X125895000Y-103128000D01*
X124694000Y-98258000D02*
X124694000Y-103418000D01*
X125334000Y-101878000D02*
X125334000Y-103339000D01*
X126575000Y-99053000D02*
X126575000Y-99798000D01*
X126895000Y-101878000D02*
X126895000Y-102221000D01*
X126975000Y-101878000D02*
X126975000Y-102089000D01*
X126215000Y-98743000D02*
X126215000Y-99798000D01*
X125455000Y-101878000D02*
X125455000Y-103306000D01*
X122139225Y-99113000D02*
X122139225Y-99613000D01*
X125535000Y-101878000D02*
X125535000Y-103280000D01*
X125254000Y-101878000D02*
X125254000Y-103358000D01*
X126015000Y-101878000D02*
X126015000Y-103062000D01*
X124974000Y-98273000D02*
X124974000Y-99798000D01*
X126775000Y-99284000D02*
X126775000Y-99798000D01*
X126495000Y-101878000D02*
X126495000Y-102702000D01*
X125054000Y-98282000D02*
X125054000Y-99798000D01*
X125174000Y-98302000D02*
X125174000Y-99798000D01*
X126175000Y-101878000D02*
X126175000Y-102960000D01*
X125334000Y-98337000D02*
X125334000Y-99798000D01*
X124814000Y-98260000D02*
X124814000Y-103416000D01*
X125975000Y-98591000D02*
X125975000Y-99798000D01*
X125935000Y-101878000D02*
X125935000Y-103106000D01*
X125254000Y-98318000D02*
X125254000Y-99798000D01*
X125815000Y-101878000D02*
X125815000Y-103167000D01*
X127255000Y-100320000D02*
X127255000Y-101356000D01*
X126335000Y-101878000D02*
X126335000Y-102842000D01*
X125775000Y-98490000D02*
X125775000Y-99798000D01*
X125895000Y-98548000D02*
X125895000Y-99798000D01*
X125134000Y-101878000D02*
X125134000Y-103381000D01*
X125214000Y-98310000D02*
X125214000Y-99798000D01*
X125855000Y-98528000D02*
X125855000Y-99798000D01*
X126095000Y-98663000D02*
X126095000Y-99798000D01*
X125134000Y-98295000D02*
X125134000Y-99798000D01*
X126655000Y-101878000D02*
X126655000Y-102537000D01*
X125935000Y-98570000D02*
X125935000Y-99798000D01*
X126815000Y-99338000D02*
X126815000Y-99798000D01*
X125094000Y-98288000D02*
X125094000Y-99798000D01*
X125575000Y-98410000D02*
X125575000Y-99798000D01*
X126135000Y-101878000D02*
X126135000Y-102987000D01*
X124854000Y-98262000D02*
X124854000Y-103414000D01*
X125855000Y-101878000D02*
X125855000Y-103148000D01*
X126055000Y-101878000D02*
X126055000Y-103038000D01*
X125775000Y-101878000D02*
X125775000Y-103186000D01*
X126535000Y-99012000D02*
X126535000Y-99798000D01*
X125615000Y-98424000D02*
X125615000Y-99798000D01*
X125174000Y-101878000D02*
X125174000Y-103374000D01*
X125415000Y-98358000D02*
X125415000Y-99798000D01*
X126495000Y-98974000D02*
X126495000Y-99798000D01*
X125455000Y-98370000D02*
X125455000Y-99798000D01*
X127015000Y-99660000D02*
X127015000Y-102016000D01*
X124774000Y-98259000D02*
X124774000Y-103417000D01*
X124734000Y-98258000D02*
X124734000Y-103418000D01*
X126375000Y-98867000D02*
X126375000Y-99798000D01*
X126215000Y-101878000D02*
X126215000Y-102933000D01*
X127314000Y-100838000D02*
G75*
G03*
X127314000Y-100838000I-2620000J0D01*
G01*
G04 #@! TO.C,R12*
X147448000Y-99414359D02*
X147448000Y-99721641D01*
X148208000Y-99414359D02*
X148208000Y-99721641D01*
G04 #@! TO.C,LSP1*
X169866000Y-99593400D02*
X169866000Y-99653400D01*
X169866000Y-96993400D02*
X171196000Y-96993400D01*
X169866000Y-99593400D02*
X172526000Y-99593400D01*
X169866000Y-99653400D02*
X172526000Y-99653400D01*
X169866000Y-98323400D02*
X169866000Y-96993400D01*
X172526000Y-99593400D02*
X172526000Y-99653400D01*
G04 #@! TO.C,C1*
X127656000Y-108311836D02*
X127656000Y-108096164D01*
X128376000Y-108311836D02*
X128376000Y-108096164D01*
G04 #@! TO.C,R7*
X130936000Y-108050359D02*
X130936000Y-108357641D01*
X130176000Y-108050359D02*
X130176000Y-108357641D01*
G04 #@! TO.C,D5*
X153280000Y-114835000D02*
X153280000Y-116305000D01*
X155740000Y-114835000D02*
X153280000Y-114835000D01*
X153280000Y-116305000D02*
X155740000Y-116305000D01*
G04 #@! TO.C,R10*
X119480359Y-112142000D02*
X119787641Y-112142000D01*
X119480359Y-112902000D02*
X119787641Y-112902000D01*
G04 #@! TO.C,R1*
X141631641Y-101408000D02*
X141324359Y-101408000D01*
X141631641Y-102168000D02*
X141324359Y-102168000D01*
G04 #@! TO.C,D4*
X156437000Y-107814000D02*
X154967000Y-107814000D01*
X156437000Y-110274000D02*
X156437000Y-107814000D01*
X154967000Y-107814000D02*
X154967000Y-110274000D01*
G04 #@! TO.C,R3*
X128931641Y-106298000D02*
X128624359Y-106298000D01*
X128931641Y-105538000D02*
X128624359Y-105538000D01*
G04 #@! TO.C,LED2*
X147547000Y-97660000D02*
X147547000Y-95200000D01*
X146077000Y-97660000D02*
X147547000Y-97660000D01*
X146077000Y-95200000D02*
X146077000Y-97660000D01*
G04 #@! TO.C,C7*
X134512164Y-110384000D02*
X134727836Y-110384000D01*
X134512164Y-111104000D02*
X134727836Y-111104000D01*
G04 #@! TO.C,LSP4*
X169866000Y-105410000D02*
X172526000Y-105410000D01*
X169866000Y-104140000D02*
X169866000Y-102810000D01*
X169866000Y-102810000D02*
X171196000Y-102810000D01*
X169866000Y-105410000D02*
X169866000Y-105470000D01*
X172526000Y-105410000D02*
X172526000Y-105470000D01*
X169866000Y-105470000D02*
X172526000Y-105470000D01*
G04 #@! TO.C,LED3*
X150341000Y-97660000D02*
X150341000Y-95200000D01*
X148871000Y-97660000D02*
X150341000Y-97660000D01*
X148871000Y-95200000D02*
X148871000Y-97660000D01*
G04 #@! TO.C,Q1*
X134906000Y-100178000D02*
X137981000Y-100178000D01*
X137981000Y-102488000D02*
X137981000Y-103398000D01*
X137981000Y-100188000D02*
X137981000Y-101088000D01*
X135831000Y-103398000D02*
X137981000Y-103398000D01*
G04 #@! TO.C,C6*
X116478164Y-108310000D02*
X116693836Y-108310000D01*
X116478164Y-107590000D02*
X116693836Y-107590000D01*
G04 #@! TO.C,C10*
X140100164Y-116988000D02*
X140315836Y-116988000D01*
X140100164Y-117708000D02*
X140315836Y-117708000D01*
G04 #@! TO.C,R6*
X132434359Y-100458000D02*
X132741641Y-100458000D01*
X132434359Y-101218000D02*
X132741641Y-101218000D01*
G04 #@! TO.C,Q2*
X157352000Y-100271000D02*
X158262000Y-100271000D01*
X155042000Y-103346000D02*
X155042000Y-100271000D01*
X158262000Y-102421000D02*
X158262000Y-100271000D01*
X155052000Y-100271000D02*
X155952000Y-100271000D01*
G04 #@! TO.C,LED1*
X143029000Y-97660000D02*
X144499000Y-97660000D01*
X143029000Y-95200000D02*
X143029000Y-97660000D01*
X144499000Y-97660000D02*
X144499000Y-95200000D01*
G04 #@! TO.C,R29*
X142620000Y-105817641D02*
X142620000Y-105510359D01*
X141860000Y-105817641D02*
X141860000Y-105510359D01*
G04 #@! TO.C,R11*
X119480359Y-110872000D02*
X119787641Y-110872000D01*
X119480359Y-111632000D02*
X119787641Y-111632000D01*
G04 #@! TO.C,D1*
X143040000Y-99087000D02*
X140580000Y-99087000D01*
X140580000Y-99087000D02*
X140580000Y-100557000D01*
X140580000Y-100557000D02*
X143040000Y-100557000D01*
G04 #@! TO.C,JP1*
X111670000Y-107950000D02*
X111670000Y-106620000D01*
X111670000Y-106620000D02*
X113000000Y-106620000D01*
X111670000Y-109220000D02*
X111670000Y-116900000D01*
X111670000Y-109220000D02*
X114330000Y-109220000D01*
X111670000Y-116900000D02*
X114330000Y-116900000D01*
X114330000Y-109220000D02*
X114330000Y-116900000D01*
G04 #@! TO.C,R18*
X135002000Y-107796359D02*
X135002000Y-108103641D01*
X135762000Y-107796359D02*
X135762000Y-108103641D01*
G04 #@! TO.C,C5*
X140102000Y-95892164D02*
X140102000Y-96107836D01*
X140822000Y-95892164D02*
X140822000Y-96107836D01*
G04 #@! TO.C,R2*
X128396000Y-110308359D02*
X128396000Y-110615641D01*
X127636000Y-110308359D02*
X127636000Y-110615641D01*
G04 #@! TO.C,R21*
X140361641Y-113158000D02*
X140054359Y-113158000D01*
X140361641Y-113918000D02*
X140054359Y-113918000D01*
G04 #@! TO.C,C8*
X151451888Y-113706000D02*
X151451888Y-114530000D01*
X151971888Y-114392000D02*
X151971888Y-116748000D01*
X150811888Y-113260000D02*
X150811888Y-114530000D01*
X150250888Y-113059000D02*
X150250888Y-114530000D01*
X150210888Y-116610000D02*
X150210888Y-118090000D01*
X149970888Y-113009000D02*
X149970888Y-114530000D01*
X150451888Y-113115000D02*
X150451888Y-114530000D01*
X150651888Y-113188000D02*
X150651888Y-114530000D01*
X150050888Y-113020000D02*
X150050888Y-114530000D01*
X150330888Y-113079000D02*
X150330888Y-114530000D01*
X151651888Y-116610000D02*
X151651888Y-117223000D01*
X150330888Y-116610000D02*
X150330888Y-118061000D01*
X151251888Y-116610000D02*
X151251888Y-117605000D01*
X151331888Y-113599000D02*
X151331888Y-114530000D01*
X150491888Y-116610000D02*
X150491888Y-118012000D01*
X151771888Y-114070000D02*
X151771888Y-114530000D01*
X150210888Y-113050000D02*
X150210888Y-114530000D01*
X150731888Y-116610000D02*
X150731888Y-117918000D01*
X151771888Y-116610000D02*
X151771888Y-117070000D01*
X151851888Y-116610000D02*
X151851888Y-116953000D01*
X149970888Y-116610000D02*
X149970888Y-118131000D01*
X152171888Y-114893000D02*
X152171888Y-116247000D01*
X152011888Y-114472000D02*
X152011888Y-116668000D01*
X150170888Y-113042000D02*
X150170888Y-114530000D01*
X149650888Y-112990000D02*
X149650888Y-118150000D01*
X150010888Y-116610000D02*
X150010888Y-118126000D01*
X150411888Y-113102000D02*
X150411888Y-114530000D01*
X151531888Y-113785000D02*
X151531888Y-114530000D01*
X152091888Y-114655000D02*
X152091888Y-116485000D01*
X151211888Y-116610000D02*
X151211888Y-117635000D01*
X150691888Y-113205000D02*
X150691888Y-114530000D01*
X150531888Y-113142000D02*
X150531888Y-114530000D01*
X150771888Y-113241000D02*
X150771888Y-114530000D01*
X150010888Y-113014000D02*
X150010888Y-114530000D01*
X151571888Y-116610000D02*
X151571888Y-117313000D01*
X151451888Y-116610000D02*
X151451888Y-117434000D01*
X150411888Y-116610000D02*
X150411888Y-118038000D01*
X152251888Y-115286000D02*
X152251888Y-115854000D01*
X150851888Y-113280000D02*
X150851888Y-114530000D01*
X150371888Y-116610000D02*
X150371888Y-118050000D01*
X150371888Y-113090000D02*
X150371888Y-114530000D01*
X150571888Y-116610000D02*
X150571888Y-117984000D01*
X151331888Y-116610000D02*
X151331888Y-117541000D01*
X150931888Y-113323000D02*
X150931888Y-114530000D01*
X151691888Y-113965000D02*
X151691888Y-114530000D01*
X150250888Y-116610000D02*
X150250888Y-118081000D01*
X150971888Y-116610000D02*
X150971888Y-117794000D01*
X150090888Y-113027000D02*
X150090888Y-114530000D01*
X150290888Y-113069000D02*
X150290888Y-114530000D01*
X151371888Y-116610000D02*
X151371888Y-117507000D01*
X150451888Y-116610000D02*
X150451888Y-118025000D01*
X150891888Y-113302000D02*
X150891888Y-114530000D01*
X151171888Y-116610000D02*
X151171888Y-117665000D01*
X151051888Y-116610000D02*
X151051888Y-117745000D01*
X152051888Y-114559000D02*
X152051888Y-116581000D01*
X150531888Y-116610000D02*
X150531888Y-117998000D01*
X150691888Y-116610000D02*
X150691888Y-117935000D01*
X151091888Y-113421000D02*
X151091888Y-114530000D01*
X150170888Y-116610000D02*
X150170888Y-118098000D01*
X151851888Y-114187000D02*
X151851888Y-114530000D01*
X151011888Y-113370000D02*
X151011888Y-114530000D01*
X151211888Y-113505000D02*
X151211888Y-114530000D01*
X151291888Y-116610000D02*
X151291888Y-117574000D01*
X150090888Y-116610000D02*
X150090888Y-118113000D01*
X151371888Y-113633000D02*
X151371888Y-114530000D01*
X151611888Y-113871000D02*
X151611888Y-114530000D01*
X152211888Y-115052000D02*
X152211888Y-116088000D01*
X146846113Y-114095000D02*
X147346113Y-114095000D01*
X151811888Y-116610000D02*
X151811888Y-117013000D01*
X150130888Y-113034000D02*
X150130888Y-114530000D01*
X150571888Y-113156000D02*
X150571888Y-114530000D01*
X149770888Y-112992000D02*
X149770888Y-118148000D01*
X151411888Y-113669000D02*
X151411888Y-114530000D01*
X150290888Y-116610000D02*
X150290888Y-118071000D01*
X152131888Y-114765000D02*
X152131888Y-116375000D01*
X150771888Y-116610000D02*
X150771888Y-117899000D01*
X151131888Y-113448000D02*
X151131888Y-114530000D01*
X151011888Y-116610000D02*
X151011888Y-117770000D01*
X150971888Y-113346000D02*
X150971888Y-114530000D01*
X150050888Y-116610000D02*
X150050888Y-118120000D01*
X150851888Y-116610000D02*
X150851888Y-117860000D01*
X149810888Y-112994000D02*
X149810888Y-118146000D01*
X150491888Y-113128000D02*
X150491888Y-114530000D01*
X151891888Y-114251000D02*
X151891888Y-114530000D01*
X150811888Y-116610000D02*
X150811888Y-117880000D01*
X151811888Y-114127000D02*
X151811888Y-114530000D01*
X151491888Y-113744000D02*
X151491888Y-114530000D01*
X150931888Y-116610000D02*
X150931888Y-117817000D01*
X151691888Y-116610000D02*
X151691888Y-117175000D01*
X151731888Y-116610000D02*
X151731888Y-117124000D01*
X151611888Y-116610000D02*
X151611888Y-117269000D01*
X150651888Y-116610000D02*
X150651888Y-117952000D01*
X151051888Y-113395000D02*
X151051888Y-114530000D01*
X149930888Y-113005000D02*
X149930888Y-114530000D01*
X149930888Y-116610000D02*
X149930888Y-118135000D01*
X151291888Y-113566000D02*
X151291888Y-114530000D01*
X151531888Y-116610000D02*
X151531888Y-117355000D01*
X151131888Y-116610000D02*
X151131888Y-117692000D01*
X151411888Y-116610000D02*
X151411888Y-117471000D01*
X151171888Y-113475000D02*
X151171888Y-114530000D01*
X149730888Y-112991000D02*
X149730888Y-118149000D01*
X151891888Y-116610000D02*
X151891888Y-116889000D01*
X149890888Y-116610000D02*
X149890888Y-118139000D01*
X150130888Y-116610000D02*
X150130888Y-118106000D01*
X150611888Y-116610000D02*
X150611888Y-117968000D01*
X150891888Y-116610000D02*
X150891888Y-117838000D01*
X149690888Y-112990000D02*
X149690888Y-118150000D01*
X149850888Y-112997000D02*
X149850888Y-118143000D01*
X151491888Y-116610000D02*
X151491888Y-117396000D01*
X150731888Y-113222000D02*
X150731888Y-114530000D01*
X147096113Y-113845000D02*
X147096113Y-114345000D01*
X151731888Y-114016000D02*
X151731888Y-114530000D01*
X151931888Y-114319000D02*
X151931888Y-114530000D01*
X151251888Y-113535000D02*
X151251888Y-114530000D01*
X151571888Y-113827000D02*
X151571888Y-114530000D01*
X151651888Y-113917000D02*
X151651888Y-114530000D01*
X149890888Y-113001000D02*
X149890888Y-114530000D01*
X151931888Y-116610000D02*
X151931888Y-116821000D01*
X151091888Y-116610000D02*
X151091888Y-117719000D01*
X150611888Y-113172000D02*
X150611888Y-114530000D01*
X152270888Y-115570000D02*
G75*
G03*
X152270888Y-115570000I-2620000J0D01*
G01*
G04 #@! TO.C,R8*
X128624359Y-104774000D02*
X128931641Y-104774000D01*
X128624359Y-104014000D02*
X128931641Y-104014000D01*
G04 #@! TO.C,IC2*
X141159000Y-112669000D02*
X139209000Y-112669000D01*
X141159000Y-107549000D02*
X137709000Y-107549000D01*
X141159000Y-112669000D02*
X143109000Y-112669000D01*
X141159000Y-107549000D02*
X143109000Y-107549000D01*
G04 #@! TO.C,C4*
X116693836Y-115930000D02*
X116478164Y-115930000D01*
X116693836Y-115210000D02*
X116478164Y-115210000D01*
G04 #@! TO.C,R4*
X129232000Y-131845000D02*
X129232000Y-127125000D01*
X135772000Y-131845000D02*
X134942000Y-131845000D01*
X138982000Y-120255000D02*
X129242000Y-120255000D01*
X138982000Y-123315000D02*
X138982000Y-120255000D01*
X138982000Y-131845000D02*
X138982000Y-127125000D01*
X130422000Y-131845000D02*
X129242000Y-131845000D01*
X138982000Y-131845000D02*
X137492000Y-131845000D01*
X129242000Y-123315000D02*
X129242000Y-120255000D01*
X133322000Y-131845000D02*
X132792000Y-131845000D01*
G04 #@! TO.C,R14*
X136272000Y-107796359D02*
X136272000Y-108103641D01*
X137032000Y-107796359D02*
X137032000Y-108103641D01*
G04 #@! TO.C,D3*
X127880000Y-102135000D02*
X127880000Y-103605000D01*
X130340000Y-102135000D02*
X127880000Y-102135000D01*
X127880000Y-103605000D02*
X130340000Y-103605000D01*
G04 #@! TO.C,R17*
X113130000Y-123315000D02*
X113130000Y-120255000D01*
X122870000Y-120255000D02*
X113130000Y-120255000D01*
X122870000Y-123315000D02*
X122870000Y-120255000D01*
X122870000Y-131845000D02*
X121380000Y-131845000D01*
X122870000Y-131845000D02*
X122870000Y-127125000D01*
X113120000Y-131845000D02*
X113120000Y-127125000D01*
X119660000Y-131845000D02*
X118830000Y-131845000D01*
X114310000Y-131845000D02*
X113130000Y-131845000D01*
X117210000Y-131845000D02*
X116680000Y-131845000D01*
G04 #@! TO.C,R15*
X164310000Y-131845000D02*
X163780000Y-131845000D01*
X166760000Y-131845000D02*
X165930000Y-131845000D01*
X161410000Y-131845000D02*
X160230000Y-131845000D01*
X160230000Y-123315000D02*
X160230000Y-120255000D01*
X169970000Y-131845000D02*
X168480000Y-131845000D01*
X160220000Y-131845000D02*
X160220000Y-127125000D01*
X169970000Y-120255000D02*
X160230000Y-120255000D01*
X169970000Y-131845000D02*
X169970000Y-127125000D01*
X169970000Y-123315000D02*
X169970000Y-120255000D01*
G04 #@! TO.C,C3*
X129646000Y-108096164D02*
X129646000Y-108311836D01*
X128926000Y-108096164D02*
X128926000Y-108311836D01*
G04 #@! TO.C,R28*
X140361641Y-116458000D02*
X140054359Y-116458000D01*
X140361641Y-115698000D02*
X140054359Y-115698000D01*
G04 #@! TO.C,LSP2*
X119948000Y-102108000D02*
X119948000Y-102168000D01*
X117288000Y-100838000D02*
X117288000Y-99508000D01*
X117288000Y-102108000D02*
X119948000Y-102108000D01*
X117288000Y-102108000D02*
X117288000Y-102168000D01*
X117288000Y-99508000D02*
X118618000Y-99508000D01*
X117288000Y-102168000D02*
X119948000Y-102168000D01*
G04 #@! TO.C,R25*
X144980000Y-131845000D02*
X144980000Y-127125000D01*
X154730000Y-120255000D02*
X144990000Y-120255000D01*
X154730000Y-131845000D02*
X153240000Y-131845000D01*
X151520000Y-131845000D02*
X150690000Y-131845000D01*
X154730000Y-131845000D02*
X154730000Y-127125000D01*
X144990000Y-123315000D02*
X144990000Y-120255000D01*
X154730000Y-123315000D02*
X154730000Y-120255000D01*
X149070000Y-131845000D02*
X148540000Y-131845000D01*
X146170000Y-131845000D02*
X144990000Y-131845000D01*
G04 #@! TO.C,R13*
X132487641Y-111124000D02*
X132180359Y-111124000D01*
X132487641Y-110364000D02*
X132180359Y-110364000D01*
G04 #@! TO.C,R9*
X121030000Y-109373641D02*
X121030000Y-109066359D01*
X120270000Y-109373641D02*
X120270000Y-109066359D01*
G04 #@! TO.C,R5*
X131418359Y-106298000D02*
X131725641Y-106298000D01*
X131418359Y-105538000D02*
X131725641Y-105538000D01*
G04 #@! TO.C,R23*
X137567641Y-117728000D02*
X137260359Y-117728000D01*
X137567641Y-116968000D02*
X137260359Y-116968000D01*
G04 #@! TO.C,R16*
X126645641Y-115952000D02*
X126338359Y-115952000D01*
X126645641Y-116712000D02*
X126338359Y-116712000D01*
G04 #@! TO.C,D7*
X156836000Y-108739000D02*
X156836000Y-110209000D01*
X156836000Y-110209000D02*
X159296000Y-110209000D01*
X159296000Y-108739000D02*
X156836000Y-108739000D01*
G04 #@! TO.C,R24*
X143130000Y-105510359D02*
X143130000Y-105817641D01*
X143890000Y-105510359D02*
X143890000Y-105817641D01*
G04 #@! TO.C,IC1*
X121519000Y-111760000D02*
X121519000Y-109810000D01*
X121519000Y-111760000D02*
X121519000Y-115210000D01*
X126639000Y-111760000D02*
X126639000Y-109810000D01*
X126639000Y-111760000D02*
X126639000Y-113710000D01*
G04 #@! TO.C,R27*
X154304000Y-106325641D02*
X154304000Y-106018359D01*
X153544000Y-106325641D02*
X153544000Y-106018359D01*
G04 #@! TO.C,C9*
X134727836Y-112374000D02*
X134512164Y-112374000D01*
X134727836Y-111654000D02*
X134512164Y-111654000D01*
G04 #@! TO.C,LSP5*
X169866000Y-112970000D02*
X171196000Y-112970000D01*
X169866000Y-114300000D02*
X169866000Y-112970000D01*
X169866000Y-115630000D02*
X172526000Y-115630000D01*
X172526000Y-115570000D02*
X172526000Y-115630000D01*
X169866000Y-115570000D02*
X169866000Y-115630000D01*
X169866000Y-115570000D02*
X172526000Y-115570000D01*
G04 #@! TO.C,JP2*
X130048000Y-97215000D02*
X130048000Y-94555000D01*
X137728000Y-97215000D02*
X137728000Y-94555000D01*
X127448000Y-97215000D02*
X127448000Y-95885000D01*
X130048000Y-94555000D02*
X137728000Y-94555000D01*
X128778000Y-97215000D02*
X127448000Y-97215000D01*
X130048000Y-97215000D02*
X137728000Y-97215000D01*
G04 #@! TO.C,R20*
X134773641Y-112904000D02*
X134466359Y-112904000D01*
X134773641Y-113664000D02*
X134466359Y-113664000D01*
G04 #@! TO.C,C12*
X140315836Y-115168000D02*
X140100164Y-115168000D01*
X140315836Y-114448000D02*
X140100164Y-114448000D01*
G04 #@! TO.C,R22*
X149620000Y-99846359D02*
X149620000Y-100153641D01*
X150380000Y-99846359D02*
X150380000Y-100153641D01*
G04 #@! TO.C,R26*
X146178000Y-105510359D02*
X146178000Y-105817641D01*
X146938000Y-105510359D02*
X146938000Y-105817641D01*
G04 #@! TO.C,Q3*
X153420000Y-100271000D02*
X154330000Y-100271000D01*
X154330000Y-102421000D02*
X154330000Y-100271000D01*
X151120000Y-100271000D02*
X152020000Y-100271000D01*
X151110000Y-103346000D02*
X151110000Y-100271000D01*
G04 #@! TO.C,D2*
X128740000Y-101573000D02*
X131200000Y-101573000D01*
X131200000Y-100103000D02*
X128740000Y-100103000D01*
X131200000Y-101573000D02*
X131200000Y-100103000D01*
G04 #@! TO.C,R19*
X155322000Y-106325641D02*
X155322000Y-106018359D01*
X156082000Y-106325641D02*
X156082000Y-106018359D01*
G04 #@! TO.C,C11*
X151931888Y-110514000D02*
X151931888Y-110725000D01*
X151051888Y-107299000D02*
X151051888Y-108434000D01*
X149650888Y-106894000D02*
X149650888Y-112054000D01*
X150210888Y-106954000D02*
X150210888Y-108434000D01*
X151691888Y-110514000D02*
X151691888Y-111079000D01*
X150531888Y-107046000D02*
X150531888Y-108434000D01*
X151011888Y-110514000D02*
X151011888Y-111674000D01*
X150250888Y-110514000D02*
X150250888Y-111985000D01*
X151091888Y-110514000D02*
X151091888Y-111623000D01*
X150771888Y-107145000D02*
X150771888Y-108434000D01*
X151851888Y-108091000D02*
X151851888Y-108434000D01*
X150691888Y-107109000D02*
X150691888Y-108434000D01*
X150811888Y-110514000D02*
X150811888Y-111784000D01*
X150971888Y-110514000D02*
X150971888Y-111698000D01*
X151171888Y-110514000D02*
X151171888Y-111569000D01*
X150451888Y-110514000D02*
X150451888Y-111929000D01*
X151371888Y-110514000D02*
X151371888Y-111411000D01*
X151531888Y-110514000D02*
X151531888Y-111259000D01*
X151771888Y-107974000D02*
X151771888Y-108434000D01*
X150090888Y-110514000D02*
X150090888Y-112017000D01*
X151891888Y-110514000D02*
X151891888Y-110793000D01*
X151611888Y-110514000D02*
X151611888Y-111173000D01*
X151491888Y-107648000D02*
X151491888Y-108434000D01*
X152051888Y-108463000D02*
X152051888Y-110485000D01*
X151931888Y-108223000D02*
X151931888Y-108434000D01*
X151291888Y-110514000D02*
X151291888Y-111478000D01*
X150371888Y-106994000D02*
X150371888Y-108434000D01*
X151571888Y-107731000D02*
X151571888Y-108434000D01*
X149730888Y-106895000D02*
X149730888Y-112053000D01*
X150290888Y-110514000D02*
X150290888Y-111975000D01*
X150851888Y-110514000D02*
X150851888Y-111764000D01*
X151491888Y-110514000D02*
X151491888Y-111300000D01*
X150731888Y-107126000D02*
X150731888Y-108434000D01*
X147096113Y-107749000D02*
X147096113Y-108249000D01*
X152011888Y-108376000D02*
X152011888Y-110572000D01*
X150170888Y-106946000D02*
X150170888Y-108434000D01*
X151771888Y-110514000D02*
X151771888Y-110974000D01*
X149810888Y-106898000D02*
X149810888Y-112050000D01*
X151291888Y-107470000D02*
X151291888Y-108434000D01*
X149850888Y-106901000D02*
X149850888Y-112047000D01*
X150330888Y-110514000D02*
X150330888Y-111965000D01*
X149970888Y-110514000D02*
X149970888Y-112035000D01*
X146846113Y-107999000D02*
X147346113Y-107999000D01*
X150851888Y-107184000D02*
X150851888Y-108434000D01*
X150250888Y-106963000D02*
X150250888Y-108434000D01*
X149770888Y-106896000D02*
X149770888Y-112052000D01*
X150731888Y-110514000D02*
X150731888Y-111822000D01*
X150931888Y-110514000D02*
X150931888Y-111721000D01*
X150090888Y-106931000D02*
X150090888Y-108434000D01*
X150411888Y-110514000D02*
X150411888Y-111942000D01*
X151371888Y-107537000D02*
X151371888Y-108434000D01*
X151691888Y-107869000D02*
X151691888Y-108434000D01*
X151251888Y-107439000D02*
X151251888Y-108434000D01*
X151411888Y-107573000D02*
X151411888Y-108434000D01*
X152211888Y-108956000D02*
X152211888Y-109992000D01*
X152171888Y-108797000D02*
X152171888Y-110151000D01*
X151091888Y-107325000D02*
X151091888Y-108434000D01*
X149930888Y-110514000D02*
X149930888Y-112039000D01*
X151011888Y-107274000D02*
X151011888Y-108434000D01*
X150050888Y-110514000D02*
X150050888Y-112024000D01*
X151331888Y-110514000D02*
X151331888Y-111445000D01*
X149970888Y-106913000D02*
X149970888Y-108434000D01*
X151891888Y-108155000D02*
X151891888Y-108434000D01*
X150571888Y-107060000D02*
X150571888Y-108434000D01*
X152251888Y-109190000D02*
X152251888Y-109758000D01*
X151331888Y-107503000D02*
X151331888Y-108434000D01*
X151451888Y-110514000D02*
X151451888Y-111338000D01*
X151451888Y-107610000D02*
X151451888Y-108434000D01*
X150891888Y-110514000D02*
X150891888Y-111742000D01*
X150651888Y-110514000D02*
X150651888Y-111856000D01*
X150491888Y-110514000D02*
X150491888Y-111916000D01*
X150971888Y-107250000D02*
X150971888Y-108434000D01*
X152131888Y-108669000D02*
X152131888Y-110279000D01*
X151411888Y-110514000D02*
X151411888Y-111375000D01*
X150931888Y-107227000D02*
X150931888Y-108434000D01*
X150491888Y-107032000D02*
X150491888Y-108434000D01*
X150210888Y-110514000D02*
X150210888Y-111994000D01*
X150130888Y-110514000D02*
X150130888Y-112010000D01*
X151651888Y-107821000D02*
X151651888Y-108434000D01*
X151131888Y-107352000D02*
X151131888Y-108434000D01*
X151811888Y-110514000D02*
X151811888Y-110917000D01*
X150611888Y-107076000D02*
X150611888Y-108434000D01*
X150371888Y-110514000D02*
X150371888Y-111954000D01*
X152091888Y-108559000D02*
X152091888Y-110389000D01*
X151211888Y-107409000D02*
X151211888Y-108434000D01*
X151531888Y-107689000D02*
X151531888Y-108434000D01*
X151131888Y-110514000D02*
X151131888Y-111596000D01*
X151571888Y-110514000D02*
X151571888Y-111217000D01*
X150010888Y-110514000D02*
X150010888Y-112030000D01*
X150811888Y-107164000D02*
X150811888Y-108434000D01*
X151851888Y-110514000D02*
X151851888Y-110857000D01*
X149890888Y-106905000D02*
X149890888Y-108434000D01*
X151731888Y-107920000D02*
X151731888Y-108434000D01*
X150571888Y-110514000D02*
X150571888Y-111888000D01*
X150411888Y-107006000D02*
X150411888Y-108434000D01*
X149890888Y-110514000D02*
X149890888Y-112043000D01*
X151811888Y-108031000D02*
X151811888Y-108434000D01*
X151611888Y-107775000D02*
X151611888Y-108434000D01*
X151051888Y-110514000D02*
X151051888Y-111649000D01*
X150130888Y-106938000D02*
X150130888Y-108434000D01*
X151651888Y-110514000D02*
X151651888Y-111127000D01*
X149930888Y-106909000D02*
X149930888Y-108434000D01*
X150611888Y-110514000D02*
X150611888Y-111872000D01*
X150771888Y-110514000D02*
X150771888Y-111803000D01*
X150330888Y-106983000D02*
X150330888Y-108434000D01*
X150651888Y-107092000D02*
X150651888Y-108434000D01*
X151731888Y-110514000D02*
X151731888Y-111028000D01*
X150531888Y-110514000D02*
X150531888Y-111902000D01*
X151211888Y-110514000D02*
X151211888Y-111539000D01*
X151171888Y-107379000D02*
X151171888Y-108434000D01*
X149690888Y-106894000D02*
X149690888Y-112054000D01*
X150891888Y-107206000D02*
X150891888Y-108434000D01*
X151971888Y-108296000D02*
X151971888Y-110652000D01*
X150451888Y-107019000D02*
X150451888Y-108434000D01*
X151251888Y-110514000D02*
X151251888Y-111509000D01*
X150010888Y-106918000D02*
X150010888Y-108434000D01*
X150050888Y-106924000D02*
X150050888Y-108434000D01*
X150691888Y-110514000D02*
X150691888Y-111839000D01*
X150290888Y-106973000D02*
X150290888Y-108434000D01*
X150170888Y-110514000D02*
X150170888Y-112002000D01*
X152270888Y-109474000D02*
G75*
G03*
X152270888Y-109474000I-2620000J0D01*
G01*
G04 #@! TO.C,D6*
X154659000Y-107814000D02*
X153189000Y-107814000D01*
X154659000Y-110274000D02*
X154659000Y-107814000D01*
X153189000Y-107814000D02*
X153189000Y-110274000D01*
G04 #@! TD*
M02*
