M48
; DRILL file {KiCad 6.0.2-378541a8eb~116~ubuntu21.10.1} date Wed Mar  2 08:52:49 2022
; FORMAT={-:-/ absolute / metric / decimal}
; #@! TF.CreationDate,2022-03-02T08:52:49+01:00
; #@! TF.GenerationSoftware,Kicad,Pcbnew,6.0.2-378541a8eb~116~ubuntu21.10.1
; #@! TF.FileFunction,MixedPlating,1,2
FMAT,2
METRIC
; #@! TA.AperFunction,Plated,PTH,ViaDrill
T1C0.400
; #@! TA.AperFunction,Plated,PTH,ComponentDrill
T2C0.800
; #@! TA.AperFunction,Plated,PTH,ComponentDrill
T3C1.000
; #@! TA.AperFunction,Plated,PTH,ComponentDrill
T4C1.100
%
G90
G05
T1
X122.174Y-107.188
X122.174Y-116.078
X127.508Y-114.3
X128.016Y-111.76
X128.397Y-115.189
X130.302Y-105.41
X131.064Y-110.744
X133.604Y-108.204
X133.604Y-115.824
X135.382Y-117.348
X137.414Y-103.632
X139.7Y-104.902
X139.954Y-99.822
X140.97Y-110.744
X141.482Y-108.962
X143.764Y-93.726
X144.018Y-115.824
X145.034Y-102.87
X145.288Y-107.442
X145.288Y-112.014
X145.923Y-113.03
X146.558Y-108.749
X147.828Y-101.346
X148.463Y-113.03
X152.654Y-113.03
X153.67Y-101.092
X156.652Y-101.854
X157.734Y-101.092
T2
X123.444Y-100.838
X125.944Y-100.838
X148.401Y-109.474
X148.401Y-115.57
X150.901Y-109.474
X150.901Y-115.57
T3
X113.0Y-107.95
X113.0Y-110.49
X113.0Y-113.03
X113.0Y-115.57
X115.5Y-132.725
X118.0Y-132.725
X118.618Y-100.838
X120.5Y-132.725
X128.778Y-95.885
X131.318Y-95.885
X131.612Y-132.725
X133.858Y-95.885
X134.112Y-132.725
X136.398Y-95.885
X136.612Y-132.725
X147.36Y-132.725
X149.86Y-132.725
X152.36Y-132.725
X162.6Y-132.725
X165.1Y-132.725
X167.6Y-132.725
X171.196Y-98.323
X171.196Y-104.14
X171.196Y-109.22
X171.196Y-114.3
T4
X165.1Y-99.06
X165.1Y-111.76
T4
X113.2Y-125.575G85X113.2Y-124.875
G05
X122.8Y-125.575G85X122.8Y-124.875
G05
X129.312Y-125.575G85X129.312Y-124.875
G05
X138.912Y-125.575G85X138.912Y-124.875
G05
X145.06Y-125.575G85X145.06Y-124.875
G05
X154.66Y-125.575G85X154.66Y-124.875
G05
X160.3Y-125.575G85X160.3Y-124.875
G05
X169.9Y-125.575G85X169.9Y-124.875
G05
T0
M30
